<?xml version="1.0" encoding="UTF-8"?><svg id="uuid-d6bbbd22-bcef-49c0-8bec-d3d767980590" xmlns="http://www.w3.org/2000/svg" xmlns:xlink="http://www.w3.org/1999/xlink" viewBox="0 0 99.8 361.8"><defs><style>.uuid-f3f7a720-6c9b-4ee9-bdf9-a9ac1956682b{fill:url(#uuid-1da09e99-9fe7-4e80-aac5-42fe66ed9889);stroke-width:0px;}</style><linearGradient id="uuid-1da09e99-9fe7-4e80-aac5-42fe66ed9889" x1="49.9" y1="-.9279" x2="49.9" y2="362.3528" gradientUnits="userSpaceOnUse"><stop offset="0" stop-color="#fdffff"/><stop offset="1" stop-color="#f6fbfc"/></linearGradient></defs><path class="uuid-f3f7a720-6c9b-4ee9-bdf9-a9ac1956682b" d="M23.7001,205c-7.274-3.8861-14.2516-7.4721-23.7001-7.4976v-5.0024h0c11.3,0,18.5,4.1,26.1,8.1,7.9,4.1,15.4,8.1,26.3,8.1s17.4-3.9,24.2-8.1c6.4-3.9,12.9999-8,23.2-8v4.8027c-.0334-.0001-.0665-.0027-.0999-.0027-9.5,0-14.5,3.5-20.5,7.3-6.7,4.2-14.4,8.9-26.8,8.9s-20.6-4.4-28.7-8.6ZM52.4,136.1c-10.9,0-18.4-4-26.3-8.1C18.5001,124,11.3,119.9,0,119.9h0v5.1024c9.4484.0255,16.4261,3.6115,23.7001,7.4976,8.1,4.2,16.3,8.6,28.7,8.6s20.1-4.7,26.8-8.9c6-3.8,11-7.3,20.5-7.3.0334,0,.0665.0026.0999.0027v-4.9027c-10.2,0-16.7999,4.1-23.2,8-6.8,4.2-13.3,8.1-24.2,8.1ZM52.4001,237.8c12.4,0,20.1-4.7,26.8-8.9,6-3.8,11-7.3,20.5-7.3.0334,0,.0665.0026.0999.0027v-4.9026c-10.2,0-16.7999,4.1-23.2,8-6.8,4.2-13.3,8.1-24.2,8.1s-18.4-4-26.3-8.1C18.5001,220.7,11.3,216.6,0,216.6h0v5.1024c9.4484.0255,16.4261,3.6116,23.7001,7.4976,8.1,4.2,16.3,8.6,28.7,8.6ZM52.4,160.3c-10.9,0-18.4-4-26.3-8.1C18.5001,148.2,11.3,144.1,0,144.1h0v5.1024c9.4484.0255,16.4261,3.6116,23.7001,7.4976,8.1,4.2,16.3,8.6,28.7,8.6s20.1-4.7,26.8-8.9c6-3.8,11-7.3,20.5-7.3.0334,0,.0665.0026.0999.0027v-4.9026c-10.2,0-16.7999,4.1-23.2,8-6.8,4.2-13.3,8.1-24.2,8.1ZM52.4001,189.4c12.4,0,20.1-4.7,26.8-8.9,6-3.8,11-7.3,20.5-7.3.0334,0,.0665.0026.0999.0027v-4.8027c-10.2,0-16.7999,4.1-23.2,8-6.8,4.2-13.3,8.1-24.2,8.1s-18.4-4-26.3-8.1C18.5001,172.4,11.3,168.3,0,168.3h0v5.0024c9.4484.0255,16.4261,3.6115,23.7001,7.4976,8.1,4.2,16.3,8.6,28.7,8.6ZM99.8,340.9c-10.1998,0-16.7999,4.1-23.1999,8-6.8,4.2-13.3,8.1-24.2,8.1s-18.4-4-26.3-8.1c-7.6-4-14.8-8.1-26.1-8.1h-.0001v4.9024c9.4484.0255,16.4261,3.6116,23.7001,7.4976,8.1,4.2,16.3,8.6,28.7,8.6s20.1-4.7,26.8-8.9c6-3.8,11-7.3,20.5-7.3.0334,0,.0665.0026.0999.0027v-4.7027ZM0,5.0024c9.4484.0255,16.4261,3.6115,23.7001,7.4976,8.1,4.2,16.3,8.6,28.7,8.6s20.1-4.7,26.8-8.9c6-3.8,11-7.3,20.5-7.3.0334,0,.0665.0026.0999.0027V.1c-10.2,0-16.7999,4.1-23.2,8-6.8,4.2-13.3,8.1-24.2,8.1s-18.4-4-26.3-8.1C18.5001,4.1,11.3,0,0,0h0v5.0024ZM52.4001,337.6c12.4,0,20.1-4.7,26.8-8.9,6-3.8,11-7.3,20.5-7.3.0334,0,.0665.0026.0999.0027v-4.7028c-10.1998,0-16.7999,4.1-23.1999,8-6.8,4.2-13.3,8.1-24.2,8.1s-18.4-4-26.3-8.1c-7.6-4-14.8-8.1-26.1-8.1h-.0001v4.9024c9.4484.0255,16.4261,3.6115,23.7001,7.4976,8.1,4.2,16.3,8.6,28.7,8.6ZM52.4001,313.4c12.4,0,20.1-4.7,26.8-8.9,6-3.8,11-7.3,20.5-7.3.0334,0,.0665.0026.0999.0027v-4.7028c-10.1998,0-16.7999,4.1-23.1999,8-6.8,4.2-13.3,8.1-24.2,8.1s-18.4-4-26.3-8.1c-7.6-4-14.8-8.1-26.1-8.1h-.0001v4.9024c9.4484.0255,16.4261,3.6115,23.7001,7.4976,8.1,4.2,16.3,8.6,28.7,8.6ZM52.4,62.5c-10.9,0-18.4-4-26.3-8.1C18.5001,50.4,11.3,46.3,0,46.3h0v5.1024c9.4484.0255,16.4261,3.6116,23.7001,7.4976,8.1,4.2,16.3,8.6,28.7,8.6s20.1-4.7,26.8-8.9c6-3.8,11-7.3,20.5-7.3.0334,0,.0665.0026.0999.0027v-4.9027c-10.2,0-16.7999,4.1-23.2,8-6.8,4.2-13.3,8.1-24.2,8.1ZM52.4,39.4c-10.9,0-18.4-4-26.3-8.1C18.5001,27.3,11.3,23.2,0,23.2h0v5.0024c9.4484.0255,16.4261,3.6115,23.7001,7.4976,8.1,4.2,16.3,8.6,28.7,8.6s20.1-4.7,26.8-8.9c6-3.8,11-7.3,20.5-7.3.0334,0,.0665.0026.0999.0027v-4.8027c-10.2,0-16.7999,4.1-23.2,8-6.8,4.2-13.3,8.1-24.2,8.1ZM23.8,280.6c8.1,4.2,16.3,8.6,28.7,8.6s20.1-4.7,26.8-8.9c6-3.8,10.9999-7.3,20.4999-7.3v-4.6951c-10.0842.0543-16.6427,4.1211-22.9999,7.995-6.8,4.2-13.3,8.1-24.2,8.1s-18.4-4-26.3-8.1c-7.6-4-14.8-8.1-26.1-8.1-.0679,0-.1324.0046-.2001.0049v4.8951h0c9.5,0,16.5,3.6,23.8,7.5ZM52.4001,264c12.4,0,20.1-4.7,26.8-8.9,6-3.8,11-7.3,20.5-7.3.0334,0,.0665.0026.0999.0027v-4.7027c-10.1998,0-16.7999,4.1-23.1999,8-6.8,4.2-13.3,8.1-24.2,8.1s-18.4-3.9999-26.3-8.1C18.5001,247.1,11.3001,243.0001.0001,243.0001h-.0001v4.9023c9.4484.0255,16.4261,3.6115,23.7001,7.4976,8.1,4.2,16.3,8.6,28.7,8.6ZM52.4,112.9c-10.9,0-18.4-4-26.3-8.1C18.5001,100.8,11.3,96.7,0,96.7h0v5.1024c9.4484.0255,16.4261,3.6115,23.7001,7.4976,8.1,4.2,16.3,8.6,28.7,8.6s20.1-4.7,26.8-8.9c6-3.8,11-7.3,20.5-7.3.0334,0,.0665.0026.0999.0027v-4.9026c-10.2,0-16.7999,4.1-23.2,8-6.8,4.2-13.3,8.1-24.2,8.1ZM52.4,87.7c-10.9,0-18.4-4-26.3-8.1C18.5001,75.6,11.3,71.5,0,71.5h0v5.1024c9.4484.0255,16.4261,3.6116,23.7001,7.4976,8.1,4.2,16.3,8.6,28.7,8.6s20.1-4.7,26.8-8.9c6-3.8,11-7.3,20.5-7.3.0334,0,.0665.0026.0999.0027v-4.9027c-10.2,0-16.7999,4.1-23.2,8-6.8,4.2-13.3,8.1-24.2,8.1Z"/></svg>