<?xml version="1.0" encoding="UTF-8"?><svg id="Logos" xmlns="http://www.w3.org/2000/svg" viewBox="0 0 7488 1224"><defs><style>.cls-1{fill:#005288;}.cls-2{fill:#0078ae;}.cls-3{fill:#fff;}.cls-4{fill:#c41230;}.cls-5{fill:#c0c2c4;}.cls-6{fill:#211e1f;}.cls-7{fill:#057dc1;}.cls-8{fill:#5e9732;}</style></defs><path class="cls-1" d="m1100.87,787.31h45.48v-276.82h-45.48v-27.73h231.33v72.12h-27.75v-44.38h-104.28v123.7h80.99v-40.47h27.75v115.95h-27.75v-47.71h-80.99v125.36h46.03v27.75h-145.34v-27.75Z"/><path class="cls-1" d="m1361.05,787.31h44.91v-276.82h-44.91v-27.73h232.41v72.12h-27.72v-44.38h-105.98v119.82h81.53v-40.47h27.78v115.94h-27.78v-47.72h-81.53v129.25h109.85v-46.56h27.73v74.31h-236.28v-27.75Z"/><path class="cls-1" d="m1622.3,787.31h45.5v-276.82h-45.5v-27.73h106.48v27.73l106.56,222.46,104.83-222.46v-27.73h108.72v27.73h-44.94v276.82h44.94v27.75h-144.79v-27.75h46.06v-227.99h-1.11l-119.85,255.74h-12.17l-117.63-250.76h-1.07v223h44.9v27.75h-120.92v-27.75Z"/><path class="cls-1" d="m2264.13,670.81h-88.77l42.74-122.06h1.13l44.9,122.06Zm-186.38,144.25h86.54v-27.75h-29.98l29.98-88.74h110.97l31.59,88.74h-31.59v27.75h115.89v-27.75h-28.81l-117.08-312.86h-28.29l-110.37,312.86h-28.85v27.75Z"/><path class="cls-3" d="m592.78,252.5c-213.33,0-386.28,172.94-386.28,386.28s172.96,386.3,386.28,386.3,386.3-172.95,386.3-386.3-172.95-386.28-386.3-386.28Z"/><path class="cls-4" d="m827.49,500.01c-4.33,1.48-8.64,2.67-12.85,3.59,24.05,39.38,37.9,85.66,37.9,135.17,0,143.43-116.27,259.71-259.7,259.71s-259.7-116.28-259.7-259.71c0-51.69,15.11-99.85,41.13-140.3-4.14-1.21-8.18-2.78-12.25-4.7-26.45,41.99-41.75,91.71-41.75,145,0,150.54,122.04,272.57,272.56,272.57s272.57-122.03,272.57-272.57c0-50.68-13.83-98.12-37.92-138.76Z"/><path class="cls-4" d="m441.84,427.46c42.55-30.45,94.67-48.38,150.99-48.38,62.9,0,120.58,22.36,165.52,59.57,5.07-1.45,10.01-2.75,15.06-4.03-48.08-42.56-111.3-68.4-180.58-68.4-62.1,0-119.36,20.78-165.19,55.76,2.17.79,4.35,1.58,6.56,2.44,2.63,1.01,5.17,2.02,7.63,3.05Z"/><path class="cls-5" d="m592.78,252.5c-213.33,0-386.28,172.94-386.28,386.28s172.96,386.3,386.28,386.3,386.3-172.95,386.3-386.3-172.95-386.28-386.3-386.28Zm.02,748.65c-200.13,0-362.37-162.24-362.37-362.37s162.23-362.35,362.37-362.35,362.35,162.24,362.35,362.35-162.24,362.37-362.35,362.37Z"/><path class="cls-1" d="m499.58,561.34c-5.51-2.82-10.32-6.07-15.48-10.78-16.58-15.11-20.5-30.99-15.6-49.23,2.92-10.86,7.36-16.33,5.85-27.66-.86-6.49-5.46-11.71-10.06-16.12-11.08-10.66-24.22-17.24-43.64-23.77-11.99-4.03-46.86-14.85-62.25-28.78-3.48,10.23,3.97,23.84,12.83,25.66-7.84.79-14.56,4.88-17.67,9.33,5.92,6.86,17.74,14,27.5,14.18-4.51,3.02-10,9.42-11.84,13.02,8.44,4.49,21.89,8.26,32.24,7.54-4.35,3.48-8.12,7.91-10.57,11.96,7,3.19,20.62,7.83,33.6,8.79-4.77,2.36-11.59,10.51-15.12,15.52,7.29,3.26,23.09,5.23,32.88,6.21-7.02,3.69-14.34,11.05-18.38,17.71,7.1,3.41,20.46,7.2,31.38,6.85-5.38,5.15-8.94,11.43-10.98,17.5,8.26,1.69,16.96,1.73,27.02.38-6.12,7.74-8.57,17.97-9.44,25.28,8.19-.24,19.06-2.09,26.74-6.69-1.68,6.26-1.3,14.71,1.39,20.69,3.21-.72,6.95-2.06,11.02-4.27-.57-11.62-1.08-23.52-1.42-33.34Z"/><path class="cls-1" d="m832.45,423.79c-15.39,13.94-40,17.66-65.83,26.19-19.46,6.42-31.54,10.18-48.96,24.07-4.97,3.96-9.71,9.76-9.17,19.78.59,11.12,2.4,15.92,2.67,31.47.21,11.08-3.6,19.99-8.27,25.26-4.91,5.56-11.31,10.41-17.02,13.41-.35,9.46-.77,18.95-1.3,29.99,4.05,2.2,9.23,4.26,12.45,4.99,2.67-5.98,3.06-14.43,1.39-20.69,7.67,4.6,18.54,6.45,26.73,6.69-.87-7.31-3.31-17.54-9.43-25.28,10.06,1.35,18.76,1.31,27.01-.38-2.03-6.07-5.6-12.35-10.97-17.5,10.92.35,24.29-3.44,31.39-6.85-4.05-6.66-11.38-14.01-18.39-17.71,9.79-.97,26.02-2.88,33.32-6.14-3.53-5.02-10.8-13.23-15.55-15.59,12.97-.96,26.59-5.6,33.6-8.79-2.47-4.05-6.24-8.48-10.57-11.96,12.16-.82,23.81-3.05,32.24-7.54-1.84-3.6-7.34-10-11.84-13.02,26.04-7.25,26.48-20.26,26.52-30.39Z"/><path class="cls-1" d="m722.95,451.3c-36.93-25.65-81.78-40.68-130.16-40.68-44.1,0-85.27,12.51-120.19,34.15,9.05,7.03,14.43,14.46,15.74,22.2,1.15,6.77,1.93,14.93-1.99,26.84-4.15,12.64-6.42,25.63,2.91,38.81,9.29,13.12,21.34,18.79,31.34,20.71h0c13.09-2.3,27.59-4.18,42.03-5.33h0c1.88-6.11,7.46-11.43,13.05-15.77,8.11-6.31,6.32-11.83,4.4-16.12-1.49-3.34-4.4-6.07-8.58-8.24-3.65-1.89-17.04-3.28-16.68,5.27-2.17-3.08-3.94-7.29-2.65-12.65,1.8-7.46,13.99-9.36,17.02-9.13-2.35-1.99-.89-5.2,4.45-6.68,6.49-1.79,12.63-2.07,18.58-1.91,12.23.32,14.15,3.3,20.37,8.82,7.49,6.66,17.36,8.95,21.27,4.94-2.79,6.37-11.68,9.76-17.39,8.77,2.78,8.82,3.77,16.47,4.77,25.72.45,4.2,1.33,11.28,2.47,17.06,16.4,1.35,32.86,3.62,47.2,6.36h0c5.96-1.74,12.11-5.22,17.63-11.61,5.25-6.06,10.07-13.75,8.08-33.1-.56-5.45-3.29-19.39-2.9-25.94.86-14.87,11.9-24.58,29.23-32.46Z"/><path class="cls-1" d="m571.24,492.06c2.27,1.71,3.59,1.91,4.35,1.75.06.41.81.96.98,1.12.49.43.75.83.88,1.28,1.03-.43,3.75-1.54,6.23-2.43,2.52-.91,6.01-1.93,6.01-1.93-10.8-2.28-12.44,1.02-18.45.2Z"/><path class="cls-2" d="m586.4,672.5l-4.54-2.27-2.94-7.68-6.67-2.91-7.48-6.69-4.46,4.92-6.65,1.55-3.53,5.63-5.38,5.68-7.28,3.85-5.04,8.54-2.85,3.78-4.93,3.83-2.72-2.87-2.9,2.78-3.64,6.73c-1.92-5.02-3.09-8.92-3.67-16.98-1.07-14.92-2.15-33.67-3.21-52.85,24.63-5.31,55.96-8.82,81.41-9.07v58.15c-1.15-.69-2.34-1.23-3.53-4.11Z"/><path class="cls-8" d="m589.93,700.51h-73.21c1.07,2.26,2.32,4.37,3.74,6.36,5.28,7.4,12.78,12.88,22.31,15.8,12.93,3.97,21.17,6.56,27.18,8.47l7.16,2.24c5.86,1.81,9.96,4.44,12.84,7.36v-40.23Z"/><path class="cls-1" d="m667.28,672.22c2-1.6,4.31-3.48,7.35-4.59.43-6.82.88-14.13,1.32-21.69-.8.53-1.67,1.21-2.7,2.05-3.49,2.82-7.86,6.35-15.52,6.35-7.21,0-11.87-2.86-15.61-5.16-3.07-1.89-5.5-3.37-9.06-3.37-3.96,0-7.36,2.04-10.98,4.2-3.87,2.33-8.29,4.96-13.69,4.96s-9.54-1.68-12.8-3.49v20.56c.75.43,1.47.88,2.16,1.3,3.28,2.02,6.12,3.76,10.64,3.76,2.78,0,5.57-1.67,8.8-3.62,4.35-2.6,9.28-5.55,15.87-5.55,6.24,0,10.38,2.55,14.05,4.77,3.26,2.03,6.1,3.77,10.63,3.77s6.64-1.87,9.55-4.25Z"/><path class="cls-1" d="m608.39,719.07c-5.52,0-9.54-1.68-12.8-3.48v25.16c2.87-2.93,6.98-5.56,12.83-7.36l7.16-2.24c6-1.9,14.22-4.49,27.18-8.47,3.77-1.16,7.23-2.72,10.36-4.64-4.71-.88-8.12-2.98-11.01-4.76-3.07-1.89-5.5-3.37-9.06-3.37-3.96,0-7.36,2.05-10.98,4.21-3.87,2.33-8.29,4.96-13.69,4.96Z"/><path class="cls-2" d="m667.28,640.6c2.4-1.94,5.26-4.25,9.29-5.15.14-2.63.3-5.27.45-7.93-24.64-5.3-55.95-8.81-81.42-9.07v21.97c.75.42,1.47.86,2.16,1.3,3.28,2.01,6.12,3.76,10.64,3.76,2.78,0,5.57-1.67,8.8-3.63,4.35-2.6,9.28-5.55,15.87-5.55,6.24,0,10.38,2.56,14.05,4.79,3.26,2.03,6.1,3.76,10.63,3.76s6.64-1.87,9.55-4.25Z"/><path class="cls-2" d="m595.6,683.09v21.43c.75.42,1.47.87,2.16,1.29,3.28,2.03,6.12,3.76,10.64,3.76,2.78,0,5.57-1.67,8.8-3.61,4.35-2.6,9.28-5.56,15.87-5.56,6.24,0,10.38,2.55,14.05,4.79,3.26,2.02,6.1,3.75,10.63,3.75,3.51,0,5.69-1.23,7.96-2.96,4.69-6.96,7.43-15.57,8.1-25.6.02-.42.05-.86.09-1.27-.21.16-.4.32-.62.49-3.49,2.83-7.86,6.36-15.52,6.36-7.21,0-11.87-2.85-15.61-5.15-3.07-1.9-5.5-3.39-9.06-3.39-3.96,0-7.36,2.04-10.98,4.21-3.87,2.32-8.29,4.96-13.69,4.96s-9.54-1.67-12.8-3.49Z"/><path class="cls-1" d="m508.21,621.93c-1.16-21.39-2.2-42.92-2.81-59.93,25.95-5.89,60.35-9.77,87.36-9.77s61.43,3.87,87.37,9.77c-.62,17.01-1.65,38.54-2.82,59.93-24.46-5.19-56.82-9.02-84.56-9.02s-60.09,3.83-84.56,9.02Z"/><polygon class="cls-3" points="525.26 576.14 526.22 571.53 521.95 569.6 526.59 569.1 527.08 564.42 528.99 568.73 533.54 567.78 530.08 570.92 532.41 575.02 528.37 572.64 525.26 576.14"/><polygon class="cls-3" points="553.76 572.36 549.81 569.81 546.54 573.18 547.71 568.61 543.53 566.49 548.19 566.2 548.88 561.54 550.6 565.93 555.19 565.17 551.6 568.17 553.76 572.36"/><polygon class="cls-3" points="575.13 570.72 571.34 567.95 567.9 571.16 569.3 566.65 565.23 564.32 569.9 564.27 570.83 559.65 572.31 564.13 576.95 563.61 573.2 566.41 575.13 570.72"/><polygon class="cls-3" points="596.49 570.26 592.87 567.27 589.24 570.26 590.92 565.84 587 563.26 591.65 563.5 592.87 558.95 594.08 563.5 598.73 563.26 594.81 565.84 596.49 570.26"/><polygon class="cls-3" points="657.35 572.67 653.31 575.05 655.65 570.95 652.19 567.8 656.74 568.76 658.65 564.45 659.13 569.13 663.78 569.63 659.5 571.56 660.47 576.17 657.35 572.67"/><polygon class="cls-3" points="634.1 568.18 630.48 565.19 635.09 565.94 636.79 561.54 637.5 566.2 642.16 566.47 637.99 568.6 639.17 573.17 635.88 569.82 631.94 572.38 634.1 568.18"/><polygon class="cls-3" points="612.54 566.42 608.8 563.62 613.44 564.14 614.92 559.67 615.85 564.28 620.52 564.34 616.45 566.66 617.85 571.17 614.41 567.97 610.61 570.73 612.54 566.42"/><polygon class="cls-3" points="528.37 610.74 529.36 606.14 525.1 604.17 529.75 603.72 530.27 599.04 532.14 603.36 536.7 602.44 533.22 605.56 535.53 609.67 531.5 607.26 528.37 610.74"/><polygon class="cls-3" points="556.09 607.24 552.17 604.65 548.87 607.99 550.08 603.43 545.91 601.27 550.58 601.03 551.31 596.37 552.99 600.78 557.59 600.06 553.97 603.02 556.09 607.24"/><polygon class="cls-3" points="576.64 605.74 572.85 602.97 569.41 606.16 570.83 601.66 566.76 599.31 571.43 599.28 572.38 594.67 573.84 599.15 578.48 598.64 574.72 601.44 576.64 605.74"/><polygon class="cls-3" points="597.2 605.37 593.57 602.39 589.95 605.37 591.62 600.95 587.71 598.37 592.36 598.62 593.57 594.07 594.79 598.62 599.44 598.37 595.52 600.95 597.2 605.37"/><polygon class="cls-3" points="655.66 607.51 651.63 609.91 653.94 605.8 650.47 602.67 655.02 603.6 656.92 599.29 657.41 603.97 662.07 604.44 657.8 606.39 658.79 611 655.66 607.51"/><polygon class="cls-3" points="633.21 603.19 629.58 600.21 634.19 600.95 635.88 596.55 636.6 601.21 641.26 601.46 637.09 603.61 638.28 608.17 634.99 604.82 631.05 607.4 633.21 603.19"/><polygon class="cls-3" points="612.44 601.52 608.69 598.72 613.33 599.24 614.81 594.77 615.75 599.39 620.42 599.44 616.35 601.77 617.75 606.27 614.31 603.07 610.5 605.83 612.44 601.52"/><polygon class="cls-3" points="538.58 590.31 539.67 585.72 535.46 583.66 540.12 583.31 540.75 578.65 542.52 583.01 547.1 582.19 543.55 585.23 545.76 589.4 541.79 586.9 538.58 590.31"/><polygon class="cls-3" points="518.14 593.55 519.06 588.93 514.77 587.03 519.41 586.5 519.87 581.82 521.8 586.11 526.35 585.13 522.92 588.3 525.28 592.38 521.22 590.03 518.14 593.55"/><polygon class="cls-3" points="566.24 587.43 562.38 584.76 559 588.03 560.31 583.49 556.19 581.24 560.87 581.1 561.7 576.46 563.28 580.91 567.9 580.28 564.22 583.17 566.24 587.43"/><polygon class="cls-3" points="586.71 586.45 582.99 583.59 579.46 586.69 580.99 582.23 576.99 579.78 581.66 579.87 582.72 575.28 584.07 579.79 588.72 579.4 584.89 582.1 586.71 586.45"/><polygon class="cls-3" points="607.19 586.72 603.66 583.62 599.94 586.47 601.76 582.12 597.94 579.41 602.58 579.81 603.94 575.3 605.01 579.89 609.66 579.81 605.66 582.25 607.19 586.72"/><polygon class="cls-3" points="665.46 590.19 661.37 592.48 663.79 588.43 660.39 585.22 664.92 586.26 666.92 582 667.3 586.69 671.94 587.27 667.63 589.12 668.51 593.76 665.46 590.19"/><polygon class="cls-3" points="643.12 585.37 639.55 582.32 644.15 583.15 645.93 578.78 646.55 583.46 651.2 583.82 646.99 585.87 648.09 590.46 644.87 587.04 640.88 589.53 643.12 585.37"/><polygon class="cls-3" points="622.44 583.26 618.76 580.37 623.39 580.99 624.97 576.56 625.8 581.19 630.47 581.35 626.35 583.59 627.64 588.13 624.27 584.84 620.42 587.52 622.44 583.26"/><path class="cls-1" d="m879.08,499.93c10.64-4.67,22.83-2.53,25.94,4.52,3.1,7.13-3.58,17.54-14.22,22.2-10.71,4.7-22.92,2.57-26.04-4.55-3.08-7.06,3.6-17.46,14.33-22.17Zm16.06,36.66c13.47-5.9,19.56-20.93,13.88-33.9-5.69-12.97-20.85-18.6-34.3-12.7-13.47,5.9-19.68,20.9-13.99,33.86,5.69,12.97,20.95,18.64,34.41,12.74Z"/><path class="cls-1" d="m876.33,571.68l-5.15-20.3,3.14-.8,1.43,5.67,42.97-10.9-1.43-5.67,3.13-.79,7.81,30.74,2.08-.54,1.03,4.04-11.86,3.01-1.01-3.96,5.38-1.36-3.94-15.52-17.61,4.47,3.04,11.94,5.07-1.28,1.09,4.01-14.69,3.72-1.1-4.01,5.22-1.32-3.03-11.93-19.7,5,1.26,4.99-3.13.8Z"/><path class="cls-1" d="m275.42,517.2l-1.85,6.19,27.74,8.27c8.33,2.49,12.71,6.93,13.79,14.08.5,3.68.24,7.54-.9,11.38-3.57,11.94-12.44,17.73-22.62,14.7l-29.8-8.88-1.67,5.6-3.1-.92,6.17-20.66,3.1.92-1.65,5.54,27.51,8.2c7.46,2.22,11.24,1.9,14.36-1.26,1.41-1.51,2.56-3.5,3.22-5.71,2.64-8.85-1.07-15.57-10.06-18.26l-27.43-8.18-1.82,6.13-3.18-.94,5.11-17.11,3.1.92Z"/><path class="cls-1" d="m324.17,529.19c-1.1,2.62-4.12,3.85-6.75,2.75-2.62-1.1-3.86-4.12-2.76-6.75,1.1-2.63,4.13-3.87,6.74-2.76,2.63,1.1,3.86,4.12,2.76,6.75Z"/><path class="cls-1" d="m333.76,507.22l-2.08,3.69-12.07-6.79,2.08-3.7,4.96,2.79c4.12-1.66,6.27-3.45,8.12-6.74,2.34-4.16,1.55-8.57-1.94-10.54-3.02-1.7-6.26-.95-13.79,3.02-7.86,4.23-8.99,4.66-11.98,5.27-2.89.59-6.07-.05-9.01-1.7-7.39-4.15-9.23-12.34-4.62-20.53,1.47-2.62,3.05-4.47,5.55-6.42l-2.01-1.13,2.04-3.62,11.47,6.45-2.04,3.62-4.63-2.6c-3.4,1.8-5.09,3.23-6.48,5.71-1.96,3.49-.99,7.57,2.16,9.34,2.69,1.51,5.23.91,12.95-3.23,3.75-1.95,6.04-3.22,7-3.66,1.95-.94,4.21-1.51,6.66-1.64,2.79-.11,5.34.54,7.97,2.01,7.65,4.31,9.87,12.88,5.47,20.74-2.19,3.88-4.58,6.26-8.13,8.32l2.35,1.33Z"/><path class="cls-1" d="m353.93,472.36c0,2.81-2.22,5.05-5.03,5.05s-5.03-2.24-5.03-5.05,2.23-5.03,5.03-5.03,5.03,2.23,5.03,5.03Z"/><path class="cls-1" d="m473.03,373.36l-32.58,16.77-1.48-2.88,5.2-2.67-20.3-39.43-5.2,2.68-1.48-2.88,28.19-14.51-.97-1.91,3.69-1.91,5.6,10.88-3.62,1.87-2.54-4.93-14.23,7.33,8.31,16.16,10.94-5.64-2.4-4.65,3.67-1.98,6.94,13.48-3.66,1.97-2.47-4.79-10.95,5.64,8.71,16.91,14.85-7.65-2.61-5.07,3.69-1.9,4.7,9.1Z"/><path class="cls-1" d="m504.38,362.03l-21.19,7.02-1.02-3.08,5.56-1.84-13.95-42.09-5.55,1.84-1.01-3.07,22.14-7.34c9.05-3,16.8.52,19.58,8.92,2.64,7.96-2.2,16.86-10.75,19.7-1.24.41-2.07.6-4.09.87l-1.19-3.58c1.03-.1,1.39-.22,2.05-.44,4.97-1.65,6.55-6.15,4.39-12.64-2.26-6.87-6.16-9.56-11.42-7.82l-4.39,1.46,13.61,41.06,6.21-2.06,1.02,3.07Z"/><path class="cls-1" d="m529.48,334.01l4.38-20.29,10.49,17.71-14.87,2.58Zm37.45,10.92l-3.18.55-27.23-45.19-4.63.8-11.15,51.86-4.71.81.56,3.18,15.7-2.72-.55-3.18-6.06,1.06,2.79-13.15,18.43-3.2,6.84,11.47-5.31.92.55,3.19,18.51-3.2-.55-3.19Z"/><path class="cls-1" d="m588.85,301.69h4.85c5.47.03,8.63,3.57,8.6,9.73,0,6.08-3.65,10.31-8.94,10.3l-4.55-.02.04-20.01Zm31.24,43.26h-3.16c-1.54,0-2.47-.71-4.23-3.4l-10.89-16.81c7.25-2.22,10.79-6.67,10.8-13.6.01-4.08-1.21-7.39-3.74-9.94-2.76-2.78-6.46-3.79-13.08-3.8l-22.71-.06v3.23h5.85s-.1,44.35-.1,44.35l-5.85-.02v3.23s21.55.05,21.55.05v-3.24h-5.78s.05-19.4.05-19.4h2.09s11.5,18.12,11.5,18.12c2.61,4.09,3.38,4.54,7.92,4.56l9.78.02.02-3.3Z"/><path class="cls-1" d="m654.92,354.37l-24.45-4.13.54-3.19,7.35,1.24,7.18-42.43-13.14-2.22-1.06,6.3-4.17-.7,2.17-12.9,4.2.71-.37,2.12,35.97,6.08.37-2.13,4.16.7-2.18,12.9-4.17-.71,1.07-6.3-13.05-2.21-7.17,42.42,7.28,1.23-.53,3.19Z"/><path class="cls-1" d="m726.84,378.67l-21.31-8.27,1.16-3.01,6.03,2.34,12.02-31.01-29.26,28.62-4.07-40.8-11.78,30.36,6.04,2.34-1.17,3.01-16.58-6.43,1.16-3.01,6.02,2.34,16.04-41.34-6.03-2.34,1.16-3.02,12.71,4.93,4.07,39.97,27.94-27.55,14.2,5.51-1.17,3.01-6.01-2.34-16.03,41.33,6.02,2.34-1.17,3.02Z"/><path class="cls-1" d="m764.32,403.18l-30.89-19.72,1.74-2.73,4.93,3.15,23.87-37.37-4.93-3.15,1.74-2.72,26.73,17.07,1.15-1.81,3.51,2.24-6.59,10.32-3.45-2.2,2.99-4.67-13.49-8.62-9.77,15.31,10.37,6.63,2.83-4.42,3.55,2.18-8.17,12.78-3.54-2.17,2.9-4.54-10.39-6.63-10.22,16.02,14.08,8.99,3.07-4.8,3.51,2.24-5.51,8.63Z"/><path class="cls-1" d="m422.88,371.69c-8.42-11.48-24.11-13.7-35.83-5.1l-19.35,14.22,1.9,2.61,4.71-3.47,26.2,35.66c1.25.48,2.48.94,3.7,1.41l12.84-9.44c6.08-4.47,9.26-9.38,10.42-15.97,1.22-7.19-.41-14.21-4.6-19.92Zm-9.87,33.62l-5.03,3.69-25.02-34.06,5.27-3.87c7.26-5.34,19.21-2.07,25.91,7.04,7.16,9.74,6.69,21.45-1.13,27.19Z"/><path class="cls-1" d="m829.88,392.63l-2.18,2.4,4.49,4.1-21.73,23.83,5.48-43.03-11.31-10.32-2.17,2.39,4.09,3.73-.84,4.56-27.23,29.86-4.71-4.3-2.18,2.39,12.85,11.72,2.17-2.4-4.48-4.1,22.66-24.85-4.84,39.47c4.69-1.22,9.71-2.57,15.14-4.08.45-.12.86-.25,1.3-.37l19.37-21.25,4.79,4.35,2.19-2.38-12.87-11.73Z"/><path class="cls-1" d="m881.69,448.6l-1.71,1.31-22.14-28.99,1.71-1.31-2.58-3.37-10.4,7.94,2.58,3.37,5.07-3.87,8.08,10.58-34.19,26.12-1.77-2.31c-.98.55-1.98,1.03-2.97,1.45l12.68,16.59,2.57-1.96-4.49-5.88,34.19-26.12,8.03,10.52-5.08,3.88,2.58,3.37,10.39-7.95-2.57-3.36Z"/><path class="cls-1" d="m656.64,977.14l-4.13.91-2.98-13.53,4.15-.91,1.22,5.57c3.97,1.95,6.74,2.39,10.43,1.57,4.66-1.02,7.44-4.54,6.59-8.45-.74-3.39-3.46-5.31-11.44-8.3-8.38-3.05-9.45-3.6-11.9-5.43-2.37-1.77-4-4.56-4.72-7.86-1.82-8.27,3.08-15.11,12.25-17.12,2.93-.64,5.37-.69,8.48-.13l-.5-2.25,4.06-.89,2.82,12.86-4.06.89-1.14-5.18c-3.61-1.34-5.79-1.65-8.57-1.05-3.91.86-6.33,4.3-5.54,7.84.66,3,2.8,4.51,11.02,7.51,3.96,1.51,6.43,2.37,7.39,2.79,1.99.82,3.94,2.13,5.66,3.89,1.94,2.03,3.16,4.35,3.8,7.3,1.87,8.56-3.04,15.95-11.86,17.87-4.35.95-7.7.75-11.6-.53l.57,2.64Z"/><path class="cls-1" d="m734.9,952.53l-34.1,13.39-1.18-3.01,5.44-2.14-16.2-41.28-5.45,2.15-1.18-3.01,29.53-11.6-.8-2.01,3.88-1.52,4.48,11.4-3.8,1.49-2.02-5.16-14.92,5.86,6.64,16.9,11.46-4.5-1.91-4.87,3.85-1.59,5.53,14.12-3.83,1.59-1.97-5.01-11.48,4.5,6.95,17.69,15.56-6.1-2.09-5.31,3.88-1.51,3.74,9.52Z"/><path class="cls-1" d="m786.21,921.28c-4.35,5.44-7.4,8.28-12.41,11.31-13.89,8.42-29.44,5.06-37.38-8.03-7.86-12.97-3.85-28.64,9.39-36.66,4.26-2.6,7.58-3.8,12.4-4.46l-1.67-2.77,3.62-2.2,7.15,11.78-3.62,2.2-2.55-4.22c-5.35-.37-7.9.2-11.4,2.31-9.14,5.56-10.89,17.05-4.27,27.98,6.48,10.67,18.54,14.69,27.63,9.18,3.3-1.99,5.22-4.16,7.15-7.94l-3.03-5,3.69-2.23,5.31,8.74Z"/><path class="cls-1" d="m809.36,841.83l-4.77,4.36,19.51,21.39c5.87,6.43,7.32,12.48,4.57,19.16-1.47,3.42-3.68,6.6-6.63,9.28-9.21,8.42-19.8,8.8-26.97.96l-20.96-22.97-4.32,3.94-2.17-2.38,15.91-14.53,2.18,2.39-4.27,3.89,19.36,21.22c5.24,5.73,8.66,7.42,12.96,6.32,1.99-.58,4-1.68,5.71-3.24,6.82-6.23,7.12-13.89.79-20.84l-19.3-21.16-4.73,4.32-2.23-2.46,13.19-12.03,2.18,2.39Z"/><path class="cls-1" d="m895.82,796.94l-10.28,18.95-2.84-1.55,2.79-5.15-38.98-21.11-2.8,5.14-2.82-1.55,10.25-18.95,2.84,1.55-2.75,5.08,38.99,21.12,2.76-5.07,2.84,1.54Z"/><path class="cls-1" d="m915.48,750.86l-8.73,23.19-3.02-1.14,2.63-6.98-40.26-15.16-4.7,12.46,5.98,2.25-1.48,3.97-12.25-4.62,1.49-3.96,2.02.76,12.86-34.14-2.02-.76,1.49-3.96,12.26,4.61-1.5,3.96-5.98-2.25-4.67,12.39,40.26,15.16,2.59-6.91,3.03,1.13Z"/><path class="cls-1" d="m929.12,694.23l-4.13,21.16-3.18-.62,1.11-5.67-20.85-4.08-25.59,10.54-.93,4.76-3.17-.62,4.12-21.15,3.18.62-1.1,5.58,18.64-7.49-14.59-13.28-1.25,6.42-3.16-.62,3.44-17.6,3.16.62-1.05,5.44,18.23,16.65,22.82,4.47,1.13-5.74,3.18.62Z"/><path class="cls-1" d="m877.28,824.68l-1.88,2.54c-.92,1.23-2.02,1.57-5.25,1.38l-19.99-1.23c2.53-7.13,1.05-12.64-4.5-16.77-3.28-2.44-6.67-3.42-10.22-2.89-3.88.57-6.89,2.94-10.83,8.26l-13.53,18.23,2.58,1.93,3.5-4.7,35.61,26.43-3.49,4.69,2.6,1.93,12.86-17.3-2.6-1.93-3.43,4.64-15.58-11.58,1.24-1.66,21.4,1.51c4.83.33,5.66-.02,8.38-3.66l5.84-7.85-2.67-1.97Zm-53.35-.59l2.88-3.89c3.27-4.4,8-4.82,12.93-1.15,4.87,3.63,6.11,9.05,2.96,13.32l-2.71,3.64-16.07-11.92Z"/><path class="cls-1" d="m267.3,741.85l-5.12-20.93,3.14-.77,1.37,5.61,19.66-4.8-5.94-24.31-19.67,4.8,1.38,5.61-3.14.77-5.12-20.93,3.14-.77,1.38,5.69,43.07-10.53-1.39-5.69,3.14-.76,5.11,20.92-3.14.77-1.37-5.6-19,4.64,5.94,24.3,19-4.64-1.37-5.6,3.14-.78,5.12,20.94-3.15.77-1.38-5.68-43.08,10.53,1.41,5.69-3.15.75Z"/><path class="cls-1" d="m296.64,753.56c10.57-4.82,22.8-2.85,26,4.15,3.22,7.08-3.32,17.59-13.91,22.42-10.65,4.84-22.87,2.87-26.1-4.19-3.18-7.02,3.35-17.51,14.01-22.37Zm16.6,36.43c13.37-6.09,19.26-21.21,13.39-34.09-5.87-12.89-21.11-18.3-34.49-12.2-13.38,6.1-19.37,21.17-13.49,34.06,5.86,12.88,21.2,18.34,34.59,12.23Z"/><path class="cls-1" d="m332.8,863.11l-13.43-18.51,2.61-1.89,3.8,5.23,26.91-19.53-40.1,8.17,18.68-36.48-26.35,19.12,3.8,5.23-2.62,1.91-10.45-14.39,2.62-1.9,3.81,5.22,35.87-26.05-3.79-5.22,2.61-1.91,8,11.02-18.24,35.8,38.42-8.03,8.96,12.35-2.62,1.9-3.8-5.24-35.89,26.05,3.81,5.25-2.63,1.89Z"/><path class="cls-1" d="m372.84,902.48l-26.95-24.82,2.19-2.38,4.31,3.96,30.05-32.6-4.3-3.96,2.18-2.38,23.34,21.5,1.45-1.59,3.07,2.82-8.3,9-2.99-2.76,3.75-4.08-11.78-10.86-12.3,13.35,9.06,8.35,3.55-3.85,3.1,2.75-10.28,11.17-3.11-2.75,3.65-3.98-9.06-8.34-12.88,13.98,12.28,11.32,3.86-4.19,3.06,2.81-6.94,7.53Z"/><path class="cls-1" d="m418.68,933.92l-30.15-20.28,1.81-2.7,4.86,3.28,24.75-36.8-4.86-3.27,1.81-2.68,17.88,12.03-1.8,2.69-4.79-3.22-24.02,35.71,13.6,9.15,3.19-4.74,3.44,2.33-5.72,8.49Z"/><path class="cls-1" d="m449.39,927.37l15.06-14.29-1.32,20.55-13.73-6.25Zm24.77,30.14l-2.94-1.35,3-52.67-4.28-1.94-38.45,36.54-4.34-1.98-1.34,2.95,14.5,6.6,1.34-2.95-5.61-2.55,9.72-9.28,17.03,7.74-.82,13.33-4.9-2.22-1.34,2.93,17.08,7.78,1.35-2.93Z"/><path class="cls-1" d="m527.42,975.67l-5.24-1.26-17.28-42.93-7.83,32.71,5.91,1.42-.75,3.15-16.92-4.06.75-3.14,6.22,1.48,9.41-39.29-1.49-4.4-5.38-1.28.75-3.15,14.91,3.57,15.98,40.31,7.52-31.37-5.92-1.41.76-3.14,16.92,4.05-.76,3.14-6.29-1.5-11.27,47.1Z"/><path class="cls-1" d="m577.4,928.7l-24-.86-.13,3.23,5.85.21-1.58,44.31h-.01l-5.85-.21-.11,3.24,23.92.86h-.05s.07-.01.07-.01c7.54.27,13.09-1.61,18.09-6.06,5.41-4.88,8.49-11.4,8.76-18.48.51-14.22-10.41-25.71-24.94-26.23Zm14.09,25.85c-.43,12.07-8.06,20.97-17.76,20.62l-6.24-.22,1.52-42.23,6.53.24c9.01.32,16.35,10.29,15.95,21.61Z"/><path class="cls-1" d="m838.41,670.44l-18.89,5.83,4.26,1.74-6.63,4.2c.73-3.85,1.37-7.74,1.91-11.66l10.38-8.67.24,4.6,11.68-15.96-17.97,8.25,4.45,1.16-8.28,6.91c.58-4.76,1.01-9.57,1.29-14.42l10.22-11.31.86,4.52,9.43-17.38-16.72,10.56,4.58.55-8.17,8.75c.11-3.01.19-6.03.19-9.07,0-22.78-3.35-44.79-9.55-65.56-10.35.95-20.71-2.35-25.68-3.32,13.25,7.77,17.84,16.16,19.78,25.79-10.6,2.38-24.76-1.1-32.49-7.17,7.59,6.64,12.36,17.05,12.69,27.81-10.94.55-21-4.57-28.42-11.99,4.77,5.3,10.77,18.72,9.36,28.26-9.1-.97-19.86-6.93-25.68-14.07,4.82,10.68,7.13,19.32,6.57,28.9-9.08-1.71-15.95-4.25-24.07-12,3.91,9.74,5.35,19.54,4.48,27.59-10.48-3.7-17.43-7.86-23.32-17.73,3.12,8.69,5.18,20.11,3.01,26.75-8.85-2.66-14.72-7.97-19.31-17.03,4.56,9.6,3.98,20.77,2.45,26.58-3.72-.75-8.55-3.31-11.15-6.16-.11,1.74-.23,3.43-.34,5.06-.44,6.49-1.72,12.58-3.82,18.16.72.83,2.46,2.88,2.53,2.97,4.67,4.99,11.02,9.77,16.06,11.36-2.18.32-5.15,2.18-8.15,2.52,3.33,3.77,10.09,4.61,14.3,8.88-3.28.37-4.05,2.75-7.98,2.31,7.53,5.81,14.43,6.04,18.31,6.48,1.55.18,6.63.65,9.84.16,3.95-.61,8.01,1.02,10.21,2.15l41.32-83.69-4.53.79,12.95-14.95-4.02,19.38-2.13-4.1-41.53,84.09c.76.94,1.1,2.13,1.19,3.28.11,0,.24-.02.31-.03l1.57-1.25h-.01s66.89-52.85,66.89-52.85l-4.44-1.22,18.09-7.98-11.9,15.8-.18-4.61-66.37,52.37c1.79.35,3.4.99,3.87,1.74,1.13,1.81.83,2.73-.22,5.84-1.01,3-1.76,4.07-3.74,4.3-.55.06-1.59.19-2.76-.29.6.4,1.02.74,1.31,1.54.31.8.79,2.2-1.65,5-2.17,2.45-4.23,3.37-5.92,2.38-.97-.56-1.28-1.17-1.74-1.66.24.66.51,1.4.63,2.14.41,2.49-1.48,3.39-3.85,4.24-4.48,1.59-6.69.9-7.74-.69-2.27-3.43-1.01-7.81.51-8.56-.37,1.35-.36,2.78-.1,4.4.21,1.31.82,3.49,3.27,3.27,1.31-.12,3.72-.69,5.18-1.61,1.04-.67,1.08-2.43.55-3.91-.24-.75-.55-1.8-1.44-2.59,1.5.4,2.37,1.21,3.53,2.16,1.16.95,2.9,1.19,3.93.12,1.28-1.34,2.07-2.35,2.51-3.28,1.13-2.37-1.92-4.22-3.69-5.22,3.11.14,3.61,1.33,6.14.97,2.53-.36,3.26-4.38,3.29-5.72.02-.98-1.15-1.95-2.6-2.33-1.04-.27-2.38-.29-3.33-.26-.05.31-.11.6-.18.85-.33,1.18-.85,2.56-2.93,3.66-1.21.33-1.96.42-.76-.46,1.1-.81,2.09-5.67-.45-7.57-1.84-1.36-4.46-2.48-7.52-2.34-3.4.17-8.61.47-11.12.21-2.31-.24-3.75,2.81-4.09,4.08-.83,3.02-1.76,6.8-6.14,4.92-5.37-3.08-13.07-2.83-21.88-6.38,1.26,2.71.72,5.05,2.06,8.06-7.84-1.93-9.83-5.92-17.3-8.54,1.23,2.74.9,4.85,2.59,7.43-6.31-1.12-12.19-6.77-20.96-9.11-.27.09-.53.17-.8.25-3.19.97-6.1,1.87-8.76,2.69,6.2,7.04,11.33,15.66,13.72,26.1,0,0-4.35.12-10.84-2.13,1.85,5.69,3.01,11.81,3.1,18.34,0,0-4.92-.91-11.64-5.06.6,6.18.39,12.61-.9,19.23,0,0-5.69-2.33-12.4-9.17-.76,6.38-2.37,12.87-5.12,19.29,0,0-5.16-3.52-10.49-11.75-2.19,6.4-5.28,12.69-9.49,18.69,0,0-5.66-5.94-9.49-17.92-5.12,7.67-9.97,10.98-9.97,10.98-2.74-6.42-4.35-12.9-5.13-19.29-6.69,6.84-12.39,9.17-12.39,9.17-1.3-6.62-1.51-13.07-.92-19.24-6.72,4.16-11.66,5.08-11.66,5.08.12-6.53,1.26-12.65,3.12-18.34-6.49,2.25-10.83,2.13-10.83,2.13,2.44-10.65,9.42-21.59,14.09-26.51h0c-2.28-.7-4.77-1.47-7.42-2.28-.27-.08-.53-.16-.79-.25-8.77,2.34-14.65,7.99-20.95,9.11,1.68-2.58,1.34-4.69,2.57-7.43-7.46,2.63-9.46,6.61-17.29,8.54,1.33-3.02.79-5.36,2.07-8.06-7.27,3.55-17.24,6.03-21.66,6.97-4.86,1.01-5.17-6.24-6.76-7.84-.7-.7-4.61-1.01-6.24-.73-2.41.41-7.13.2-10.65.13-3.52-.06-5.95.99-7.79,2.38-2.55,1.88-1.35,6.96-.24,7.77,1.21.89.46.79-.75.45-2.09-1.09-2.61-2.47-2.94-3.65-.04-.15-.08-.32-.11-.49-.94-.09-2.64-.19-3.95.11-1.47.34-2.68,1.27-2.68,2.26-.01,1.34.63,5.37,3.14,5.81,2.5.43,3.05-.75,6.15-.79-1.8.94-4.89,2.71-3.83,5.11.41.93,1.18,1.97,2.43,3.34,1,1.1,2.75.91,3.93,0,1.18-.92,2.08-1.71,3.59-2.06-.91.75-1.25,1.8-1.53,2.55-.56,1.47-.58,3.22.45,3.92,1.42.97,3.82,1.6,5.14,1.76,2.44.3,3.11-1.86,3.35-3.17.32-1.61.37-3.05.03-4.4,1.52.79,2.64,5.2.27,8.56-1.11,1.56-3.33,2.19-7.75.46-2.34-.91-4.21-1.86-3.73-4.34.14-.72.42-1.46.7-2.12-.47.47-.81,1.08-1.79,1.62-1.72.94-3.77-.03-5.86-2.55-2.37-2.88-1.85-4.25-1.51-5.05.31-.79.74-1.11,1.35-1.51-1.19.44-2.22.29-2.76.21-1.98-.29-2.7-1.37-3.62-4.4-.96-3.14-1.24-4.08-.06-5.85.9-1.37,5.77-2.22,8.34-1.69.05-1.76.63-3.68,2.41-4.71,1.81-1.06,6.52-3.33,11.07-2.63,3.2.5,8.28.02,9.83-.16,1.54-.17,12.91-2.25,20.44-8.06-3.94.45-4.72-1.93-7.99-2.31,4.21-4.28,10.98-5.11,14.31-8.88-2.99-.34-5.62-2.73-7.79-3.05,6.62-3.71,11.03-5.84,15.7-10.83.07-.08,1.79-2.06,2.51-2.88-2.12-5.6-3.42-11.72-3.86-18.25-.11-1.57-.21-3.2-.33-4.88-1.64,1.8-4.97,3.61-10.4,5.57-2.54-6.17-1.31-17.67,1.9-26.55-4.61,9.07-9.83,14.96-18.7,17.62-2.17-6.65-.89-18.26,2.23-26.94-5.89,9.87-12.2,14.86-22.69,18.55-.86-8.05-.04-18.67,3.84-28.42-8.09,7.76-14.97,10.3-24.05,12-.58-9.58,1.76-18.22,6.57-28.9-5.81,7.13-17.9,12.01-27.01,12.98.69-8.29,6.5-19.63,9.9-26.29-8.6,6.18-17.75,10.58-27.63,11.11,1.24-9.4,5.46-19.6,12.69-27.81-8.51,6.32-21.53,9.73-31.34,8.39,2.39-10.32,8.72-20.39,17.32-25.78-4.97.97-14.01,3.03-24.36,2.08-6.11,20.45-9.45,42.1-9.55,64.5-5.18-4.07-8.78-5.09-12.34-8.61.67,4.85,1.3,7.49,1.85,13.5.97,10.79,5.05,16.98,11.82,20.86.33,3.08.72,6.13,1.17,9.17-5.02-3.23-11.74-5.21-20.64-5.11,5.41,17.59,13.13,18.88,23.49,20.56.35,1.61.72,3.21,1.11,4.8-5.51-1.43-12.13-1.47-19.66.62,5.21,8.08,12.42,12.96,23.96,14.71.02.07.04.13.06.19-7.1-.58-14.77.45-20.89,3.58,8.76,7.52,17.33,10.39,25.53,9.55.42,1.07.85,2.14,1.28,3.21-6.49,1.72-12.19,5.09-15.4,8.21,6.83,2.15,13.82,3.31,20.14,2.64.08.16.14.32.22.47-3.71,2.83-6.94,7.41-8.94,14.6,4.85-1.24,9.84-1.56,14.81-2.99,1,1.84,2.03,3.66,3.08,5.47-2.62,4.99-3.53,11.26-1.99,18.2,4.17-.96,7.63-2.61,10.47-4.68.98,1.45,1.97,2.89,2.98,4.31-1.04,7.98.81,15.99,5.55,21.33,1.91-2.16,3.44-4.24,4.76-6.25,10.3-15.73,4.07-27.06,4.3-37.26.08-.21.16-.42.24-.64.84,12.14,11.4,24.12-.98,38.79-.24.29-.46.54-.69.79,41.89,48.65,103.91,79.46,173.14,79.46,98.3,0,182.09-62.08,214.31-149.18l10.38-4.5-.78,4.53,14.94-12.94-19.38,4,4.1,2.13-8.01,3.27c1.42-4.02,2.73-8.09,3.91-12.21l11.38-6.27-.38,4.59,13.73-14.26-18.93,5.76,4.26,1.75-9.09,5.01c1.21-4.46,2.3-8.97,3.25-13.53l8.64-5.48-.37,4.58,13.66-14.3Z"/><path class="cls-3" d="m733.99,742.77c.94-.04,2.29-.01,3.33.26,1.45.38,2.63,1.35,2.6,2.33-.02,1.34-.76,5.36-3.29,5.72-2.53.36-3.03-.83-6.14-.97,1.77,1,4.81,2.85,3.69,5.22-.44.93-1.23,1.93-2.51,3.28-1.03,1.07-2.77.83-3.93-.12-1.16-.95-2.03-1.76-3.53-2.16.89.78,1.2,1.84,1.44,2.59.53,1.48.49,3.24-.55,3.91-1.46.92-3.87,1.49-5.18,1.61-2.44.22-3.05-1.96-3.27-3.27-.26-1.62-.28-3.05.1-4.4-1.53.75-2.78,5.13-.51,8.56,1.06,1.58,3.26,2.28,7.74.69,2.37-.85,4.26-1.75,3.85-4.24-.13-.73-.4-1.48-.63-2.14.46.49.77,1.1,1.74,1.66,1.7,1,3.75.08,5.92-2.38,2.44-2.8,1.96-4.2,1.65-5-.29-.8-.71-1.14-1.31-1.54,1.16.48,2.21.35,2.76.29,1.99-.23,2.73-1.3,3.74-4.3,1.05-3.11,1.35-4.03.22-5.84-.47-.76-2.08-1.39-3.87-1.74l66.37-52.37.18,4.61,11.9-15.8-18.09,7.98,4.44,1.22-66.89,52.84h.01s-1.57,1.26-1.57,1.26c-.07,0-.2.02-.31.03"/><polyline class="cls-3" points="732.9 737.27 774.44 653.18 776.57 657.28 780.59 637.9 767.63 652.85 772.17 652.06 730.85 735.74"/><path class="cls-3" d="m722.46,746.56c1.2,2.21,1.28,5.94.64,7.76,4.38-.7,5.17-4.86,5.43-7.07-1.27-1.58-4.32-1.77-6.07-.69Z"/><path class="cls-3" d="m721.67,746.99c-2.58-.18-3.52-1.45-3.99-2.71-.48-1.25-1.86-2.02-1.88-.13-.03,1.89-.04,2.72,1.03,3.24,1.07.52,2.99.69,4.84-.4Z"/><path class="cls-3" d="m721.95,755c-.85-1.24-1.36-2.55-1.6-3.94-.53.94-1.43,4.26-1.76,6.61-.08.53-.03.74,1.38.81,1.4.07,3.08-.45,4.27-1.35-.7-.59-1.63-1.18-2.29-2.14Z"/><path class="cls-3" d="m772.6,666.96l4.6-.23-25.95,39.38c-3.04,6.16-5.99,12.14-8.59,17.4.14-.15.27-.3.41-.45l36.25-54.93,1.61,4.32,6.35-18.74-14.68,13.26Z"/><path class="cls-3" d="m762.74,701.45l47.13-59.68,1.25,4.44,7.91-18.13-15.75,11.96,4.59.16-42.67,54.09c-3.34,5.07-6.9,10.47-10.24,15.52l.09.07c2.5-2.74,5.08-5.57,7.68-8.43Z"/><path class="cls-3" d="m757.12,719.18c3.96-3.13,8.09-6.38,12.13-9.58l39.25-36.35.55,4.58,10.6-16.7-17.4,9.41,4.52.86-39.38,36.51c-3.55,3.89-7.01,7.69-10.28,11.27Z"/><path class="cls-3" d="m800.72,710.63l-55.27,27.69c-.97.78-1.75,1.38-2.24,1.77.39.32.72.66.95,1.04.11.18.19.34.28.51l57.41-28.74-.77,4.55,14.88-13.04-19.35,4.13,4.1,2.1Z"/><path class="cls-3" d="m717.19,769.19c-.83-.27-1.55-.69-2.17-1.26l-9.9,20.52.05.02-3.62,1.22-11.71,22.43,5.67-1.73,2.06,5.56,11.09-22.75-1.3-3.67,9.83-20.36Z"/><path class="cls-3" d="m755.72,730.22c3.79-1.9,8.17-4.1,12.62-6.32l36.75-24.01-.24,4.61,13.29-14.66-18.74,6.32,4.31,1.61-39.99,26.14c-2.82,2.23-5.52,4.35-8,6.31Z"/><path class="cls-3" d="m712.68,763.7c-.28-1.09-.38-2.23-.29-3.36l-13.13,14.32-3.86.32-.33.33h0s-18.27,18.28-18.27,18.28l.86-.04-.07.07.22-.08,4.51-.22.79,4.48,15.14-19.89,2.92-.62,11.51-13.58Z"/><path class="cls-3" d="m736.89,735.16c1.62-1.27,3.92-3.1,6.7-5.29l64.51-70.54.91,4.52,9.23-17.5-16.59,10.77,4.57.5-67.54,73.89c-.65,1.32-1.25,2.54-1.8,3.65Z"/><path class="cls-3" d="m679.16,783.39l24.03-16.93c2.76-3.01,5.77-6.29,6.84-7.46l-30.04,19.83.03.05-3.75-.78-2.19,1.37-19.28,12.03,5.41,1.13.65,4.07,15.55-13.42,2.74.13Z"/><path class="cls-3" d="m659.23,785.61l9.63-6.01,8.98-6.12,3.05.59s21.89-13.49,27.25-16.99c.27-.18.43-.28.43-.28h0c.05-.04.11-.07.17-.11l-28.75,14.34-3.64-1.14-22.87,10.85,5.15,1.89.59,2.99Z"/><path class="cls-3" d="m449.34,742.52c-2.57-.53-7.44.32-8.34,1.69-1.18,1.77-.9,2.7.06,5.85.92,3.03,1.64,4.11,3.62,4.4.54.08,1.58.23,2.76-.21-.62.39-1.04.72-1.35,1.51-.33.8-.86,2.17,1.51,5.05,2.09,2.51,4.14,3.48,5.86,2.55.98-.54,1.32-1.15,1.79-1.62-.27.65-.56,1.4-.7,2.12-.48,2.48,1.39,3.43,3.73,4.34,4.43,1.73,6.64,1.1,7.75-.46,2.37-3.36,1.25-7.77-.27-8.56.34,1.35.29,2.79-.03,4.4-.24,1.31-.91,3.47-3.35,3.17-1.32-.15-3.71-.78-5.14-1.76-1.02-.7-1-2.45-.45-3.92.28-.75.62-1.79,1.53-2.55-1.52.35-2.41,1.14-3.59,2.06-1.18.92-2.93,1.1-3.93,0-1.25-1.37-2.02-2.41-2.43-3.34-1.06-2.4,2.04-4.17,3.83-5.11-3.1.04-3.65,1.22-6.15.79-2.51-.43-3.16-4.47-3.14-5.81,0-.98,1.21-1.91,2.68-2.26,1.31-.3,3.01-.21,3.95-.11"/><path class="cls-3" d="m392.46,716.55c.59.06.45.02-.21-.2-6.9-3.85-11.78-5.17-21.27-3.89,8.91.67,15.16,1.88,21.48,4.1Z"/><path class="cls-3" d="m396.71,765.1c1.02-6.62,5.4-14.52,11.84-19.83,4.51-3.73,7.06-5.1,3.3-1.16-5.72,5.98-12.35,15.66-15.14,20.99Z"/><path class="cls-3" d="m410.81,783.14c-2.47-6.23-.33-16.22,2.37-22.75,1.87-4.51,6.48-11.37,7.92-12.03-5.12,7.89-10.57,28.78-10.29,34.78Z"/><path class="cls-3" d="m390.14,696.3c-.48-2.34-2.77-3.87-5.13-3.4-2.36.47-3.88,2.77-3.4,5.13.47,2.36,2.77,3.88,5.12,3.4,2.35-.47,3.88-2.77,3.4-5.14Z"/><path class="cls-3" d="m428,702.29c.15-6.52-.84-13.23-.08-20.82-12.97,9.46-17.4,26.04-12.03,37.63-.53-.1-1.09-.11-1.65,0-2.44.5-4.01,2.87-3.52,5.31.49,2.45,2.87,4.01,5.3,3.52,2.44-.5,4.03-2.88,3.53-5.3-.25-1.24-.98-2.25-1.96-2.89-2.17-10.25-.38-23.05,5-28.46-1.68,6.42-4.73,19.86-2.75,32.26,2.11-2.41,3.69-4.76,4.87-7.07.24,1.95.72,3.98,1.53,6.1.28-9.86,3.59-19.64,13.82-26.44-7.51,9.51-11.81,20.63-12.71,29,5.46-6.93,17.86-8.99,18.74-36.1-6.27,1.89-13.8,6.48-18.1,13.25Z"/><path class="cls-3" d="m436.57,730.16c-.52-2.57-3-4.22-5.55-3.71-2.56.53-4.21,3.01-3.69,5.58.51,2.54,2.99,4.19,5.55,3.68,2.56-.53,4.2-3.01,3.69-5.54Z"/><path class="cls-3" d="m434.92,744.43c-.52-2.56-3-4.22-5.55-3.71-2.55.52-4.21,3-3.68,5.56.5,2.54,2.98,4.2,5.54,3.68,2.57-.52,4.2-3.01,3.69-5.54Z"/><path class="cls-3" d="m407.59,674.84c-9.55,8.01-12.23,18.06-11.21,26.87-.37-.04-.74-.04-1.12.04-1.99.4-3.27,2.34-2.87,4.3.4,1.99,2.33,3.27,4.31,2.86.45-.09.86-.26,1.23-.5.9,2.57,2.09,4.92,3.49,6.94-.85-2.98-1.48-6.26-1.81-9.62.04-.37.05-.74-.03-1.13-.02-.09-.05-.16-.08-.24-.51-7.52.66-15.27,4.82-20.84-1.31,8.18-3.23,24.01-1.39,33.83,2.79-10.46,17.87-15.08,4.67-42.51Z"/><path class="cls-3" d="m445.93,736.54c-.39-1.97-2.33-3.27-4.32-2.87-1.98.4-3.27,2.34-2.87,4.33.4,1.98,2.34,3.27,4.32,2.87,1.99-.42,3.27-2.35,2.87-4.33Z"/><path class="cls-3" d="m425.65,735.85c-.36-1.82-2.13-3-3.96-2.63-1.83.37-3.01,2.14-2.64,3.96.36,1.84,2.15,3.02,3.97,2.64,1.83-.36,3.01-2.14,2.63-3.98Z"/><path class="cls-3" d="m379.45,689.38c-.25-1.52-1.57-2.59-3.05-2.6-4.73-6.39-11.55-13.26-22.94-14.46,6.23,2.96,15.61,8.71,22.11,14.57-1.55.41-2.56,1.93-2.29,3.54.3,1.71,1.9,2.85,3.61,2.57,1.7-.29,2.84-1.92,2.56-3.61Z"/><path class="cls-3" d="m379.59,667.82c-.43-2.15-2.51-3.53-4.67-3.09-.1.02-.18.06-.27.08-2.58-10.08-5.08-17.94-16.53-25.8,5.75,7.35,12.37,18.04,16.08,25.94-1.72.7-2.76,2.54-2.38,4.44.44,2.14,2.52,3.52,4.66,3.1,2.14-.44,3.52-2.53,3.1-4.66Z"/><path class="cls-3" d="m391.19,707.43c-.28-1.7-1.9-2.84-3.6-2.54-.83.14-1.52.6-1.98,1.22-10.13-8.94-17.1-8.99-22.44-9.24,3.22,1.16,14.82,4.48,22.17,9.68-.3.58-.43,1.25-.32,1.93.3,1.72,1.91,2.86,3.62,2.58,1.7-.3,2.85-1.91,2.55-3.63Z"/><path class="cls-3" d="m399.7,720.09c-.5-2.44-2.87-4.01-5.31-3.54-2.43.5-4.01,2.87-3.52,5.31.5,2.45,2.88,4.02,5.31,3.52,2.44-.49,4.03-2.88,3.52-5.3Z"/><path class="cls-3" d="m406.25,727.84c-.29-1.7-1.9-2.83-3.62-2.54-1.07.17-1.91.88-2.32,1.79-8.81-1.16-18.4.06-26.46,4.56,9.05-2.09,18.51-4.03,26.26-4.06,0,0,.02,0,.03,0-.11.42-.14.86-.07,1.31.3,1.7,1.92,2.85,3.62,2.55,1.71-.27,2.84-1.91,2.56-3.61Z"/><path class="cls-3" d="m415.33,733.13c-.45-2.19-2.6-3.63-4.81-3.2-2.18.45-3.61,2.58-3.19,4.77-.09,0-.17-.02-.28-.02-6.52-.26-17.39,1.48-24.06,9.36,6.84-4.03,17.7-8.17,24.23-9.05.06,0,.13,0,.19,0,.56,2.05,2.61,3.37,4.73,2.94,2.2-.45,3.62-2.6,3.19-4.8Z"/><path class="cls-3" d="m398.69,653.15c-14.7,6.43-21.52,24.75-14,38.19,6.88-9.78,19.84-11.91,14-38.19Zm-13.95,37.48c-1.77-7.39,2.85-27.06,9.44-31.11-4.27,9.54-6.03,18.38-9.44,31.11Z"/><path class="cls-3" d="m383.75,625.64c-4.71,1.93-11.37,8.46-14.36,17.07,1.16,1.34,2.14,2.76,2.99,4.22,1.65-6.32,5.21-13.65,8.8-16.77-2.35,4.01-5.63,12.87-7.24,19.87,1.66,3.88,2.39,7.94,2.26,11.77,8.99-8.21,12.1-22.43,7.54-36.16Z"/><path class="cls-3" d="m472.5,753.64c18.6,14,29.15,33.43,31.86,49.09-2.34-1.71-6.73-3.49-9.42-2.98-2.42-16.51-11.05-29.84-24.57-40.71.57-2.51,1.38-4.22,2.12-5.39Z"/><path class="cls-3" d="m455.03,748.82c1.27-1.58,4.33-1.77,6.07-.68-1.19,2.22-1.29,5.95-.63,7.76-4.4-.7-5.18-4.86-5.44-7.08Z"/><path class="cls-3" d="m461.9,748.58c2.58-.18,3.53-1.45,4-2.71.46-1.24,1.85-2.02,1.88-.13.02,1.89.04,2.73-1.04,3.25-1.07.52-2.98.67-4.84-.41Z"/><path class="cls-3" d="m463.22,752.66c-.24,1.38-.74,2.69-1.6,3.94-.66.95-1.6,1.54-2.28,2.13,1.19.9,2.86,1.42,4.27,1.35,1.4-.07,1.46-.27,1.37-.81-.33-2.34-1.22-5.68-1.76-6.6Z"/><path class="cls-6" d="m4107.81,725.39l23.97,12.51c39.41,20.59,76.68,40.21,120.92,44.94,36.93,4.09,63.15-2.26,100.36-13.34v-235.33l-177.78-138.79-135.32,103.63v203.53c25.88,5.53,49.74,13.66,67.85,22.85Zm21.9-160.77h87.49v104.93h-87.49v-104.93Z"/><path class="cls-6" d="m3532.76,744.33c17.21,9.12,33.44,17.66,50.48,24.5,85.75,34.75,144.32,11.33,224.03-28.36,37.48-18.71,68.16-31.48,114.67-41.6,31.84-7.02,70.48-5.35,106.55,1.37v-239.14l-266.79-208.33-140.7,108.39v-34.24h-66.5v86.55l-60.13,46.43v265.14c13.72,6.43,26.45,13.06,38.39,19.28Zm160.55-244.35h138.86v169.57h-138.86v-169.57Z"/><path class="cls-6" d="m3425.2,699.12c21.52,5.78,40.38,13.09,57.71,20.67v-218.67l-138.52-108.59-180.65,138.79v225.6c23.56-12.24,47.5-24.16,73.13-36.36,47.85-22.72,131.4-37.08,188.34-21.45Zm-127.4-134.5h87.44v104.93h-87.44v-104.93Z"/><path class="cls-7" d="m4248.94,887.43c-56.55-6.22-115.33-38.42-165.31-63.91-44.99-22.9-104.12-33.13-154.67-21.98-42.83,9.45-73.67,24.01-112.2,43.22-81.76,40.78-149.27,59.25-240.91,25.23-48.79-18.12-84.67-40.93-150.59-62.52-61.42-19.94-119.09-7.95-179.29,17.62-28.76,12.24-55.1,26.85-82.23,41.09v54.63c25.34-13.33,39-19.44,73.2-37.24,45.3-23.32,115.23-44.07,166.15-33.14,51.61,11.01,97.78,39.05,146.04,58.76,86.99,35.51,164.81,35.2,248.09-3.98,37.47-17.65,81.19-39.11,121.74-49.74,48.93-12.84,104.69-10.11,149.65,12.34,46.16,22.97,100.69,54.17,151.8,64.32,37.77,7.65,92.08,5.77,132.65-5.96v-49.4c-35.38,9.98-66.11,14.71-104.12,10.67Z"/><path class="cls-7" d="m3405.26,939.26c51.56,10.99,98.11,40.89,146.68,59.69,74.53,28.81,172.66,27.47,253.31-7.97,37.99-16.64,75.24-36.09,115.87-46.73,48.9-12.77,104.62-10.03,149.65,12.36,46.12,22.97,100.66,54.19,151.74,64.44,37.1,7.34,90.23,5.68,130.55-5.52v-49.17c-33.97,9.85-61.5,15.4-98.69,11.42-56.69-6.03-117.75-38.5-168.06-64-44.86-22.86-106.46-31.56-156.91-20.37-42.86,9.42-72.28,20.42-110.57,40.24-69.11,35.61-157.66,55.61-240.89,25.16-48.83-17.8-86.91-47.04-153.87-65.4-51.02-13.97-109.91-9.94-175.98,20.48-29.09,13.43-56.47,27.55-84.35,42.27v54.71c26.74-14.14,40.14-20.25,75.34-38.31,45.3-23.44,115.22-44.26,166.18-33.31Z"/><path class="cls-7" d="m4353.06,788.08c-35.52,10.47-63.87,16.6-102.27,12.55-56.74-6.22-101.03-33.94-151.08-59.37-44.93-22.9-123.43-36.13-173.99-25.01-42.73,9.42-71.79,21-110.52,40.14-81.59,40.76-145.5,66.74-238.68,29.04-48.2-19.48-88.96-50.96-155.92-69.17-51.01-13.91-129.4-1.77-176.05,20.52-27.68,13.2-54.17,26.37-80.79,40.32v54.64c24.47-12.85,38.19-19.02,71.75-36.54,45.36-23.42,115.26-44.05,166.18-33.13,51.48,11,101.86,42.59,150.07,62.29,87.05,35.63,151.98,36.67,235.05-2.61,37.58-17.63,90.07-44.01,130.71-54.63,48.99-12.84,107.76-10.3,152.87,12.19,46.03,22.99,101.93,54.06,153.03,64.27,38.23,7.75,88.96,5.9,129.65-6.2v-49.3Z"/><path class="cls-6" d="m4686.28,781.53h43.12v-247.16h-43.12v132.97c0,18.32.99,34.98,3.33,50.41-8.19-21.53-17.65-41.19-27.79-59.46l-71.07-123.92h-49.61v247.16h43.12v-136.67c0-18.37-.68-35.03-3.02-50.36,10.43,26.58,19.99,46.37,27.76,59.34l77.28,127.68Z"/><path class="cls-6" d="m4880.6,534.37h-58.18l-74.43,247.16h44.2l15.67-54.1h85.29l15.3,54.1h46.57l-74.43-247.16Zm-61.47,153.76l31.19-110.59,31.63,110.59h-62.82Z"/><polygon class="cls-6" points="5043.8 781.53 5043.8 575.19 5108.62 575.19 5108.62 534.37 4931.8 534.37 4931.8 575.19 4996.82 575.19 4996.82 781.53 5043.8 781.53"/><rect class="cls-6" x="5132.11" y="534.37" width="46.98" height="247.16"/><path class="cls-6" d="m5313.55,531.45c-63.66,0-102.67,46.45-102.67,126.84s39.33,127.23,102.67,127.23,102.58-46.69,102.58-127.23-39.06-126.84-102.58-126.84Zm0,212.42c-36.19,0-55.26-29-55.26-85.58s19.07-85.92,55.26-85.92,55.38,29.48,55.38,85.92-19.41,85.58-55.38,85.58Z"/><path class="cls-6" d="m5634.18,534.37h-43.41v132.97c0,18.32,1.16,34.98,3.48,50.41-8.11-21.53-17.84-41.19-27.88-59.46l-71.24-123.92h-49.27v247.16h42.95v-136.67c0-18.37-.67-35.03-3.04-50.36,10.55,26.58,20.16,46.37,27.91,59.34l77.11,127.68h43.41v-247.16Z"/><path class="cls-6" d="m5652.55,781.53h44.3l15.48-54.1h85.58l15.11,54.1h46.74l-74.57-247.16h-58.18l-74.45,247.16Zm134.01-93.4h-62.79l31.19-110.59,31.6,110.59Z"/><polygon class="cls-6" points="5878.38 534.37 5878.38 781.53 6029.99 781.53 6029.99 739.24 5925.5 739.24 5925.5 534.37 5878.38 534.37"/><polygon class="cls-6" points="6199.07 574.44 6308.15 574.44 6308.15 534.37 6152.36 534.37 6152.36 781.53 6199.07 781.53 6199.07 672.77 6281.64 672.77 6281.64 632.58 6199.07 632.58 6199.07 574.44"/><polygon class="cls-6" points="6330.09 534.37 6330.09 781.53 6481.99 781.53 6481.99 739.24 6377.51 739.24 6377.51 534.37 6330.09 534.37"/><path class="cls-6" d="m6487.93,658.29c0,80.54,39.23,127.23,102.58,127.23s102.6-46.69,102.6-127.23-39.16-126.84-102.6-126.84-102.58,46.45-102.58,126.84Zm158.03,0c0,56.59-19.51,85.58-55.45,85.58s-55.48-29-55.48-85.58,19.14-85.92,55.48-85.92,55.45,29.48,55.45,85.92Z"/><path class="cls-6" d="m6710.18,658.29c0,80.54,39.45,127.23,102.8,127.23s102.65-46.69,102.65-127.23-39.28-126.84-102.65-126.84-102.8,46.45-102.8,126.84Zm158.15,0c0,56.59-19.53,85.58-55.36,85.58s-55.62-29-55.62-85.58,19.31-85.92,55.62-85.92,55.36,29.48,55.36,85.92Z"/><path class="cls-6" d="m7136.81,657.08c0-80.9-39.55-122.71-115.78-122.71h-75.56v247.16h73.92c77.88,0,117.43-41.86,117.43-124.45Zm-144.59,83.68v-165.1h24.67c49.88,0,72.67,25.49,72.67,81.43,0,58.88-21.07,83.68-72.11,83.68h-25.23Z"/><rect class="cls-6" x="4541.14" y="837.9" width="35.48" height="186.69"/><path class="cls-6" d="m4721.16,938.48c0,13.66.85,26.39,2.64,37.73-6.12-16.07-13.29-31.05-21.05-44.56l-53.63-93.75h-37.51v186.69h32.72v-103.29c0-13.7-.65-26.49-2.42-37.68,8,19.94,15.15,34.66,21.1,44.71l58.15,96.26h32.63v-186.69h-32.63v100.58Z"/><path class="cls-6" d="m4861.31,917.24c-29.51-12.61-47.73-15.51-47.73-33.01,0-12.08,9.11-19.89,24.63-19.89s25.84,7.37,33.55,23.85l31.9-11.31c-9.79-27.09-31.08-40.96-62.96-40.96-36.88,0-60.85,21.46-60.85,50.9,0,17.6,7.83,32.02,21.82,41.04,12.35,7.95,27.77,12.86,44.39,19.24,19.31,7.11,27.79,13.58,27.79,26.08,0,14.21-11.36,23.56-30.28,23.56-16.7,0-28.23-8.72-38.02-28.37l-31.81,13.99c12.11,29.36,36.28,44.78,70.6,44.78,40.02,0,63.34-21.63,63.34-55.51,0-29.05-15.42-41.42-46.38-54.38Z"/><path class="cls-6" d="m5036.77,957.36c0,27.41-9.28,39.37-36.74,39.37s-35.29-12.81-35.29-39.37v-119.46h-35.24v118.13c0,47.92,22.89,71.49,70.52,71.49s70.98-23.56,70.98-65.88v-123.74h-34.25v119.46Z"/><path class="cls-6" d="m5237.53,893.58c0-37.94-23.25-55.68-70.28-55.68h-63.03v186.69h34.39v-75.74h32.05l36.04,75.74h37.58l-41.06-83.88c21.82-5.92,34.32-22.6,34.32-47.13Zm-68.47,25.54h-30.45v-51.7h30.45c22.23,0,33.09,7.64,33.09,25.86s-10.63,25.83-33.09,25.83Z"/><path class="cls-6" d="m5312.19,837.9l-56.07,186.69h33.23l11.6-40.92h64.72l11.41,40.92h35l-56.12-186.69h-43.77Zm-2.56,116.1l23.49-83.64,23.9,83.64h-47.39Z"/><path class="cls-6" d="m5538.2,938.48c0,13.66.77,26.39,2.56,37.73-6.19-16.07-13.29-31.05-21.1-44.56l-53.7-93.75h-37.31v186.69h32.53v-103.29c0-13.7-.58-26.49-2.32-37.68,7.88,19.94,15.18,34.66,21,44.71l58.34,96.26h32.51v-186.69h-32.51v100.58Z"/><path class="cls-6" d="m5669.67,996.61c-26.61,0-38.55-21.12-38.55-64.12s12.37-67.6,37.82-67.6c16.82,0,28.01,9.47,32.6,27.43l32.19-7.85c-7.01-31.49-29.15-49.01-62.79-49.01-47.73,0-75.35,34.49-75.35,96.74s25.01,95.32,73.35,95.32c35.36,0,59.5-17.71,68.73-49.76l-32.41-8.92c-4.69,17.21-18.49,27.77-35.6,27.77Z"/><polygon class="cls-6" points="5792.35 942.25 5855.47 942.25 5855.47 912.46 5792.35 912.46 5792.35 868.28 5878.8 868.28 5878.8 837.9 5757.59 837.9 5757.59 1024.59 5882.49 1024.59 5882.49 992.74 5792.35 992.74 5792.35 942.25"/><path class="cls-6" d="m6052.88,837.9h-66.46v186.69h35.38v-75.57h34.66c40.41,0,61.55-19.48,61.55-55.73s-21.46-55.39-65.13-55.39Zm-4.79,81.64h-26.29v-52.64h26.29c23.76,0,34.87,6.21,34.87,26.39s-11.24,26.24-34.87,26.24Z"/><path class="cls-6" d="m6272.05,893.58c0-37.94-23.03-55.68-70.09-55.68h-62.98v186.69h34.36v-75.74h32.38l35.65,75.74h37.73l-41.13-83.88c22.09-5.92,34.08-22.6,34.08-47.13Zm-68.13,25.54h-30.57v-51.7h30.57c22.07,0,32.94,7.64,32.94,25.86s-10.78,25.83-32.94,25.83Z"/><path class="cls-6" d="m6367.34,835.46c-48.09,0-77.53,35.21-77.53,96.19s29.82,95.87,77.53,95.87,77.41-35.36,77.41-95.87-29.63-96.19-77.41-96.19Zm0,160.62c-27.19,0-41.83-21.92-41.83-64.43s14.65-64.92,41.83-64.92,41.83,21.9,41.83,64.92-14.65,64.43-41.83,64.43Z"/><path class="cls-6" d="m6537.6,959.29h34.87c-3.12,23.52-17.31,37.44-37.02,37.44-24.92,0-39.88-22.57-39.88-65.25s14.36-66.63,40.89-66.63c16.19,0,27.38,8.58,34.68,26.08l31.86-7.9c-9.16-30.55-32.38-47.56-65.59-47.56-48.31,0-77.36,34.15-77.36,93.8s27.24,98.27,71.1,98.27c21.73,0,37.44-6.98,49.13-22.6l1.93,19.67h24.82v-94.81h-69.43v29.51Z"/><path class="cls-6" d="m6769.95,893.58c0-37.94-23.01-55.68-70.01-55.68h-63.25v186.69h34.49v-75.74h32.1l35.79,75.74h37.92l-41.33-83.88c21.97-5.92,34.29-22.6,34.29-47.13Zm-68.15,25.54h-30.62v-51.7h30.62c22.19,0,32.75,7.64,32.75,25.86s-10.34,25.83-32.75,25.83Z"/><path class="cls-6" d="m6844.87,837.9l-56.43,186.69h33.21l12.16-40.92h64.24l11.67,40.92h35.12l-56.29-186.69h-43.67Zm-2.83,116.1l23.95-83.64,23.61,83.64h-47.56Z"/><path class="cls-6" d="m7060.81,929.03c-3.99,13.75-8.32,29.17-12.01,45.84-1.88-15.13-5.53-30.96-10.34-46.42l-26.95-90.56h-50.03v186.69h30.23v-156.7c2.83,12.5,6.77,26.05,11.02,41.45l33.04,115.25h25.57l34.22-115.25c4.42-14.52,7.97-27.91,11.19-41.45v156.7h29.97v-186.69h-48.43l-27.48,91.14Z"/><path class="cls-6" d="m7252.9,837.9c39.64.44,72.56,33.02,72.1,74.07-.44,40-33.37,72.55-73.72,72.1-40.35-.45-72.55-33.72-72.1-73.72.45-41.06,33.73-72.9,73.72-72.46Zm-1.45,130.96c30.79.34,57.99-26.26,58.33-57.05.35-31.5-26.26-58.34-57.05-58.68-30.44-.34-57.99,25.91-58.34,57.41-.34,30.8,26.26,57.99,57.05,58.33Zm-11.12-18.88l-19.47-.22.87-78.22,36.46.4c4.6.05,29.73.33,29.47,23.69-.16,14.87-10.83,19-14.74,20.72l14.14,34.14-20.53-.23-12.06-29.87-13.81-.15-.33,29.73Zm.49-44.24l11.68.13c5.66.06,14.88-1.25,14.99-10.81.05-4.6-3.09-8.89-13.35-9l-13.1-.14-.22,19.82Z"/></svg>