<?xml version="1.0" encoding="UTF-8"?><svg id="uuid-082fd717-be99-4f25-a5cb-83229c469354" xmlns="http://www.w3.org/2000/svg" viewBox="0 0 712.6 712.6"><defs><style>.uuid-304ca896-6e72-4367-9f3f-64acef225ed1{fill:#5e9841;}.uuid-304ca896-6e72-4367-9f3f-64acef225ed1,.uuid-55882654-bd6e-478d-9d43-f37e95c2d85c,.uuid-4ea5827a-9f0a-45e8-a77c-96552225613e,.uuid-59f1a514-04d4-458c-a283-190e09957c17,.uuid-4a5ed056-e2f4-4664-b4c2-f2a9a78d5579,.uuid-dc8276ce-19f3-4968-b327-b18abe0b687b{stroke-width:0px;}.uuid-55882654-bd6e-478d-9d43-f37e95c2d85c{fill:#c0c2c4;}.uuid-4ea5827a-9f0a-45e8-a77c-96552225613e{fill:#0778ae;}.uuid-59f1a514-04d4-458c-a283-190e09957c17{fill:#fff;}.uuid-4a5ed056-e2f4-4664-b4c2-f2a9a78d5579{fill:#045388;}.uuid-dc8276ce-19f3-4968-b327-b18abe0b687b{fill:#c42032;}</style></defs><path class="uuid-59f1a514-04d4-458c-a283-190e09957c17" d="M356.3,0C159.5,0,0,159.5,0,356.3s159.5,356.3,356.3,356.3,356.3-159.5,356.3-356.3S553.1,0,356.3,0h0Z"/><path class="uuid-dc8276ce-19f3-4968-b327-b18abe0b687b" d="M572.8,228.3c-4,1.4-8,2.5-11.9,3.3,22.2,36.3,35,79,35,124.7,0,132.3-107.3,239.6-239.6,239.6s-239.5-107.3-239.5-239.6c0-47.7,13.9-92.1,37.9-129.4-3.8-1.1-7.5-2.6-11.3-4.3-24.4,38.7-38.5,84.6-38.5,133.8,0,138.9,112.6,251.4,251.4,251.4,138.9,0,251.4-112.6,251.4-251.4.1-46.9-12.7001-90.6-34.9-128.1h0Z"/><path class="uuid-dc8276ce-19f3-4968-b327-b18abe0b687b" d="M217,161.3c39.2-28.1,87.3-44.6,139.3-44.6,58,0,111.2,20.6,152.7,55,4.7-1.3,9.2-2.5,13.9-3.7-44.4-39.3-102.7-63.1-166.6-63.1-57.3,0-110.1,19.2-152.4,51.4,2,.7,4,1.5,6.1,2.2,2.4,1,4.8,1.9,7,2.8h0Z"/><path class="uuid-55882654-bd6e-478d-9d43-f37e95c2d85c" d="M356.3,0C159.5,0,0,159.5,0,356.3s159.5,356.3,356.3,356.3,356.3-159.5,356.3-356.3S553.1,0,356.3,0h0ZM356.3,690.6c-184.6,0-334.3-149.7-334.3-334.3S171.7,22.1,356.3,22.1s334.2,149.7,334.2,334.2c0,184.6-149.6,334.3-334.2,334.3Z"/><path class="uuid-4a5ed056-e2f4-4664-b4c2-f2a9a78d5579" d="M270.3,284.8c-5.1-2.6-9.5-5.6-14.3-9.9-15.3-13.9-18.9-28.6-14.4-45.4,2.7-10,6.8-15.1,5.4-25.5-.8-6-5-10.8-9.3-14.9-10.2-9.8-22.3-15.9-40.3-21.9-11.1-3.7-43.2-13.7-57.4-26.5-3.2,9.4,3.7,22,11.8,23.7-7.2.7-13.4,4.5-16.3,8.6,5.5,6.3,16.4,12.9,25.4,13.1-4.2,2.8-9.2,8.7-10.9,12,7.8,4.1,20.2,7.6,29.7,7-4,3.2-7.5,7.3-9.8,11,6.5,2.9,19,7.2,31,8.1-4.4,2.2-10.7,9.7-13.9,14.3,6.7,3,21.3,4.8,30.3,5.7-6.5,3.4-13.2,10.2-17,16.3,6.5,3.1,18.9,6.6,28.9,6.3-5,4.7-8.2,10.5-10.1,16.1,7.6,1.6,15.6,1.6,24.9.4-5.6,7.1-7.9,16.6-8.7,23.3,7.6-.2,17.6-1.9,24.7-6.2-1.5,5.8-1.2,13.6,1.3,19.1,3-.7,6.4-1.9,10.2-3.9-.4-10.7-.9-21.7-1.2-30.7999h0Z"/><path class="uuid-4a5ed056-e2f4-4664-b4c2-f2a9a78d5579" d="M577.4,158c-14.2,12.9-36.9,16.3-60.7,24.2-17.9,5.9-29.1,9.4-45.2,22.2-4.6,3.7-9,9-8.5,18.2.5,10.3,2.2,14.7,2.5,29,.2,10.2-3.3,18.4-7.6,23.3-4.5,5.1-10.4,9.6-15.7,12.4-.3,8.7-.7,17.5-1.2,27.7,3.7,2,8.5,3.9,11.5,4.6,2.5-5.5,2.8-13.3,1.3-19.1,7.1,4.2,17.1,5.9,24.7,6.2-.8-6.7-3.1-16.2-8.7-23.3,9.3,1.2,17.3,1.2,24.9-.4-1.9-5.6-5.2-11.4-10.1-16.1,10.1.3,22.4-3.2,29-6.3-3.7-6.1-10.5-12.9-17-16.3,9-.9,24-2.7,30.7-5.7-3.3-4.6-10-12.2-14.3-14.4,12-.9,24.5-5.2,31-8.1-2.3-3.7-5.8-7.8-9.7-11,11.2-.8,22-2.8,29.7-7-1.7-3.3-6.8-9.2-10.9-12,23.8-6.8,24.2-18.8,24.3-28.1001h0Z"/><path class="uuid-4a5ed056-e2f4-4664-b4c2-f2a9a78d5579" d="M476.4,183.3c-34.1-23.7-75.4-37.5-120.1-37.5-40.7,0-78.7,11.5-110.9,31.5,8.3,6.5,13.3,13.3,14.5,20.5,1.1,6.2,1.8,13.8-1.8,24.8-3.8,11.7-5.9,23.6,2.7,35.8,8.6,12.1,19.7,17.3,28.9,19.1h0c12.1-2.1,25.5-3.9,38.8-4.9h0c1.7-5.6,6.9-10.5,12-14.5,7.5-5.8,5.8-10.9,4.1-14.9-1.4-3.1-4.1-5.6-7.9-7.6-3.4-1.7-15.7-3-15.4,4.9-2-2.8-3.6-6.7-2.4-11.7,1.7-6.9,12.9-8.6,15.7-8.4-2.2-1.8-.8-4.8,4.1-6.2,6-1.7,11.7-1.9,17.1-1.8,11.3.3,13.1,3,18.8,8.1,6.9,6.1,16,8.3,19.6,4.6-2.6,5.9-10.8,9-16,8.1,2.6,8.1,3.5,15.2,4.4,23.7.4,3.9,1.2,10.4,2.3,15.7,15.1,1.2,30.3,3.3,43.5,5.9h0c5.5-1.6,11.2-4.8,16.3-10.7,4.8-5.6,9.3-12.7,7.5-30.5-.5-5-3-17.9-2.7-23.9.7001-13.8,10.9001-22.8,26.9001-30.0999h0Z"/><path class="uuid-4a5ed056-e2f4-4664-b4c2-f2a9a78d5579" d="M336.4,220.9c2.1,1.6,3.3,1.8,4,1.6.1.4.7.9.9,1,.4.4.7.8.8,1.2.9-.4,3.5-1.4,5.7-2.2,2.3-.8,5.5-1.8,5.5-1.8-9.8-2-11.4,1-16.9.2h0Z"/><path class="uuid-4ea5827a-9f0a-45e8-a77c-96552225613e" d="M350.4,387.4l-4.2-2.1-2.7-7.1-6.2-2.7-6.9-6.2-4.1,4.5-6.1,1.4-3.3,5.2-5,5.2-6.7,3.6-4.6,7.9-2.6,3.5-4.5,3.5-2.5-2.6-2.7,2.6-3.4,6.2c-1.8-4.6-2.9-8.2-3.4-15.7-1-13.8-2-31.1-3-48.8,22.7-4.9,51.6-8.1,75.1-8.4v53.6c-.9999-.5-2.1-1-3.2-3.6h0Z"/><path class="uuid-304ca896-6e72-4367-9f3f-64acef225ed1" d="M353.7,413.2h-67.5c1,2.1,2.1,4,3.4,5.9,4.9,6.8,11.8,11.9,20.6,14.6,11.9,3.7,19.5,6.1,25.1,7.8l6.6,2.1c5.4,1.7,9.2,4.1,11.8,6.8v-37.2h0Z"/><path class="uuid-4a5ed056-e2f4-4664-b4c2-f2a9a78d5579" d="M424.9999,387.1c1.8-1.5,4-3.2,6.8-4.2.4-6.3.8-13,1.2-20-.7.5-1.5,1.1-2.5,1.9-3.2,2.6-7.2,5.9-14.3,5.9-6.6,0-11-2.6-14.4-4.8-2.8-1.7-5.1-3.1-8.4-3.1-3.7,0-6.8,1.9-10.1,3.9-3.6,2.1-7.6,4.6-12.6,4.6-5.1,0-8.8-1.5-11.8-3.2v19c.7.4,1.4.8,2,1.2,3,1.9,5.6,3.5,9.8,3.5,2.6,0,5.1-1.5,8.1-3.3,4-2.4,8.6-5.1,14.6-5.1,5.8,0,9.6,2.3,13,4.4,3,1.9,5.6,3.5,9.8,3.5,4.0001-.2001,6.1001-2.0001,8.8-4.2001h0Z"/><path class="uuid-4a5ed056-e2f4-4664-b4c2-f2a9a78d5579" d="M370.7,430.3c-5.1,0-8.8-1.6-11.8-3.2v23.2c2.7-2.7,6.4-5.1,11.8-6.8l6.6-2.1c5.5-1.8,13.1-4.1,25.1-7.8,3.5-1.1,6.7-2.5,9.6-4.3-4.3-.8-7.5-2.8-10.2-4.4-2.8-1.7-5.1-3.1-8.4-3.1-3.7,0-6.8,1.9-10.1,3.9-3.5999,2.1999-7.5999,4.5999-12.5999,4.5999h0Z"/><path class="uuid-4ea5827a-9f0a-45e8-a77c-96552225613e" d="M424.9999,358c2.2-1.8,4.8-3.9,8.6-4.8.1-2.4.3-4.9.4-7.3-22.7-4.9-51.6-8.1-75.1-8.4v20.3c.7.4,1.4.8,2,1.2,3,1.9,5.6,3.5,9.8,3.5,2.6,0,5.1-1.5,8.1-3.3,4-2.4,8.6-5.1,14.6-5.1,5.8,0,9.6,2.4,13,4.4,3,1.9,5.6,3.5,9.8,3.5,4.0001-.1001,6.1001-1.8001,8.8-4.0001h0Z"/><path class="uuid-4ea5827a-9f0a-45e8-a77c-96552225613e" d="M358.9,397.2v19.8c.7.4,1.4.8,2,1.2,3,1.9,5.6,3.5,9.8,3.5,2.6,0,5.1-1.5,8.1-3.3,4-2.4,8.6-5.1,14.6-5.1,5.8,0,9.6,2.4,13,4.4,3,1.9,5.6,3.5,9.8,3.5,3.2,0,5.3-1.1,7.3-2.7,4.3-6.4,6.9-14.4,7.5-23.6,0-.4.1-.8.1-1.2-.2.1-.4.3-.6.5-3.2,2.6-7.2,5.9-14.3,5.9-6.6,0-11-2.6-14.4-4.8-2.8-1.8-5.1-3.1-8.4-3.1-3.7,0-6.8,1.9-10.1,3.9-3.6,2.1-7.6,4.6-12.6,4.6-5.0999-.3001-8.7999-1.9001-11.7999-3.5001h0Z"/><path class="uuid-4a5ed056-e2f4-4664-b4c2-f2a9a78d5579" d="M278.3,340.7c-1.1-19.7-2-39.6-2.6-55.3,23.9-5.4,55.7-9,80.6-9s56.7,3.6,80.6,9c-.6,15.7-1.5,35.5-2.6,55.3-22.6-4.8-52.4-8.3-78-8.3s-55.5,3.6-78,8.3Z"/><polygon class="uuid-59f1a514-04d4-458c-a283-190e09957c17" points="293.9999 298.5 294.9 294.3 290.9 292.5 295.2 292 295.7 287.7 297.4 291.7 301.6 290.8 298.4 293.7 300.6 297.5 296.9 295.3 293.9999 298.5"/><polygon class="uuid-59f1a514-04d4-458c-a283-190e09957c17" points="320.3 295 316.6 292.7 313.6 295.8 314.7 291.6 310.8 289.6 315.1 289.3 315.8 285 317.4 289.1 321.6 288.4 318.3 291.1 320.3 295"/><polygon class="uuid-59f1a514-04d4-458c-a283-190e09957c17" points="339.9999 293.5 336.4999 291 333.3 293.9 334.6 289.7 330.9 287.6 335.2 287.6 335.9999 283.3 337.4 287.4 341.7 286.9 338.2 289.5 339.9999 293.5"/><polygon class="uuid-59f1a514-04d4-458c-a283-190e09957c17" points="359.7 293.1 356.4 290.3 352.9999 293.1 354.6 289 350.9 286.6 355.2 286.8 356.4 282.7 357.4999 286.8 361.8 286.6 358.2 289 359.7 293.1"/><polygon class="uuid-59f1a514-04d4-458c-a283-190e09957c17" points="415.8 295.3 412.1 297.5 414.3 293.7 411.1 290.8 415.3 291.7 416.9999 287.7 417.4999 292 421.8 292.5 417.8 294.3 418.7 298.5 415.8 295.3"/><polygon class="uuid-59f1a514-04d4-458c-a283-190e09957c17" points="394.4 291.2 391.1 288.4 395.3 289.1 396.9 285 397.4999 289.3 401.8 289.6 397.9999 291.6 399.1 295.8 395.9999 292.7 392.4 295 394.4 291.2"/><polygon class="uuid-59f1a514-04d4-458c-a283-190e09957c17" points="374.4999 289.5 371.1 287 375.3 287.4 376.7 283.3 377.6 287.6 381.9 287.6 378.1 289.8 379.4 293.9 376.2 291 372.7 293.5 374.4999 289.5"/><polygon class="uuid-59f1a514-04d4-458c-a283-190e09957c17" points="296.9 330.4 297.8 326.2 293.8 324.4 298.1 323.9 298.6 319.6 300.3 323.6 304.6 322.8 301.3 325.6 303.4999 329.4 299.8 327.2 296.9 330.4"/><polygon class="uuid-59f1a514-04d4-458c-a283-190e09957c17" points="322.4 327.2 318.8 324.8 315.8 327.9 316.9 323.7 312.9999 321.7 317.4 321.5 317.9999 317.2 319.6 321.2 323.8 320.6 320.4999 323.3 322.4 327.2"/><polygon class="uuid-59f1a514-04d4-458c-a283-190e09957c17" points="341.4 325.8 337.9 323.3 334.7 326.2 335.9999 322 332.3 319.9 336.6 319.9 337.4999 315.6 338.8 319.7 343.1 319.3 339.6 321.8 341.4 325.8"/><polygon class="uuid-59f1a514-04d4-458c-a283-190e09957c17" points="360.4 325.5 356.9999 322.7 353.7 325.5 355.2 321.4 351.6 319 355.9 319.2 356.9999 315 358.1 319.2 362.4 319 358.8 321.4 360.4 325.5"/><polygon class="uuid-59f1a514-04d4-458c-a283-190e09957c17" points="414.3 327.4 410.6 329.6 412.7 325.9 409.4999 323 413.7 323.8 415.4 319.9 415.9 324.2 420.2 324.6 416.3 326.4 417.2 330.7 414.3 327.4"/><polygon class="uuid-59f1a514-04d4-458c-a283-190e09957c17" points="393.6 323.5 390.2 320.7 394.4999 321.4 395.9999 317.3 396.7 321.6 400.9999 321.9 397.2 323.8 398.3 328.1 395.2 325 391.6 327.3 393.6 323.5"/><polygon class="uuid-59f1a514-04d4-458c-a283-190e09957c17" points="374.4 321.9 370.9999 319.3 375.2 319.8 376.6 315.7 377.4999 319.9 381.8 320 377.9999 322.1 379.3 326.3 376.1 323.3 372.6 325.9 374.4 321.9"/><polygon class="uuid-59f1a514-04d4-458c-a283-190e09957c17" points="306.3 311.6 307.3 307.3 303.4 305.4 307.7 305.1 308.3 300.8 309.9 304.8 314.1 304.1 310.9 306.9 312.9 310.7 309.2 308.4 306.3 311.6"/><polygon class="uuid-59f1a514-04d4-458c-a283-190e09957c17" points="287.4 314.6 288.3 310.3 284.3 308.5 288.6 308.1 288.9999 303.7 290.8 307.7 294.9999 306.8 291.8 309.7 293.9999 313.5 290.3 311.3 287.4 314.6"/><polygon class="uuid-59f1a514-04d4-458c-a283-190e09957c17" points="331.8 308.9 328.2 306.5 325.1 309.5 326.3 305.3 322.4999 303.2 326.8 303.1 327.6 298.8 329.1 302.9 333.3 302.3 329.9 305 331.8 308.9"/><polygon class="uuid-59f1a514-04d4-458c-a283-190e09957c17" points="350.7 308 347.3 305.4 343.9999 308.2 345.4 304.1 341.7 301.9 345.9999 301.9 346.9999 297.7 348.2 301.9 352.4999 301.5 348.9999 304 350.7 308"/><polygon class="uuid-59f1a514-04d4-458c-a283-190e09957c17" points="369.6 308.3 366.3 305.4 362.9 308 364.6 304 360.9999 301.5 365.3 301.9 366.6 297.7 367.6 302 371.9 301.9 368.2 304.1 369.6 308.3"/><polygon class="uuid-59f1a514-04d4-458c-a283-190e09957c17" points="423.3 311.5 419.4999 313.6 421.8 309.8 418.6 306.9 422.8 307.8 424.7 303.9 424.9999 308.2 429.3 308.8 425.3 310.5 426.1 314.8 423.3 311.5"/><polygon class="uuid-59f1a514-04d4-458c-a283-190e09957c17" points="402.7 307 399.4 304.2 403.7 305 405.3 300.9 405.9 305.3 410.2 305.6 406.3 307.5 407.3 311.7 404.3 308.6 400.6 310.9 402.7 307"/><polygon class="uuid-59f1a514-04d4-458c-a283-190e09957c17" points="383.6 305.1 380.2 302.4 384.4999 303 385.9999 298.9 386.7 303.2 390.9999 303.3 387.2 305.4 388.4 309.6 385.3 306.5 381.8 309 383.6 305.1"/><path class="uuid-4a5ed056-e2f4-4664-b4c2-f2a9a78d5579" d="M620.4,228.2c9.8-4.3,21.1-2.3,23.9,4.2,2.9,6.6-3.3,16.2-13.1,20.5-9.9,4.3-21.1,2.4-24-4.2s3.2999-16.2,13.2-20.5h0ZM635.2,262c12.4-5.4,18-19.3,12.8-31.3-5.3-12-19.2-17.2-31.6-11.7-12.4,5.4-18.2,19.3-12.9,31.2,5.2,11.9999,19.3,17.3,31.7,11.8Z"/><path class="uuid-4a5ed056-e2f4-4664-b4c2-f2a9a78d5579" d="M617.8,294.4l-4.7-18.7,2.9-.7,1.3,5.2,39.6-10.1-1.3-5.2,2.9-.7,7.2,28.4,1.9-.5.9,3.7-10.9,2.8-.9-3.6,5-1.3-3.6-14.3-16.2,4.1,2.8,11,4.7-1.2,1,3.7-13.5,3.4-1-3.7,4.8-1.2-2.8-11-18.2,4.6,1.2,4.6-3.1.7h0Z"/><path class="uuid-4a5ed056-e2f4-4664-b4c2-f2a9a78d5579" d="M63.5,244.1l-1.7,5.7,25.6,7.6c7.7,2.3,11.7,6.4,12.7,13,.5,3.4.2,7-.8,10.5-3.3,11-11.5,16.4-20.9,13.6l-27.5-8.2-1.5,5.2-2.9-.8,5.7-19.1,2.9.9-1.5,5.1,25.4,7.6c6.9,2,10.4,1.8,13.2-1.2,1.3-1.4,2.4-3.2,3-5.3,2.4-8.2-1-14.4-9.3-16.8l-25.3-7.5-1.7,5.7-2.9-.9,4.7-15.8,2.7999.7h.0001Z"/><path class="uuid-4a5ed056-e2f4-4664-b4c2-f2a9a78d5579" d="M108.5,255.2c-1,2.4-3.8,3.6-6.2,2.5-2.4-1-3.6-3.8-2.5-6.2,1-2.4,3.8-3.6,6.2-2.5,2.4,1.0001,3.5,3.8,2.5,6.2Z"/><path class="uuid-4a5ed056-e2f4-4664-b4c2-f2a9a78d5579" d="M117.4,234.9l-1.9,3.4-11.1-6.3,1.9-3.4,4.6,2.6c3.8-1.5,5.8-3.2,7.5-6.2,2.2-3.8,1.4-7.9-1.8-9.7-2.8-1.6-5.8-.9-12.7,2.8-7.2,3.9-8.3,4.3-11,4.9-2.7.5-5.6,0-8.3-1.6-6.8-3.8-8.5-11.4-4.3-18.9,1.4-2.4,2.8-4.1,5.1-5.9l-1.9-1,1.9-3.3,10.6,5.9-1.9,3.3-4.3-2.4c-3.1,1.7-4.7,3-6,5.3-1.8,3.2-.9,7,2,8.6,2.5,1.4,4.8.8,11.9-3,3.5-1.8,5.6-3,6.5-3.4,1.8-.9,3.9-1.4,6.1-1.5,2.6-.1,4.9.5,7.3,1.9,7.1,4,9.1,11.9,5,19.1-2,3.6-4.2,5.8-7.5,7.7,0,0,2.3,1.1,2.3,1.1Z"/><path class="uuid-4a5ed056-e2f4-4664-b4c2-f2a9a78d5579" d="M136,202.8c0,2.6-2.1,4.7-4.6,4.7-2.6,0-4.6-2.1-4.6-4.7s2.1-4.6,4.6-4.6c2.5-.1,4.6,2,4.6,4.6Z"/><path class="uuid-4a5ed056-e2f4-4664-b4c2-f2a9a78d5579" d="M245.8,111.4l-30,15.5-1.4-2.7,4.8-2.5-18.7-36.4-4.8,2.5-1.4-2.7,26-13.4-.9-1.8,3.4-1.8,5.2,10-3.3,1.7-2.3-4.6-13.1,6.8,7.7,14.9,10.1-5.2-2.2-4.3,3.4-1.8,6.4,12.4-3.4,1.8-2.3-4.4-10.1,5.2,8,15.6,13.7-7.1-2.4-4.7,3.4-1.7,4.2,8.7h0Z"/><path class="uuid-4a5ed056-e2f4-4664-b4c2-f2a9a78d5579" d="M274.7,101l-19.5,6.5-.9-2.8,5.1-1.7-12.9-38.8-5.1,1.7-.9-2.8,20.4-6.8c8.3-2.8,15.5.5,18.1,8.2,2.4,7.3-2,15.6-9.9,18.2-1.1.4-1.9.6-3.8.8l-1.1-3.3c.9-.1,1.3-.2,1.9-.4,4.6-1.5,6-5.7,4-11.7-2.1-6.3-5.7-8.8-10.5-7.2l-4,1.3,12.6,37.9,5.7-1.9.8,2.8h0Z"/><path class="uuid-4a5ed056-e2f4-4664-b4c2-f2a9a78d5579" d="M297.9,75.1l4-18.7,9.7,16.3-13.7,2.4h0ZM332.4,85.2l-2.9.5-25.1-41.7-4.3.7-10.3,47.9-4.3.7.5,2.9,14.5-2.5-.5-2.9-5.6,1,2.6-12.1,17-3,6.3,10.6-4.9.8.5,2.9,17.1-3-.6-2.8h0Z"/><path class="uuid-4a5ed056-e2f4-4664-b4c2-f2a9a78d5579" d="M352.7,45.3h4.5c5,0,8,3.3,7.9,9,0,5.6-3.4,9.5-8.3,9.5h-4.2l.1-18.5ZM381.4999,85.2h-2.9c-1.4,0-2.3-.6-3.9-3.1l-10-15.5c6.7-2,9.9-6.1,10-12.5,0-3.8-1.1-6.8-3.4-9.2-2.5-2.6-6-3.5-12.1-3.5l-21-.1v3h5.4l-.1,40.9h-5.4v3h19.9v-3h-5.3v-17.9h1.9l10.6,16.7c2.4,3.8,3.1,4.2,7.3,4.2h9v-3Z"/><path class="uuid-4a5ed056-e2f4-4664-b4c2-f2a9a78d5579" d="M413.6,93.9l-22.5-3.8.5-2.9,6.8,1.1,6.6-39.1-12.1-2-1,5.8-3.8-.6,2-11.9,3.9.7-.3,2,33.2,5.6.3-2,3.8.6-2,11.9-3.8-.7,1-5.8-12-2-6.6,39.1,6.7,1.1-.7001,2.9h0Z"/><path class="uuid-4a5ed056-e2f4-4664-b4c2-f2a9a78d5579" d="M479.9,116.3l-19.7-7.6,1.1-2.8,5.6,2.2,11.1-28.6-27,26.4-3.8-37.6-10.9,28,5.6,2.2-1.1,2.8-15.3-5.9,1.1-2.8,5.6,2.2,14.8-38.1-5.6-2.2,1.1-2.8,11.7,4.5,3.8,36.9,25.8-25.4,13.1,5.1-1.1,2.8-5.5-2.2-14.8,38.1,5.6,2.2-1.1998,2.6h-.0002Z"/><path class="uuid-4a5ed056-e2f4-4664-b4c2-f2a9a78d5579" d="M514.4999,139l-28.5-18.2,1.6-2.5,4.5,2.9,22-34.5-4.6-2.9,1.6-2.5,24.7,15.7,1.1-1.7,3.2,2.1-6.1,9.5-3.2-2,2.8-4.3-12.4-8-9,14.1,9.6,6.1,2.6-4.1,3.3,2-7.5,11.8-3.3-2,2.7-4.2-9.6-6.1-9.4,14.8,13,8.3,2.8-4.4,3.2,2.1-5.0999,8h0Z"/><path class="uuid-4a5ed056-e2f4-4664-b4c2-f2a9a78d5579" d="M199.6,109.9c-7.8-10.6-22.2-12.6-33-4.7l-17.9,13.1,1.8,2.4,4.3-3.2,24.2,32.9c1.2.4,2.3.9,3.4,1.3l11.8-8.7c5.6-4.1,8.5-8.6,9.6-14.7,1.1-6.5999-.4-13.0999-4.2-18.3999h0ZM190.5,140.9l-4.6,3.4-23.1-31.4,4.9-3.6c6.7-4.9,17.7-1.9,23.9,6.5,6.5,9,6.1,19.8-1.1,25.1h0Z"/><path class="uuid-4a5ed056-e2f4-4664-b4c2-f2a9a78d5579" d="M574.9999,129.2l-2,2.2,4.1,3.8-20,22,5.1-39.7-10.4-9.5-2,2.2,3.8,3.4-.8,4.2-25.1,27.5-4.3-4-2,2.2,11.9,10.8,2-2.2-4.1-3.8,20.9-22.9-4.5,36.4c4.3-1.1,9-2.4,14-3.8.4-.1.8-.2,1.2-.3l17.9-19.6,4.4,4,2-2.2-12.1001-10.7Z"/><path class="uuid-4a5ed056-e2f4-4664-b4c2-f2a9a78d5579" d="M622.8,180.9l-1.6,1.2-20.4-26.7,1.6-1.2-2.4-3.1-9.6,7.3,2.4,3.1,4.7-3.6,7.5,9.8-31.6,24.0001-1.6-2.1c-.9.5-1.8,1-2.7,1.3l11.7,15.3,2.4-1.8-4.1-5.4,31.5-24.1,7.4,9.7-4.7,3.6,2.4,3.1,9.6-7.3-2.5001-3.1h0Z"/><path class="uuid-4a5ed056-e2f4-4664-b4c2-f2a9a78d5579" d="M415.2,668.4l-3.8.8-2.8-12.5,3.8-.8,1.1,5.1c3.7,1.8,6.2,2.2,9.6,1.5,4.3-.9,6.9-4.2,6.1-7.8-.7-3.1-3.2-4.9-10.6-7.7-7.7-2.8-8.7-3.3-11-5-2.2-1.6-3.7-4.2-4.4-7.2-1.7-7.6,2.8-13.9,11.3-15.8,2.7-.6,4.9-.6,7.8-.1l-.5-2.1,3.7-.8,2.6,11.9-3.7.8-1.1-4.8c-3.3-1.2-5.3-1.5-7.9-1-3.6.8-5.8,4-5.1,7.2.6,2.8,2.6,4.2,10.2,6.9,3.6,1.4,5.9,2.2,6.8,2.6,1.8.8,3.6,2,5.2,3.6,1.8,1.9,2.9,4,3.5,6.7,1.7,7.9-2.8,14.7-10.9,16.5-4,.9-7.1.7-10.7-.5l.8001,2.4999h-.0001Z"/><path class="uuid-4a5ed056-e2f4-4664-b4c2-f2a9a78d5579" d="M487.4,645.7l-31.5,12.4-1.1-2.8,5-2-14.9-38.1-5,2-1.1-2.8,27.2-10.7-.7-1.9,3.6-1.4,4.1,10.5-3.5,1.4-1.9-4.8-13.8,5.4,6.1,15.6,10.6-4.2-1.8-4.5,3.5-1.5,5.1,13-3.5,1.5-1.8-4.6-10.6,4.2,6.4,16.3,14.4-5.6-1.9-4.9,3.6-1.4,3.5001,8.9h-.0002Z"/><path class="uuid-4a5ed056-e2f4-4664-b4c2-f2a9a78d5579" d="M534.7,616.9c-4,5-6.8,7.6-11.4,10.4-12.8,7.8-27.2,4.7-34.5-7.4-7.3-12-3.6-26.4,8.7-33.8,3.9-2.4,7-3.5,11.4-4.1l-1.5-2.6,3.3-2,6.6,10.9-3.3,2-2.4-3.9c-4.9-.3-7.3.2-10.5,2.1-8.4,5.1-10,15.7-3.9,25.8,6,9.8,17.1,13.6,25.5,8.5,3-1.8,4.8-3.8,6.6-7.3l-2.8-4.6,3.4-2.1,4.8,8.0999Z"/><path class="uuid-4a5ed056-e2f4-4664-b4c2-f2a9a78d5579" d="M556.1,543.6l-4.4,4,18,19.7c5.4,5.9,6.8,11.5,4.2,17.7-1.4,3.2-3.4,6.1-6.1,8.6-8.5,7.8-18.3,8.1-24.9.9l-19.3-21.2-4,3.6-2-2.2,14.7-13.4,2,2.2-3.9,3.6,17.9,19.6c4.8,5.3,8,6.8,12,5.8,1.8-.5,3.7-1.5,5.3-3,6.3-5.7,6.6-12.8.7-19.2l-17.8-19.5-4.4,4-2.1-2.3,12.2-11.1,1.9,2.2001h0Z"/><path class="uuid-4a5ed056-e2f4-4664-b4c2-f2a9a78d5579" d="M635.8,502.2l-9.5,17.5-2.6-1.4,2.6-4.8-36-19.5-2.6,4.7-2.6-1.4,9.5-17.5,2.6,1.4-2.5,4.7,36,19.5,2.5-4.7,2.6,1.5Z"/><path class="uuid-4a5ed056-e2f4-4664-b4c2-f2a9a78d5579" d="M653.9,459.7l-8.1,21.4-2.8-1,2.4-6.4-37.0001-14.1-4.3,11.5,5.5,2.1-1.4,3.7-11.3-4.3,1.4-3.7,1.9.7,11.9-31.5-1.9-.7,1.4-3.7,11.3,4.3-1.4,3.7-5.5-2.1-4.3,11.4,37.1,14,2.4-6.4,2.7,1.1Z"/><path class="uuid-4a5ed056-e2f4-4664-b4c2-f2a9a78d5579" d="M666.4999,407.4l-3.8,19.5-2.9-.6,1-5.2-19.2-3.8-23.6,9.7-.9,4.4-2.9-.6,3.8-19.5,2.9.6-1,5.2,17.2-6.9-13.5-12.3-1.2,5.9-2.9-.6,3.2-16.2,2.9.6-1,5,16.8,15.4,21,4.1,1-5.3,3.1.5999h0Z"/><path class="uuid-4a5ed056-e2f4-4664-b4c2-f2a9a78d5579" d="M618.7,527.8l-1.7,2.3c-.8,1.1-1.9,1.4-4.8,1.3l-18.4-1.1c2.3-6.6,1-11.7-4.2-15.5-3-2.2-6.2-3.2-9.4-2.7-3.6.5-6.4,2.7-10,7.6l-12.5,16.8,2.4,1.8,3.2-4.3,32.8,24.4-3.2,4.3,2.4,1.8,11.9-16-2.4-1.8-3.2,4.3-14.4-10.7,1.1-1.5,19.7,1.4c4.5.3,5.2,0,7.7-3.4l5.4-7.2-2.4-1.7999h0ZM569.4999,527.2l2.7-3.6c3-4.1,7.4-4.4,11.9-1.1,4.5,3.3,5.6,8.3,2.7,12.3l-2.5,3.4-14.8-11.0001h0Z"/><path class="uuid-4a5ed056-e2f4-4664-b4c2-f2a9a78d5579" d="M56,451.4l-4.7-19.3,2.9-.7,1.3,5.2,18.1-4.4-5.5-22.4-18.1,4.4,1.3,5.2-2.9.7-4.7-19.3,2.9-.7,1.3,5.3,39.7-9.7-1.3-5.2,2.9-.7,4.7,19.3-2.9.7-1.3-5.2-17.5,4.3,5.5,22.4,17.5-4.3-1.3-5.2,2.9-.7,4.7,19.3-2.9.7-1.3-5.2-39.7,9.7,1.3,5.3-2.9.5001h0Z"/><path class="uuid-4a5ed056-e2f4-4664-b4c2-f2a9a78d5579" d="M83.1,462.2c9.8-4.4,21-2.6,24,3.8,3,6.5-3.1,16.2-12.8,20.7-9.8,4.5-21.1,2.6-24.1-3.9-2.9-6.4999,3.1-16.1,12.9-20.6ZM98.4,495.8c12.3-5.6,17.8-19.6,12.3-31.4-5.4-11.9-19.5-16.9-31.8-11.3-12.3,5.6-17.9,19.5-12.4,31.4,5.4,11.9,19.6,16.9,31.9,11.3Z"/><path class="uuid-4a5ed056-e2f4-4664-b4c2-f2a9a78d5579" d="M116.5,563.2l-12.4-17.1,2.4-1.7,3.5,4.8,24.8-18-37,7.5,17.2-33.7-24.3,17.6,3.5,4.8-2.4,1.8-9.6-13.3,2.4-1.8,3.5,4.8,33.1-24-3.5-4.8,2.4-1.8,7.4,10.2-16.8,33,35.4-7.4,8.3,11.4-2.4,1.8-3.5-4.8-33.1,24.1,3.5,4.8-2.4,1.8h0Z"/><path class="uuid-4a5ed056-e2f4-4664-b4c2-f2a9a78d5579" d="M153.4,599.5l-24.9-22.9,2-2.2,4,3.7,27.7-30.1-4-3.7,2-2.2,21.5,19.8,1.3-1.5,2.8,2.6-7.7,8.3-2.8-2.5,3.5-3.8-10.9-10-11.3,12.3,8.4,7.7,3.3-3.6,2.9,2.5-9.5,10.3-2.9-2.5,3.4-3.7-8.4-7.7-11.9,12.9,11.3,10.4,3.6-3.9,2.8,2.6-6.2,7.2001h0Z"/><path class="uuid-4a5ed056-e2f4-4664-b4c2-f2a9a78d5579" d="M195.7,628.5l-27.8-18.7,1.7-2.5,4.5,3,22.8-33.9-4.5-3,1.7-2.5,16.5,11.1-1.7,2.5-4.4-3-22.2,32.9,12.5,8.4,2.9-4.4,3.2,2.1-5.2,8.0001h0Z"/><path class="uuid-4a5ed056-e2f4-4664-b4c2-f2a9a78d5579" d="M224,622.5l13.9-13.2-1.2,19-12.7-5.8ZM246.9,650.3l-2.7-1.2,2.8-48.6-3.9-1.8-35.5,33.7-4-1.8-1.2,2.7,13.4,6.1,1.2-2.7-5.2-2.3,9-8.6,15.7,7.1-.8,12.3-4.5-2-1.2,2.7,15.8,7.2,1.1-2.8h0Z"/><path class="uuid-4a5ed056-e2f4-4664-b4c2-f2a9a78d5579" d="M295.9999,667.1l-4.8-1.2-15.9-39.6-7.2,30.2,5.5,1.3-.7,2.9-15.6-3.7.7-2.9,5.7,1.4,8.7-36.2-1.4-4.1-5-1.2.7-2.9,13.7,3.3,14.7,37.2,6.9-28.9-5.5-1.3.7-2.9,15.6,3.7-.7,2.9-5.7-1.5-10.4,43.5h0Z"/><path class="uuid-4a5ed056-e2f4-4664-b4c2-f2a9a78d5579" d="M342.1,623.7l-22.1-.8-.1,3,5.4.2-1.5,40.9h0l-5.4-.2-.1,3,22.1.8h-.1.1c7,.3,12.1-1.5,16.7-5.6,5-4.5,7.8-10.5,8.1-17,.4-13.2-9.7001-23.8-23.1-24.3h0ZM355.1,647.6c-.4,11.1-7.4,19.3-16.4,19l-5.8-.2,1.4-39,6,.2c8.4.3,15.2,9.5,14.8,20Z"/><path class="uuid-4a5ed056-e2f4-4664-b4c2-f2a9a78d5579" d="M582.9,385.5l-17.4,5.4,3.9,1.6-6.1,3.9c.7-3.6,1.3-7.1,1.8-10.8l9.6-8,.2,4.2,10.8-14.7-16.6,7.6,4.1,1.1-7.6,6.4c.5-4.4.9-8.8,1.2-13.3l9.4-10.4.8,4.2,8.7-16-15.4,9.7,4.2.5-7.5,8.1c.1-2.8.2-5.6.2-8.4,0-21-3.1-41.3-8.8-60.5-9.5.9-19.1-2.2-23.7-3.1,12.2,7.2,16.5,14.9,18.2,23.8-9.8,2.2-22.8-1-30-6.6,7,6.1,11.4,15.7,11.7,25.7-10.1.5-19.4-4.2-26.2-11.1,4.4,4.9,9.9,17.3,8.6,26.1-8.4-.9-18.3-6.4-23.7-13,4.4,9.9,6.6,17.8,6.1,26.7-8.4-1.6-14.7-3.9-22.2-11.1,3.6,9,4.9,18,4.1,25.4-9.7-3.4-16.1-7.3-21.5-16.4,2.9,8,4.8,18.5,2.8,24.7-8.2-2.4-13.6-7.3-17.8-15.7,4.2,8.9,3.7,19.2,2.3,24.5-3.4-.7-7.9-3.1-10.3-5.7-.1,1.6-.2,3.2-.3,4.7-.4,6-1.6,11.6-3.5,16.7.7.8,2.3,2.7,2.3,2.7,4.3,4.6,10.2,9,14.8,10.5-2,.3-4.8,2-7.5,2.3,3.1,3.5,9.3,4.2,13.2,8.2-3,.3-3.7,2.5-7.4,2.1,6.9,5.4,13.3,5.6,16.9,6,1.4.2,6.1.6,9.1.1,3.6-.6,7.4.9,9.4,2l38.1-77.2-4.2.7,11.9-13.8-3.7,17.9-2-3.8-38.3,77.6c.7.9,1,2,1.1,3h.3l1.5-1.2h0l61.7-48.7-4.1-1.1,16.7-7.4-11,14.6-.2-4.3-61.2,48.3c1.6.3,3.1.9,3.6,1.6,1,1.7.8,2.5-.2,5.4-.9,2.8-1.6,3.7-3.5,4-.5.1-1.5.2-2.5-.3.6.4.9.7,1.2,1.4s.7,2-1.5,4.6c-2,2.3-3.9,3.1-5.5,2.2-.9-.5-1.2-1.1-1.6-1.5.2.6.5,1.3.6,2,.4,2.3-1.4,3.1-3.6,3.9-4.1,1.5-6.2.8-7.1-.6-2.1-3.2-.9-7.2.5-7.9-.3,1.2-.3,2.6-.1,4.1.2,1.2.8,3.2,3,3,1.2-.1,3.4-.6,4.8-1.5,1-.6,1-2.2.5-3.6-.2-.7-.5-1.7-1.3-2.4,1.4.4,2.2,1.1,3.3,2s2.7,1.1,3.6.1c1.2-1.2,1.9-2.2,2.3-3,1-2.2-1.8-3.9-3.4-4.8,2.9.1,3.3,1.2,5.7.9,2.3-.3,3-4,3-5.3,0-.9-1.1-1.8-2.4-2.1-1-.2-2.2-.3-3.1-.2,0,.3-.1.6-.2.8-.3,1.1-.8,2.4-2.7,3.4-1.1.3-1.8.4-.7-.4,1-.8,1.9-5.2-.4-7-1.7-1.3-4.1-2.3-6.9-2.2-3.1.2-7.9.4-10.3.2-2.1-.2-3.5,2.6-3.8,3.8-.8,2.8-1.6,6.3-5.7,4.5-5-2.8-12.1-2.6-20.2-5.9,1.2,2.5.7,4.7,1.9,7.4-7.2-1.8-9.1-5.5-16-7.9,1.1,2.5.8,4.5,2.4,6.9-5.8-1-11.2-6.2-19.3-8.4-.2.1-.5.2-.7.2-2.9.9-5.6,1.7-8.1,2.5,5.7,6.5,10.5,14.4,12.7,24.1,0,0-4,.1-10-2,1.7,5.2,2.8,10.9,2.9,16.9,0,0-4.5-.8-10.7-4.7.6,5.7.4,11.6-.8,17.7,0,0-5.3-2.1-11.4-8.5-.7,5.9-2.2,11.9-4.7,17.8,0,0-4.8-3.3-9.7-10.8-2,5.9-4.9,11.7-8.8,17.2,0,0-5.2-5.5-8.8-16.5-4.7,7.1-9.2,10.1-9.2,10.1-2.5-5.9-4-11.9-4.7-17.8-6.2,6.3-11.4,8.5-11.4,8.5-1.2-6.1-1.4-12.1-.8-17.8-6.2,3.8-10.8,4.7-10.8,4.7.1-6,1.2-11.7,2.9-16.9-6,2.1-10,2-10,2,2.3-9.8,8.7-19.9,13-24.5h0c-2.1-.6-4.4-1.4-6.8-2.1-.2-.1-.5-.1-.7-.2-8.1,2.2-13.5,7.4-19.3,8.4,1.6-2.4,1.2-4.3,2.4-6.9-6.9,2.4-8.7,6.1-15.9,7.9,1.2-2.8.7-4.9,1.9-7.4-6.7,3.3-15.9,5.6-20,6.4-4.5.9-4.8-5.8-6.2-7.2-.6-.6-4.3-.9-5.8-.7-2.2.4-6.6.2-9.8.1-3.2-.1-5.5.9-7.2,2.2-2.4,1.7-1.2,6.4-.2,7.2,1.1.8.4.7-.7.4-1.9-1-2.4-2.3-2.7-3.4,0-.1-.1-.3-.1-.5-.9-.1-2.4-.2-3.6.1-1.4.3-2.5,1.2-2.5,2.1,0,1.2.6,5,2.9,5.4s2.8-.7,5.7-.7c-1.7.9-4.5,2.5-3.5,4.7.4.9,1.1,1.8,2.2,3.1.9,1,2.5.8,3.6,0s1.9-1.6,3.3-1.9c-.8.7-1.2,1.7-1.4,2.3-.5,1.4-.5,3,.4,3.6,1.3.9,3.5,1.5,4.7,1.6,2.3.3,2.9-1.7,3.1-2.9.3-1.5.3-2.8,0-4.1,1.4.7,2.4,4.8.3,7.9-1,1.4-3.1,2-7.2.4-2.2-.8-3.9-1.7-3.4-4,.1-.7.4-1.4.6-2-.4.4-.7,1-1.7,1.5-1.6.9-3.5,0-5.4-2.3-2.2-2.7-1.7-3.9-1.4-4.7.3-.7.7-1,1.2-1.4-1.1.4-2,.3-2.5.2-1.8-.3-2.5-1.3-3.3-4.1-.9-2.9-1.1-3.8-.1-5.4.8-1.3,5.3-2,7.7-1.6.1-1.6.6-3.4,2.2-4.3,1.7-1,6-3.1,10.2-2.4,3,.5,7.6,0,9.1-.2,1.4-.2,11.9-2.1,18.9-7.4-3.6.4-4.4-1.8-7.4-2.1,3.9-3.9,10.1-4.7,13.2-8.2-2.8-.3-5.2-2.5-7.2-2.8,6.1-3.4,10.2-5.4,14.5-10,.1-.1,1.6-1.9,2.3-2.7-2-5.2-3.2-10.8-3.6-16.8-.1-1.4-.2-3-.3-4.5-1.5,1.7-4.6,3.3-9.6,5.1-2.3-5.7-1.2-16.3,1.8-24.5-4.2,8.4-9.1,13.8-17.2,16.2-2-6.1-.8-16.8,2.1-24.9-5.4,9.1-11.3,13.7-20.9,17.1-.8-7.4,0-17.2,3.5-26.2-7.5,7.2-13.8,9.5-22.2,11.1-.5-8.8,1.6-16.8,6.1-26.7-5.4,6.6-16.5,11.1-24.9,12,.6-7.6,6-18.1,9.1-24.2-7.9,5.7-16.4,9.8-25.5,10.3,1.1-8.7,5-18.1,11.7-25.7-7.9,5.8-19.9,9-28.9,7.7,2.2-9.5,8-18.8,16-23.8-4.6.9-12.9,2.8-22.5,1.9-5.6,18.9-8.7,38.8-8.8,59.5-4.8-3.7-8.1-4.7-11.4-7.9.6,4.5,1.2,6.9,1.7,12.5.9,9.9,4.7,15.7,10.9,19.2.3,2.8.7,5.7,1.1,8.5-4.6-3-10.8-4.8-19-4.7,5,16.2,12.1,17.4,21.7,19,.3,1.5.7,3,1,4.4-5.1-1.3-11.2-1.4-18.1.6,4.8,7.5,11.5,12,22.1,13.6,0,.0666.0333.1334.1.2-6.5-.5-13.6.4-19.3,3.3,8.1,6.9,16,9.6,23.6,8.8.4,1,.8,2,1.2,3-6,1.6-11.2,4.7-14.2,7.6,6.3,2,12.8,3.1,18.6,2.4.1.1.1.3.2.4-3.4,2.6-6.4,6.8-8.2,13.5,4.5-1.1,9.1-1.4,13.7-2.8.9,1.7,1.9,3.4,2.8,5-2.4,4.6-3.3,10.4-1.8,16.8,3.8-.9,7-2.4,9.7-4.3.9,1.3,1.8,2.7,2.8,4-1,7.4.7,14.8,5.1,19.7,1.8-2,3.2-3.9,4.4-5.8,9.5-14.5,3.8-25,4-34.4.1-.2.2-.4.2-.6.8,11.2,10.5,22.3-.9,35.8-.2.3-.4.5-.6.7,38.6,44.9,95.9,73.3,159.7,73.3,90.7,0,168-57.3,197.7-137.6l9.6-4.2-.7,4.2,13.8-11.9-17.9,3.7,3.8,2-7.4,3c1.3-3.7,2.5-7.5,3.6-11.3l10.5-5.8-.4,4.2,12.7-13.2-17.5,5.3,3.9,1.6-8.4,4.6c1.1-4.1,2.1-8.3,3-12.5l8-5.1-.3,4.2,11.8-12.5998h.0001Z"/><path class="uuid-59f1a514-04d4-458c-a283-190e09957c17" d="M486.4999,452.2c.9,0,2.1,0,3.1.2,1.3.3,2.4,1.2,2.4,2.1,0,1.2-.7,4.9-3,5.3-2.3.3-2.8-.8-5.7-.9,1.6.9,4.4,2.6,3.4,4.8-.4.9-1.1,1.8-2.3,3-1,1-2.6.8-3.6-.1-1.1-.9-1.9-1.6-3.3-2,.8.7,1.1,1.7,1.3,2.4.5,1.4.5,3-.5,3.6-1.3.9-3.6,1.4-4.8,1.5-2.3.2-2.8-1.8-3-3-.2-1.5-.3-2.8.1-4.1-1.4.7-2.6,4.7-.5,7.9,1,1.5,3,2.1,7.1.6,2.2-.8,3.9-1.6,3.6-3.9-.1-.7-.4-1.4-.6-2,.4.4.7,1,1.6,1.5,1.6.9,3.5.1,5.5-2.2,2.3-2.6,1.8-3.9,1.5-4.6-.3-.7-.7-1.1-1.2-1.4,1.1.4,2,.3,2.5.3,1.8-.2,2.5-1.2,3.5-4,1-2.9,1.2-3.7.2-5.4-.4-.7-1.9-1.3-3.6-1.6l61.2-48.3.2,4.3,11-14.6-16.7,7.4,4.1,1.1-61.6,48.9001h0l-1.5,1.2h-.3"/><polyline class="uuid-59f1a514-04d4-458c-a283-190e09957c17" points="485.4999 447.1 523.8 369.6 525.8 373.3 529.4999 355.5 517.6 369.3 521.8 368.5 483.6 445.7"/><path class="uuid-59f1a514-04d4-458c-a283-190e09957c17" d="M475.9,455.7c1.1,2,1.2,5.5.6,7.2,4-.6,4.8-4.5,5-6.5-1.2-1.5-4-1.7-5.6-.7Z"/><path class="uuid-59f1a514-04d4-458c-a283-190e09957c17" d="M475.2,456.1c-2.4-.2-3.3-1.3-3.7-2.5-.4-1.1-1.7-1.9-1.7-.1,0,1.7,0,2.5.9,3,1,.5,2.8.6,4.5-.4h0Z"/><path class="uuid-59f1a514-04d4-458c-a283-190e09957c17" d="M475.4,463.5c-.8-1.1-1.3-2.3-1.5-3.6-.5.9-1.3,3.9-1.6,6.1-.1.5,0,.7,1.3.8s2.8-.4,3.9-1.2c-.6-.7-1.5001-1.2-2.1-2.1h0Z"/><path class="uuid-59f1a514-04d4-458c-a283-190e09957c17" d="M522.2,382.3l4.2-.2-23.9,36.3c-2.8,5.7-5.5,11.2-7.9,16.1.1-.1.2-.3.4-.4l33.4-50.7,1.5,4,5.9-17.3-13.6,12.2001h0Z"/><path class="uuid-59f1a514-04d4-458c-a283-190e09957c17" d="M513.1,414.1l43.5-55,1.2,4.1,7.3-16.7-14.5,11,4.2.1-39.4,49.9c-3.1,4.7-6.4,9.7-9.4,14.3l.1.1c2.2001-2.5999,4.6-5.2,7.0001-7.7999h-.0001Z"/><path class="uuid-59f1a514-04d4-458c-a283-190e09957c17" d="M507.9,430.4c3.7-2.9,7.5-5.9,11.2-8.8l36.2-33.5.5,4.2,9.8-15.4-16,8.7,4.2.8-36.4,33.7c-3.3,3.5-6.5,7-9.5,10.3h0Z"/><path class="uuid-59f1a514-04d4-458c-a283-190e09957c17" d="M548.1,422.6l-51,25.5c-.9.7-1.6,1.3-2.1,1.6.4.3.7.6.9,1,.1.2.2.3.3.5l53-26.5-.7,4.2,13.7-12-17.9,3.8,3.8,1.9h0Z"/><path class="uuid-59f1a514-04d4-458c-a283-190e09957c17" d="M470.9999,476.6c-.8-.3-1.4-.6-2-1.2l-9.1,18.9h0l-3.3,1.1-10.8,20.7,5.2-1.6,1.9,5.1,10.2-21-1.2-3.4,9.0999-18.6h0Z"/><path class="uuid-59f1a514-04d4-458c-a283-190e09957c17" d="M506.6,440.6c3.5-1.8,7.5-3.8,11.6-5.8l33.9-22.2-.2,4.3,12.3-13.5-17.3,5.8,4,1.5-36.9,24.1c-2.6,2.1-5.1,4.0001-7.4,5.8h0Z"/><path class="uuid-59f1a514-04d4-458c-a283-190e09957c17" d="M466.9,471.5c-.3-1-.4-2.1-.3-3.1l-12.1,13.2-3.6.3-.3.3h0l-16.9,16.9h.8l-.1.1.2-.1,4.2-.2.7,4.1,14-18.4,2.7-.6,10.7-12.4999h0Z"/><path class="uuid-59f1a514-04d4-458c-a283-190e09957c17" d="M489.2,445.2c1.5-1.2,3.6-2.9,6.2-4.9l59.5-65.1.8,4.2,8.5-16.1-15.3,9.9,4.2.5-62.3,68.2c-.5,1.1-1.1,2.2999-1.6,3.2999h0Z"/><path class="uuid-59f1a514-04d4-458c-a283-190e09957c17" d="M435.9999,489.7l22.2-15.6c2.5-2.8,5.3-5.8,6.3-6.9l-27.7,18.3h0l-3.5-.7-2,1.3-17.8,11.1,5,1,.6,3.8,14.3-12.3999,2.6.1Z"/><path class="uuid-59f1a514-04d4-458c-a283-190e09957c17" d="M417.6,491.7l8.9-5.5,8.3-5.6,2.8.5s20.2-12.4,25.1-15.7c.2-.2.4-.3.4-.3h0s.1-.1.2-.1l-26.5,13.2-3.4-1-21.1,10,4.7,1.7.6,2.7999Z"/><path class="uuid-59f1a514-04d4-458c-a283-190e09957c17" d="M224,452c-2.4-.5-6.9.3-7.7,1.6-1.1,1.6-.8,2.5.1,5.4.8,2.8,1.5,3.8,3.3,4.1.5.1,1.5.2,2.5-.2-.6.4-1,.7-1.2,1.4-.3.7-.8,2,1.4,4.7,1.9,2.3,3.8,3.2,5.4,2.3.9-.5,1.2-1.1,1.7-1.5-.3.6-.5,1.3-.6,2-.4,2.3,1.3,3.2,3.4,4,4.1,1.6,6.1,1,7.2-.4,2.2-3.1,1.1-7.2-.3-7.9.3,1.2.3,2.6,0,4.1-.2,1.2-.8,3.2-3.1,2.9-1.2-.1-3.4-.7-4.7-1.6-.9-.6-.9-2.3-.4-3.6.3-.7.6-1.7,1.4-2.3-1.4.3-2.2,1-3.3,1.9-1.1.8-2.7,1-3.6,0-1.2-1.3-1.9-2.2-2.2-3.1-1-2.2,1.9-3.8,3.5-4.7-2.9,0-3.4,1.1-5.7.7-2.3-.4-2.9-4.1-2.9-5.4,0-.9,1.1-1.8,2.5-2.1,1.2-.3,2.8-.2,3.6-.1"/><path class="uuid-59f1a514-04d4-458c-a283-190e09957c17" d="M171.5,428c.5.1.4,0-.2-.2-6.4-3.6-10.9-4.8-19.6-3.6,8.2.7,14,1.8,19.8,3.8Z"/><path class="uuid-59f1a514-04d4-458c-a283-190e09957c17" d="M175.4,472.8c.9-6.1,5-13.4,10.9-18.3,4.2-3.4,6.5-4.7,3-1.1-5.2,5.6-11.3,14.4999-13.9,19.4h0Z"/><path class="uuid-59f1a514-04d4-458c-a283-190e09957c17" d="M188.4,489.5c-2.3-5.7-.3-15,2.2-21,1.7-4.2,6-10.5,7.3-11.1-4.7,7.2-9.7,26.4999-9.5,32.1Z"/><path class="uuid-59f1a514-04d4-458c-a283-190e09957c17" d="M169.4,409.3c-.4-2.2-2.6-3.6-4.7-3.1-2.2.4-3.6,2.6-3.1,4.7.4,2.2,2.6,3.6,4.7,3.1,2.1-.4,3.5-2.5,3.1-4.7Z"/><path class="uuid-59f1a514-04d4-458c-a283-190e09957c17" d="M204.3,414.9c.1-6-.8-12.2-.1-19.2-12,8.7-16,24-11.1,34.7-.5-.1-1-.1-1.5,0-2.2.5-3.7,2.6-3.2,4.9.4,2.3,2.7,3.7,4.9,3.2,2.3-.5,3.7-2.7,3.3-4.9-.2-1.1-.9-2.1-1.8-2.7-2-9.5-.4-21.3,4.6-26.3-1.6,5.9-4.4,18.3-2.5,29.8,1.9-2.2,3.4-4.4,4.5-6.5.2,1.8.7,3.7,1.4,5.6.3-9.1,3.3-18.1,12.8-24.4-6.9,8.8-10.9,19-11.7,26.7,5-6.4,16.5-8.3,17.3-33.3-5.9999,1.9-12.9999,6.1-16.8999,12.4h0Z"/><path class="uuid-59f1a514-04d4-458c-a283-190e09957c17" d="M212.2,440.6c-.5-2.4-2.8-3.9-5.1-3.4-2.4.5-3.9,2.8-3.4,5.1s2.8,3.9,5.1,3.4,3.8-2.8,3.4-5.1Z"/><path class="uuid-59f1a514-04d4-458c-a283-190e09957c17" d="M210.7,453.7c-.5-2.4-2.8-3.9-5.1-3.4s-3.9,2.8-3.4,5.1,2.8,3.9,5.1,3.4c2.3-.4,3.8-2.7,3.4-5.1Z"/><path class="uuid-59f1a514-04d4-458c-a283-190e09957c17" d="M185.5,389.5c-8.8,7.4-11.3,16.7-10.3,24.8h-1c-1.8.4-3,2.2-2.6,4s2.1,3,4,2.6c.4-.1.8-.2,1.1-.5.8,2.4,1.9,4.5,3.2,6.4-.8-2.8-1.4-5.8-1.7-8.9v-1c0-.1-.1-.1-.1-.2-.5-6.9.6-14.1,4.4-19.2-1.2,7.5-3,22.2-1.3,31.2,2.5-9.6,16.4-13.8,4.3-39.2h0Z"/><path class="uuid-59f1a514-04d4-458c-a283-190e09957c17" d="M220.8,446.5c-.4-1.8-2.1-3-4-2.7-1.8.4-3,2.2-2.7,4,.4,1.8,2.2,3,4,2.7,1.9-.4,3.1-2.2,2.7-4Z"/><path class="uuid-59f1a514-04d4-458c-a283-190e09957c17" d="M202.1,445.8c-.3-1.7-2-2.8-3.7-2.4-1.7.3-2.8,2-2.4,3.7.3,1.7,2,2.8,3.7,2.4,1.7-.3,2.8-2,2.4-3.7Z"/><path class="uuid-59f1a514-04d4-458c-a283-190e09957c17" d="M159.5,403c-.2-1.4-1.4-2.4-2.8-2.4-4.4-5.9-10.7-12.2-21.2-13.3,5.7,2.7,14.4,8,20.4,13.4-1.4.4-2.4,1.8-2.1,3.3.3,1.6,1.8,2.6,3.3,2.4,1.6-.4,2.7-1.9,2.4-3.4h0Z"/><path class="uuid-59f1a514-04d4-458c-a283-190e09957c17" d="M159.6,383.1c-.4-2-2.3-3.3-4.3-2.9-.1,0-.2.1-.3.1-2.4-9.3-4.7-16.5-15.2-23.8,5.3,6.8,11.4,16.6,14.8,23.9-1.6.6-2.5,2.3-2.2,4.1.4,2,2.3,3.3,4.3,2.9s3.3-2.4,2.9-4.3Z"/><path class="uuid-59f1a514-04d4-458c-a283-190e09957c17" d="M170.3,419.6c-.3-1.6-1.7-2.6-3.3-2.3-.8.1-1.4.6-1.8,1.1-9.3-8.2-15.8-8.3-20.7-8.5,3,1.1,13.7,4.1,20.5,8.9-.3.5-.4,1.2-.3,1.8.3,1.6,1.8,2.6,3.3,2.4,1.5-.3,2.6-1.8,2.3-3.4Z"/><path class="uuid-59f1a514-04d4-458c-a283-190e09957c17" d="M178.2,431.3c-.5-2.3-2.6-3.7-4.9-3.3-2.2.5-3.7,2.6-3.3,4.9.5,2.3,2.7,3.7,4.9,3.3,2.3-.5001,3.7-2.7,3.3-4.9Z"/><path class="uuid-59f1a514-04d4-458c-a283-190e09957c17" d="M184.2,438.4c-.3-1.6-1.8-2.6-3.3-2.3-1,.2-1.8.8-2.1,1.7-8.1-1.1-17,.1-24.4,4.2,8.4-1.9,17.1-3.7,24.2-3.7h0c-.1.4-.1.8-.1,1.2.3,1.6,1.8,2.6,3.3,2.4,1.6-.4,2.7-1.9,2.4-3.5001h0Z"/><path class="uuid-59f1a514-04d4-458c-a283-190e09957c17" d="M192.6,443.3c-.4-2-2.4-3.3-4.4-2.9-2,.4-3.3,2.4-2.9,4.4h-.3c-6-.2-16,1.4-22.2,8.6,6.3-3.7,16.3-7.5,22.4-8.4h.2c.5,1.9,2.4,3.1,4.4,2.7,1.9-.4,3.2-2.4,2.8-4.4h0Z"/><path class="uuid-59f1a514-04d4-458c-a283-190e09957c17" d="M177.2,369.5c-13.6,5.9-19.8,22.8-12.9,35.2,6.4-9.0001,18.3-10.9,12.9-35.2ZM164.4,404.1c-1.6-6.8,2.6-25,8.7-28.7-4,8.8-5.6,17-8.7,28.7Z"/><path class="uuid-59f1a514-04d4-458c-a283-190e09957c17" d="M163.5,344.2c-4.3,1.8-10.5,7.8-13.2,15.7,1.1,1.2,2,2.5,2.8,3.9,1.5-5.8,4.8-12.6,8.1-15.5-2.2,3.7-5.2,11.9-6.7,18.3,1.5,3.6,2.2,7.3,2.1,10.9,8.2-7.6,11.1-20.7,6.9-33.3h0Z"/><path class="uuid-59f1a514-04d4-458c-a283-190e09957c17" d="M245.3,462.2c17.2,12.9,26.9,30.8,29.4,45.3-2.2-1.6-6.2-3.2-8.7-2.8-2.2-15.2-10.2-27.5-22.7-37.6.6-2.2,1.3-3.8,2-4.9Z"/><path class="uuid-59f1a514-04d4-458c-a283-190e09957c17" d="M229.2,457.8c1.2-1.5,4-1.6,5.6-.6-1.1,2-1.2,5.5-.6,7.2-4-.7001-4.7-4.6-5-6.6h0Z"/><path class="uuid-59f1a514-04d4-458c-a283-190e09957c17" d="M235.5,457.6c2.4-.2,3.3-1.3,3.7-2.5.4-1.1,1.7-1.9,1.7-.1,0,1.7,0,2.5-1,3-.9.4-2.6.6-4.4-.4Z"/><path class="uuid-59f1a514-04d4-458c-a283-190e09957c17" d="M236.8,461.3c-.2,1.3-.7,2.5-1.5,3.6-.6.9-1.5,1.4-2.1,2,1.1.8,2.6,1.3,3.9,1.2s1.3-.3,1.3-.7c-.3-2.1-1.1-5.2-1.6-6.1h0Z"/></svg>