<?xml version="1.0" encoding="UTF-8"?><svg id="uuid-08cc986d-3d8f-40c9-b7be-1388cdf28e5c" xmlns="http://www.w3.org/2000/svg" viewBox="0 0 3699.2025 773.7001"><defs><style>.uuid-1cea260c-ebfb-49f0-bc70-8ba1a4a00d4b{fill:#c41230;}.uuid-1cea260c-ebfb-49f0-bc70-8ba1a4a00d4b,.uuid-6068660a-3a32-462a-9519-13d91cd1d545,.uuid-6231d089-3c1a-449a-8ea5-c0cc89045485,.uuid-0111d261-a401-4dbc-a858-2b7f624f6e7f,.uuid-7df415c4-d79d-4cca-95ab-d6a8c072ed6d,.uuid-3e943283-4e2d-48fa-8137-c72224074a31,.uuid-6c929ff2-6845-4b5b-a02d-afd65540ca9c,.uuid-6cf029d1-9a34-49a6-adc8-2d9957e035df{stroke-width:0px;}.uuid-6068660a-3a32-462a-9519-13d91cd1d545{fill:#0078ae;}.uuid-6231d089-3c1a-449a-8ea5-c0cc89045485{fill:#005288;}.uuid-0111d261-a401-4dbc-a858-2b7f624f6e7f{fill:#c0c2c4;}.uuid-7df415c4-d79d-4cca-95ab-d6a8c072ed6d{fill:#5e9732;}.uuid-3e943283-4e2d-48fa-8137-c72224074a31{fill:#057dc1;}.uuid-6c929ff2-6845-4b5b-a02d-afd65540ca9c{fill:#fff;}.uuid-6cf029d1-9a34-49a6-adc8-2d9957e035df{fill:#211e1f;}</style></defs><path class="uuid-6231d089-3c1a-449a-8ea5-c0cc89045485" d="M824.9999,553.5h42v-255.4h-42v-25.6h213.4v66.5h-25.6v-40.9h-96.2v114.1h74.7v-37.3h25.6v107h-25.6v-44h-74.7v115.6h42.5v25.6h-134.1v-25.5999h-.0001.0001ZM1064.9999,553.5h41.4v-255.4h-41.4v-25.6h214.4v66.5h-25.6v-40.9h-97.8v110.5h75.2v-37.3h25.6v106.9h-25.6v-44h-75.2v119.2h101.3v-42.9h25.6v68.5h-218v-25.4999h.1v-.0002ZM1305.9999,553.5h42v-255.4h-42v-25.6h98.2v25.6l98.3,205.2,96.7-205.2v-25.6h100.3v25.6h-41.5v255.4h41.5v25.6h-133.6v-25.6h42.5v-210.2999h-1l-110.6,235.9h-11.2l-108.5001-231.3h-1v205.7h41.4v25.6h-111.5v-25.6h0ZM1898.0001,446h-81.8999l39.3999-112.6h1l41.5,112.6ZM1726.0999,579.1h79.8v-25.6h-27.7l27.7-81.9h102.3999l29.1001,81.9h-29.1001v25.6h106.8999v-25.6h-26.6001l-108-288.6h-26.1001l-101.8,288.6h-26.6v25.6h.0004Z"/><path class="uuid-6c929ff2-6845-4b5b-a02d-afd65540ca9c" d="M356.3,60.2C159.5,60.2,0,219.7,0,416.5s159.5,356.3,356.3,356.3,356.3-159.5,356.3-356.3S553.1,60.2001,356.3,60.2001h0Z"/><path class="uuid-1cea260c-ebfb-49f0-bc70-8ba1a4a00d4b" d="M572.8,288.5c-4,1.4-8,2.5-11.9,3.3,22.2,36.3,35,79,35,124.7,0,132.3-107.3,239.6-239.6,239.6s-239.5-107.3-239.5-239.6c0-47.7,13.9-92.1,37.9-129.4-3.8-1.1-7.5-2.6-11.3-4.3-24.4,38.7-38.5,84.6-38.5,133.8,0,138.9,112.6,251.4,251.4,251.4,138.9,0,251.4-112.6,251.4-251.4.1-46.9-12.7001-90.6-34.9-128.1h0Z"/><path class="uuid-1cea260c-ebfb-49f0-bc70-8ba1a4a00d4b" d="M217,221.5c39.2-28.1,87.3-44.6,139.3-44.6,58,0,111.2,20.6,152.7,55,4.7-1.3,9.2-2.5,13.9-3.7-44.4-39.3-102.7-63.1-166.6-63.1-57.3,0-110.1,19.2-152.4,51.4,2,.7,4,1.5,6.1,2.2,2.4,1,4.8,1.9,7,2.8h0Z"/><path class="uuid-0111d261-a401-4dbc-a858-2b7f624f6e7f" d="M356.3,60.2C159.5,60.2,0,219.7,0,416.5s159.5,356.3,356.3,356.3,356.3-159.5,356.3-356.3S553.1,60.2001,356.3,60.2001h0ZM356.3,750.8c-184.6,0-334.3-149.7-334.3-334.3S171.7,82.3,356.3,82.3s334.2,149.7,334.2,334.2c0,184.6-149.6,334.3-334.2,334.3Z"/><path class="uuid-6231d089-3c1a-449a-8ea5-c0cc89045485" d="M270.3,345c-5.1-2.6-9.5-5.6-14.3-9.9-15.3-13.9-18.9-28.6-14.4-45.4,2.7-10,6.8-15.1,5.4-25.5-.8-6-5-10.8-9.3-14.9-10.2-9.8-22.3-15.9-40.3-21.9-11.1-3.7-43.2-13.7-57.4-26.5-3.2,9.4,3.7,22,11.8,23.7-7.2.7-13.4,4.5-16.3,8.6,5.5,6.3,16.4,12.9,25.4,13.1-4.2,2.8-9.2,8.7-10.9,12,7.8,4.1,20.2,7.6,29.7,7-4,3.2-7.5,7.3-9.8,11,6.5,2.9,19,7.2,31,8.1-4.4,2.2-10.7,9.7-13.9,14.3,6.7,3,21.3,4.8,30.3,5.7-6.5,3.4-13.2,10.2-17,16.3,6.5,3.1,18.9,6.6,28.9,6.3-5,4.7-8.2,10.5-10.1,16.1,7.6,1.6,15.6,1.6,24.9.4-5.6,7.1-7.9,16.6-8.7,23.3,7.6-.2,17.6-1.9,24.7-6.2-1.5,5.8-1.2,13.6,1.3,19.1,3-.7,6.4-1.9,10.2-3.9-.4-10.7-.9-21.7-1.2-30.7999h0Z"/><path class="uuid-6231d089-3c1a-449a-8ea5-c0cc89045485" d="M577.4,218.2c-14.2,12.9-36.9,16.3-60.7,24.2-17.9,5.9-29.1,9.4-45.2,22.2-4.6,3.7-9,9-8.5,18.2.5,10.3,2.2,14.7,2.5,29,.2,10.2-3.3,18.4-7.6,23.3-4.5,5.1-10.4,9.6-15.7,12.4-.3,8.7-.7,17.5-1.2,27.7,3.7,2,8.5,3.9,11.5,4.6,2.5-5.5,2.8-13.3,1.3-19.1,7.1,4.2,17.1,5.9,24.7,6.2-.8-6.7-3.1-16.2-8.7-23.3,9.3,1.2,17.3,1.2,24.9-.4-1.9-5.6-5.2-11.4-10.1-16.1,10.1.3,22.4-3.2,29-6.3-3.7-6.1-10.5-12.9-17-16.3,9-.9,24-2.7,30.7-5.7-3.3-4.6-10-12.2-14.3-14.4,12-.9,24.5-5.2,31-8.1-2.3-3.7-5.8-7.8-9.7-11,11.2-.8,22-2.8,29.7-7-1.7-3.3-6.8-9.2-10.9-12,23.8-6.8,24.2-18.8,24.3-28.1001h0Z"/><path class="uuid-6231d089-3c1a-449a-8ea5-c0cc89045485" d="M476.4,243.5c-34.1-23.7-75.4-37.5-120.1-37.5-40.7,0-78.7,11.5-110.9,31.5,8.3,6.5,13.3,13.3,14.5,20.5,1.1,6.2,1.8,13.8-1.8,24.8-3.8,11.7-5.9,23.6,2.7,35.8,8.6,12.1,19.7,17.3,28.9,19.1h0c12.1-2.1,25.5-3.9,38.8-4.9h0c1.7-5.6,6.9-10.5,12-14.5,7.5-5.8,5.8-10.9,4.1-14.9-1.4-3.1-4.1-5.6-7.9-7.6-3.4-1.7-15.7-3-15.4,4.9-2-2.8-3.6-6.7-2.4-11.7,1.7-6.9,12.9-8.6,15.7-8.4-2.2-1.8-.8-4.8,4.1-6.2,6-1.7,11.7-1.9,17.1-1.8,11.3.3,13.1,3,18.8,8.1,6.9,6.1,16,8.3,19.6,4.6-2.6,5.9-10.8,9-16,8.1,2.6,8.1,3.5,15.2,4.4,23.7.4,3.9,1.2,10.4,2.3,15.7,15.1,1.2,30.3,3.3,43.5,5.9h0c5.5-1.6,11.2-4.8,16.3-10.7,4.8-5.6,9.3-12.7,7.5-30.5-.5-5-3-17.9-2.7-23.9.7001-13.8,10.9001-22.8,26.9001-30.0999h0Z"/><path class="uuid-6231d089-3c1a-449a-8ea5-c0cc89045485" d="M336.4,281.1c2.1,1.6,3.3,1.8,4,1.6.1.4.7.9.9,1,.4.4.7.8.8,1.2.9-.4,3.5-1.4,5.7-2.2,2.3-.8,5.5-1.8,5.5-1.8-9.8-2-11.4,1-16.9.2h0Z"/><path class="uuid-6068660a-3a32-462a-9519-13d91cd1d545" d="M350.4,447.6l-4.2-2.1-2.7-7.1-6.2-2.7-6.9-6.2-4.1,4.5-6.1,1.4-3.3,5.2-5,5.2-6.7,3.6-4.6,7.9-2.6,3.5-4.5,3.5-2.5-2.6-2.7,2.6-3.4,6.2c-1.8-4.6-2.9-8.2-3.4-15.7-1-13.8-2-31.1-3-48.8,22.7-4.9,51.6-8.1,75.1-8.4v53.6c-.9999-.5-2.1-1-3.2-3.6h0Z"/><path class="uuid-7df415c4-d79d-4cca-95ab-d6a8c072ed6d" d="M353.7,473.4h-67.5c1,2.1,2.1,4,3.4,5.9,4.9,6.8,11.8,11.9,20.6,14.6,11.9,3.7,19.5,6.1,25.1,7.8l6.6,2.1c5.4,1.7,9.2,4.1,11.8,6.8v-37.2h0Z"/><path class="uuid-6231d089-3c1a-449a-8ea5-c0cc89045485" d="M424.9999,447.3c1.8-1.5,4-3.2,6.8-4.2.4-6.3.8-13,1.2-20-.7.5-1.5,1.1-2.5,1.9-3.2,2.6-7.2,5.9-14.3,5.9-6.6,0-11-2.6-14.4-4.8-2.8-1.7-5.1-3.1-8.4-3.1-3.7,0-6.8,1.9-10.1,3.9-3.6,2.1-7.6,4.6-12.6,4.6-5.1,0-8.8-1.5-11.8-3.2v19c.7.4,1.4.8,2,1.2,3,1.9,5.6,3.5,9.8,3.5,2.6,0,5.1-1.5,8.1-3.3,4-2.4,8.6-5.1,14.6-5.1,5.8,0,9.6,2.3,13,4.4,3,1.9,5.6,3.5,9.8,3.5,4.0001-.2001,6.1001-2.0001,8.8-4.2001h0Z"/><path class="uuid-6231d089-3c1a-449a-8ea5-c0cc89045485" d="M370.7,490.5c-5.1,0-8.8-1.6-11.8-3.2v23.2c2.7-2.7,6.4-5.1,11.8-6.8l6.6-2.1c5.5-1.8,13.1-4.1,25.1-7.8,3.5-1.1,6.7-2.5,9.6-4.3-4.3-.8-7.5-2.8-10.2-4.4-2.8-1.7-5.1-3.1-8.4-3.1-3.7,0-6.8,1.9-10.1,3.9-3.5999,2.1999-7.5999,4.5999-12.5999,4.5999h0Z"/><path class="uuid-6068660a-3a32-462a-9519-13d91cd1d545" d="M424.9999,418.2001c2.2-1.8,4.8-3.9,8.6-4.8.1-2.4.3-4.9.4-7.3-22.7-4.9-51.6-8.1-75.1-8.4v20.3c.7.4,1.4.8,2,1.2,3,1.9,5.6,3.5,9.8,3.5,2.6,0,5.1-1.5,8.1-3.3,4-2.4,8.6-5.1,14.6-5.1,5.8,0,9.6,2.4,13,4.4,3,1.9,5.6,3.5,9.8,3.5,4.0001-.1001,6.1001-1.8001,8.8-4.0001h0Z"/><path class="uuid-6068660a-3a32-462a-9519-13d91cd1d545" d="M358.9,457.4v19.8c.7.4,1.4.8,2,1.2,3,1.9,5.6,3.5,9.8,3.5,2.6,0,5.1-1.5,8.1-3.3,4-2.4,8.6-5.1,14.6-5.1,5.8,0,9.6,2.4,13,4.4,3,1.9,5.6,3.5,9.8,3.5,3.2,0,5.3-1.1,7.3-2.7,4.3-6.4,6.9-14.4,7.5-23.6,0-.4.1-.8.1-1.2-.2.1-.4.3-.6.5-3.2,2.6-7.2,5.9-14.3,5.9-6.6,0-11-2.6-14.4-4.8-2.8-1.8-5.1-3.1-8.4-3.1-3.7,0-6.8,1.9-10.1,3.9-3.6,2.1-7.6,4.6-12.6,4.6-5.0999-.3001-8.7999-1.9001-11.7999-3.5001h0Z"/><path class="uuid-6231d089-3c1a-449a-8ea5-c0cc89045485" d="M278.3,400.9c-1.1-19.7-2-39.6-2.6-55.3,23.9-5.4,55.7-9,80.6-9s56.7,3.6,80.6,9c-.6,15.7-1.5,35.5-2.6,55.3-22.6-4.8-52.4-8.3-78-8.3s-55.5,3.6-78,8.3Z"/><polygon class="uuid-6c929ff2-6845-4b5b-a02d-afd65540ca9c" points="293.9999 358.7001 294.9 354.5 290.9 352.7001 295.2 352.2001 295.7 347.9 297.4 351.9 301.6 351 298.4 353.9 300.6 357.7001 296.9 355.5 293.9999 358.7001"/><polygon class="uuid-6c929ff2-6845-4b5b-a02d-afd65540ca9c" points="320.3 355.2001 316.6 352.9 313.6 356 314.7 351.8 310.8 349.8 315.1 349.5 315.8 345.2001 317.4 349.3 321.6 348.6 318.3 351.3 320.3 355.2001"/><polygon class="uuid-6c929ff2-6845-4b5b-a02d-afd65540ca9c" points="339.9999 353.7001 336.4999 351.2001 333.3 354.1 334.6 349.9 330.9 347.8 335.2 347.8 335.9999 343.5 337.4 347.6 341.7 347.1 338.2 349.7001 339.9999 353.7001"/><polygon class="uuid-6c929ff2-6845-4b5b-a02d-afd65540ca9c" points="359.7 353.3 356.4 350.5 352.9999 353.3 354.6 349.2001 350.9 346.8 355.2 347 356.4 342.9 357.4999 347 361.8 346.8 358.2 349.2001 359.7 353.3"/><polygon class="uuid-6c929ff2-6845-4b5b-a02d-afd65540ca9c" points="415.8 355.5 412.1 357.7001 414.3 353.9 411.1 351 415.3 351.9 416.9999 347.9 417.4999 352.2001 421.8 352.7001 417.8 354.5 418.7 358.7001 415.8 355.5"/><polygon class="uuid-6c929ff2-6845-4b5b-a02d-afd65540ca9c" points="394.4 351.4 391.1 348.6 395.3 349.3 396.9 345.2001 397.4999 349.5 401.8 349.8 397.9999 351.8 399.1 356 395.9999 352.9 392.4 355.2001 394.4 351.4"/><polygon class="uuid-6c929ff2-6845-4b5b-a02d-afd65540ca9c" points="374.4999 349.7001 371.1 347.2001 375.3 347.6 376.7 343.5 377.6 347.8 381.9 347.8 378.1 350 379.4 354.1 376.2 351.2001 372.7 353.7001 374.4999 349.7001"/><polygon class="uuid-6c929ff2-6845-4b5b-a02d-afd65540ca9c" points="296.9 390.6 297.8 386.4 293.8 384.6 298.1 384.1 298.6 379.8 300.3 383.8 304.6 383 301.3 385.8 303.4999 389.6 299.8 387.4 296.9 390.6"/><polygon class="uuid-6c929ff2-6845-4b5b-a02d-afd65540ca9c" points="322.4 387.4 318.8 385 315.8 388.1 316.9 383.9 312.9999 381.9 317.4 381.7001 317.9999 377.4 319.6 381.4 323.8 380.8 320.4999 383.5 322.4 387.4"/><polygon class="uuid-6c929ff2-6845-4b5b-a02d-afd65540ca9c" points="341.4 386 337.9 383.5 334.7 386.4 335.9999 382.2001 332.3 380.1 336.6 380.1 337.4999 375.8 338.8 379.9 343.1 379.5 339.6 382 341.4 386"/><polygon class="uuid-6c929ff2-6845-4b5b-a02d-afd65540ca9c" points="360.4 385.7001 356.9999 382.9 353.7 385.7001 355.2 381.6 351.6 379.2001 355.9 379.4 356.9999 375.2001 358.1 379.4 362.4 379.2001 358.8 381.6 360.4 385.7001"/><polygon class="uuid-6c929ff2-6845-4b5b-a02d-afd65540ca9c" points="414.3 387.6 410.6 389.8 412.7 386.1 409.4999 383.2001 413.7 384 415.4 380.1 415.9 384.4 420.2 384.8 416.3 386.6 417.2 390.9 414.3 387.6"/><polygon class="uuid-6c929ff2-6845-4b5b-a02d-afd65540ca9c" points="393.6 383.7001 390.2 380.9 394.4999 381.6 395.9999 377.5 396.7 381.8 400.9999 382.1 397.2 384 398.3 388.3 395.2 385.2001 391.6 387.5 393.6 383.7001"/><polygon class="uuid-6c929ff2-6845-4b5b-a02d-afd65540ca9c" points="374.4 382.1 370.9999 379.5 375.2 380 376.6 375.9 377.4999 380.1 381.8 380.2001 377.9999 382.3 379.3 386.5 376.1 383.5 372.6 386.1 374.4 382.1"/><polygon class="uuid-6c929ff2-6845-4b5b-a02d-afd65540ca9c" points="306.3 371.8 307.3 367.5 303.4 365.6 307.7 365.3 308.3 361 309.9 365 314.1 364.3 310.9 367.1 312.9 370.9 309.2 368.6 306.3 371.8"/><polygon class="uuid-6c929ff2-6845-4b5b-a02d-afd65540ca9c" points="287.4 374.8 288.3 370.5 284.3 368.7001 288.6 368.3 288.9999 363.9 290.8 367.9 294.9999 367 291.8 369.9 293.9999 373.7001 290.3 371.5 287.4 374.8"/><polygon class="uuid-6c929ff2-6845-4b5b-a02d-afd65540ca9c" points="331.8 369.1 328.2 366.7001 325.1 369.7001 326.3 365.5 322.4999 363.4 326.8 363.3 327.6 359 329.1 363.1 333.3 362.5 329.9 365.2001 331.8 369.1"/><polygon class="uuid-6c929ff2-6845-4b5b-a02d-afd65540ca9c" points="350.7 368.2001 347.3 365.6 343.9999 368.4 345.4 364.3 341.7 362.1 345.9999 362.1 346.9999 357.9 348.2 362.1 352.4999 361.7001 348.9999 364.2001 350.7 368.2001"/><polygon class="uuid-6c929ff2-6845-4b5b-a02d-afd65540ca9c" points="369.6 368.5 366.3 365.6 362.9 368.2001 364.6 364.2001 360.9999 361.7001 365.3 362.1 366.6 357.9 367.6 362.2001 371.9 362.1 368.2 364.3 369.6 368.5"/><polygon class="uuid-6c929ff2-6845-4b5b-a02d-afd65540ca9c" points="423.3 371.7001 419.4999 373.8 421.8 370 418.6 367.1 422.8 368 424.7 364.1 424.9999 368.4 429.3 369 425.3 370.7001 426.1 375 423.3 371.7001"/><polygon class="uuid-6c929ff2-6845-4b5b-a02d-afd65540ca9c" points="402.7 367.2001 399.4 364.4 403.7 365.2001 405.3 361.1 405.9 365.5 410.2 365.8 406.3 367.7001 407.3 371.9 404.3 368.8 400.6 371.1 402.7 367.2001"/><polygon class="uuid-6c929ff2-6845-4b5b-a02d-afd65540ca9c" points="383.6 365.3 380.2 362.6 384.4999 363.2001 385.9999 359.1 386.7 363.4 390.9999 363.5 387.2 365.6 388.4 369.8 385.3 366.7001 381.8 369.2001 383.6 365.3"/><path class="uuid-6231d089-3c1a-449a-8ea5-c0cc89045485" d="M620.4,288.4c9.8-4.3,21.1-2.3,23.9,4.2,2.9,6.6-3.3,16.2-13.1,20.5-9.9,4.3-21.1,2.4-24-4.2s3.2999-16.2,13.2-20.5h0ZM635.2,322.2001c12.4-5.4,18-19.3,12.8-31.3-5.3-12-19.2-17.2-31.6-11.7-12.4,5.4-18.2,19.3-12.9,31.2,5.2,11.9999,19.3,17.3,31.7,11.8Z"/><path class="uuid-6231d089-3c1a-449a-8ea5-c0cc89045485" d="M617.8,354.6l-4.7-18.7,2.9-.7,1.3,5.2,39.6-10.1-1.3-5.2,2.9-.7,7.2,28.4,1.9-.5.9,3.7-10.9,2.8-.9-3.6,5-1.3-3.6-14.3-16.2,4.1,2.8,11,4.7-1.2,1,3.7-13.5,3.4-1-3.7,4.8-1.2-2.8-11-18.2,4.6,1.2,4.6-3.1.7h0Z"/><path class="uuid-6231d089-3c1a-449a-8ea5-c0cc89045485" d="M63.5,304.3l-1.7,5.7,25.6,7.6c7.7,2.3,11.7,6.4,12.7,13,.5,3.4.2,7-.8,10.5-3.3,11-11.5,16.4-20.9,13.6l-27.5-8.2-1.5,5.2-2.9-.8,5.7-19.1,2.9.9-1.5,5.1,25.4,7.6c6.9,2,10.4,1.8,13.2-1.2,1.3-1.4,2.4-3.2,3-5.3,2.4-8.2-1-14.4-9.3-16.8l-25.3-7.5-1.7,5.7-2.9-.9,4.7-15.8,2.7999.7h.0001Z"/><path class="uuid-6231d089-3c1a-449a-8ea5-c0cc89045485" d="M108.5,315.4c-1,2.4-3.8,3.6-6.2,2.5-2.4-1-3.6-3.8-2.5-6.2,1-2.4,3.8-3.6,6.2-2.5,2.4,1.0001,3.5,3.8,2.5,6.2Z"/><path class="uuid-6231d089-3c1a-449a-8ea5-c0cc89045485" d="M117.4,295.1l-1.9,3.4-11.1-6.3,1.9-3.4,4.6,2.6c3.8-1.5,5.8-3.2,7.5-6.2,2.2-3.8,1.4-7.9-1.8-9.7-2.8-1.6-5.8-.9-12.7,2.8-7.2,3.9-8.3,4.3-11,4.9-2.7.5-5.6,0-8.3-1.6-6.8-3.8-8.5-11.4-4.3-18.9,1.4-2.4,2.8-4.1,5.1-5.9l-1.9-1,1.9-3.3,10.6,5.9-1.9,3.3-4.3-2.4c-3.1,1.7-4.7,3-6,5.3-1.8,3.2-.9,7,2,8.6,2.5,1.4,4.8.8,11.9-3,3.5-1.8,5.6-3,6.5-3.4,1.8-.9,3.9-1.4,6.1-1.5,2.6-.1,4.9.5,7.3,1.9,7.1,4,9.1,11.9,5,19.1-2,3.6-4.2,5.8-7.5,7.7,0,0,2.3,1.1,2.3,1.1Z"/><path class="uuid-6231d089-3c1a-449a-8ea5-c0cc89045485" d="M136,263c0,2.6-2.1,4.7-4.6,4.7-2.6,0-4.6-2.1-4.6-4.7s2.1-4.6,4.6-4.6c2.5-.1,4.6,2,4.6,4.6Z"/><path class="uuid-6231d089-3c1a-449a-8ea5-c0cc89045485" d="M245.8,171.6l-30,15.5-1.4-2.7,4.8-2.5-18.7-36.4-4.8,2.5-1.4-2.7,26-13.4-.9-1.8,3.4-1.8,5.2,10-3.3,1.7-2.3-4.6-13.1,6.8,7.7,14.9,10.1-5.2-2.2-4.3,3.4-1.8,6.4,12.4-3.4,1.8-2.3-4.4-10.1,5.2,8,15.6,13.7-7.1-2.4-4.7,3.4-1.7,4.2,8.7h0Z"/><path class="uuid-6231d089-3c1a-449a-8ea5-c0cc89045485" d="M274.7,161.2l-19.5,6.5-.9-2.8,5.1-1.7-12.9-38.8-5.1,1.7-.9-2.8,20.4-6.8c8.3-2.8,15.5.5,18.1,8.2,2.4,7.3-2,15.6-9.9,18.2-1.1.4-1.9.6-3.8.8l-1.1-3.3c.9-.1,1.3-.2,1.9-.4,4.6-1.5,6-5.7,4-11.7-2.1-6.3-5.7-8.8-10.5-7.2l-4,1.3,12.6,37.9,5.7-1.9.8,2.8h0Z"/><path class="uuid-6231d089-3c1a-449a-8ea5-c0cc89045485" d="M297.9,135.3l4-18.7,9.7,16.3-13.7,2.4h0ZM332.4,145.4l-2.9.5-25.1-41.7-4.3.7-10.3,47.9-4.3.7.5,2.9,14.5-2.5-.5-2.9-5.6,1,2.6-12.1,17-3,6.3,10.6-4.9.8.5,2.9,17.1-3-.6-2.8h0Z"/><path class="uuid-6231d089-3c1a-449a-8ea5-c0cc89045485" d="M352.7,105.5h4.5c5,0,8,3.3,7.9,9,0,5.6-3.4,9.5-8.3,9.5h-4.2l.1-18.5ZM381.4999,145.4h-2.9c-1.4,0-2.3-.6-3.9-3.1l-10-15.5c6.7-2,9.9-6.1,10-12.5,0-3.8-1.1-6.8-3.4-9.2-2.5-2.6-6-3.5-12.1-3.5l-21-.1v3h5.4l-.1,40.9h-5.4v3h19.9v-3h-5.3v-17.9h1.9l10.6,16.7c2.4,3.8,3.1,4.2,7.3,4.2h9v-3Z"/><path class="uuid-6231d089-3c1a-449a-8ea5-c0cc89045485" d="M413.6,154.1l-22.5-3.8.5-2.9,6.8,1.1,6.6-39.1-12.1-2-1,5.8-3.8-.6,2-11.9,3.9.7-.3,2,33.2,5.6.3-2,3.8.6-2,11.9-3.8-.7,1-5.8-12-2-6.6,39.1,6.7,1.1-.7001,2.9h0Z"/><path class="uuid-6231d089-3c1a-449a-8ea5-c0cc89045485" d="M479.9,176.5l-19.7-7.6,1.1-2.8,5.6,2.2,11.1-28.6-27,26.4-3.8-37.6-10.9,28,5.6,2.2-1.1,2.8-15.3-5.9,1.1-2.8,5.6,2.2,14.8-38.1-5.6-2.2,1.1-2.8,11.7,4.5,3.8,36.9,25.8-25.4,13.1,5.1-1.1,2.8-5.5-2.2-14.8,38.1,5.6,2.2-1.1998,2.6h-.0002Z"/><path class="uuid-6231d089-3c1a-449a-8ea5-c0cc89045485" d="M514.4999,199.2l-28.5-18.2,1.6-2.5,4.5,2.9,22-34.5-4.6-2.9,1.6-2.5,24.7,15.7,1.1-1.7,3.2,2.1-6.1,9.5-3.2-2,2.8-4.3-12.4-8-9,14.1,9.6,6.1,2.6-4.1,3.3,2-7.5,11.8-3.3-2,2.7-4.2-9.6-6.1-9.4,14.8,13,8.3,2.8-4.4,3.2,2.1-5.0999,8h0Z"/><path class="uuid-6231d089-3c1a-449a-8ea5-c0cc89045485" d="M199.6,170.1c-7.8-10.6-22.2-12.6-33-4.7l-17.9,13.1,1.8,2.4,4.3-3.2,24.2,32.9c1.2.4,2.3.9,3.4,1.3l11.8-8.7c5.6-4.1,8.5-8.6,9.6-14.7,1.1-6.5999-.4-13.0999-4.2-18.3999h0ZM190.5,201.1l-4.6,3.4-23.1-31.4,4.9-3.6c6.7-4.9,17.7-1.9,23.9,6.5,6.5,9,6.1,19.8-1.1,25.1h0Z"/><path class="uuid-6231d089-3c1a-449a-8ea5-c0cc89045485" d="M574.9999,189.4l-2,2.2,4.1,3.8-20,22,5.1-39.7-10.4-9.5-2,2.2,3.8,3.4-.8,4.2-25.1,27.5-4.3-4-2,2.2,11.9,10.8,2-2.2-4.1-3.8,20.9-22.9-4.5,36.4c4.3-1.1,9-2.4,14-3.8.4-.1.8-.2,1.2-.3l17.9-19.6,4.4,4,2-2.2-12.1001-10.7Z"/><path class="uuid-6231d089-3c1a-449a-8ea5-c0cc89045485" d="M622.8,241.1l-1.6,1.2-20.4-26.7,1.6-1.2-2.4-3.1-9.6,7.3,2.4,3.1,4.7-3.6,7.5,9.8-31.6,24.0001-1.6-2.1c-.9.5-1.8,1-2.7,1.3l11.7,15.3,2.4-1.8-4.1-5.4,31.5-24.1,7.4,9.7-4.7,3.6,2.4,3.1,9.6-7.3-2.5001-3.1h0Z"/><path class="uuid-6231d089-3c1a-449a-8ea5-c0cc89045485" d="M415.2,728.6l-3.8.8-2.8-12.5,3.8-.8,1.1,5.1c3.7,1.8,6.2,2.2,9.6,1.5,4.3-.9,6.9-4.2,6.1-7.8-.7-3.1-3.2-4.9-10.6-7.7-7.7-2.8-8.7-3.3-11-5-2.2-1.6-3.7-4.2-4.4-7.2-1.7-7.6,2.8-13.9,11.3-15.8,2.7-.6,4.9-.6,7.8-.1l-.5-2.1,3.7-.8,2.6,11.9-3.7.8-1.1-4.8c-3.3-1.2-5.3-1.5-7.9-1-3.6.8-5.8,4-5.1,7.2.6,2.8,2.6,4.2,10.2,6.9,3.6,1.4,5.9,2.2,6.8,2.6,1.8.8,3.6,2,5.2,3.6,1.8,1.9,2.9,4,3.5,6.7,1.7,7.9-2.8,14.7-10.9,16.5-4,.9-7.1.7-10.7-.5l.8001,2.4999h-.0001Z"/><path class="uuid-6231d089-3c1a-449a-8ea5-c0cc89045485" d="M487.4,705.9l-31.5,12.4-1.1-2.8,5-2-14.9-38.1-5,2-1.1-2.8,27.2-10.7-.7-1.9,3.6-1.4,4.1,10.5-3.5,1.4-1.9-4.8-13.8,5.4,6.1,15.6,10.6-4.2-1.8-4.5,3.5-1.5,5.1,13-3.5,1.5-1.8-4.6-10.6,4.2,6.4,16.3,14.4-5.6-1.9-4.9,3.6-1.4,3.5001,8.9h-.0002Z"/><path class="uuid-6231d089-3c1a-449a-8ea5-c0cc89045485" d="M534.7,677.1c-4,5-6.8,7.6-11.4,10.4-12.8,7.8-27.2,4.7-34.5-7.4-7.3-12-3.6-26.4,8.7-33.8,3.9-2.4,7-3.5,11.4-4.1l-1.5-2.6,3.3-2,6.6,10.9-3.3,2-2.4-3.9c-4.9-.3-7.3.2-10.5,2.1-8.4,5.1-10,15.7-3.9,25.8,6,9.8,17.1,13.6,25.5,8.5,3-1.8,4.8-3.8,6.6-7.3l-2.8-4.6,3.4-2.1,4.8,8.0999Z"/><path class="uuid-6231d089-3c1a-449a-8ea5-c0cc89045485" d="M556.1,603.8l-4.4,4,18,19.7c5.4,5.9,6.8,11.5,4.2,17.7-1.4,3.2-3.4,6.1-6.1,8.6-8.5,7.8-18.3,8.1-24.9.9l-19.3-21.2-4,3.6-2-2.2,14.7-13.4,2,2.2-3.9,3.6,17.9,19.6c4.8,5.3,8,6.8,12,5.8,1.8-.5,3.7-1.5,5.3-3,6.3-5.7,6.6-12.8.7-19.2l-17.8-19.5-4.4,4-2.1-2.3,12.2-11.1,1.9,2.2001h0Z"/><path class="uuid-6231d089-3c1a-449a-8ea5-c0cc89045485" d="M635.8,562.4l-9.5,17.5-2.6-1.4,2.6-4.8-36-19.5-2.6,4.7-2.6-1.4,9.5-17.5,2.6,1.4-2.5,4.7,36,19.5,2.5-4.7,2.6,1.5Z"/><path class="uuid-6231d089-3c1a-449a-8ea5-c0cc89045485" d="M653.9,519.9l-8.1,21.4-2.8-1,2.4-6.4-37.0001-14.1-4.3,11.5,5.5,2.1-1.4,3.7-11.3-4.3,1.4-3.7,1.9.7,11.9-31.5-1.9-.7,1.4-3.7,11.3,4.3-1.4,3.7-5.5-2.1-4.3,11.4,37.1,14,2.4-6.4,2.7,1.1Z"/><path class="uuid-6231d089-3c1a-449a-8ea5-c0cc89045485" d="M666.4999,467.6l-3.8,19.5-2.9-.6,1-5.2-19.2-3.8-23.6,9.7-.9,4.4-2.9-.6,3.8-19.5,2.9.6-1,5.2,17.2-6.9-13.5-12.3-1.2,5.9-2.9-.6,3.2-16.2,2.9.6-1,5,16.8,15.4,21,4.1,1-5.3,3.1.5999h0Z"/><path class="uuid-6231d089-3c1a-449a-8ea5-c0cc89045485" d="M618.7,588l-1.7,2.3c-.8,1.1-1.9,1.4-4.8,1.3l-18.4-1.1c2.3-6.6,1-11.7-4.2-15.5-3-2.2-6.2-3.2-9.4-2.7-3.6.5-6.4,2.7-10,7.6l-12.5,16.8,2.4,1.8,3.2-4.3,32.8,24.4-3.2,4.3,2.4,1.8,11.9-16-2.4-1.8-3.2,4.3-14.4-10.7,1.1-1.5,19.7,1.4c4.5.3,5.2,0,7.7-3.4l5.4-7.2-2.4-1.7999h0ZM569.4999,587.4l2.7-3.6c3-4.1,7.4-4.4,11.9-1.1,4.5,3.3,5.6,8.3,2.7,12.3l-2.5,3.4-14.8-11.0001h0Z"/><path class="uuid-6231d089-3c1a-449a-8ea5-c0cc89045485" d="M56,511.6l-4.7-19.3,2.9-.7,1.3,5.2,18.1-4.4-5.5-22.4-18.1,4.4,1.3,5.2-2.9.7-4.7-19.3,2.9-.7,1.3,5.3,39.7-9.7-1.3-5.2,2.9-.7,4.7,19.3-2.9.7-1.3-5.2-17.5,4.3,5.5,22.4,17.5-4.3-1.3-5.2,2.9-.7,4.7,19.3-2.9.7-1.3-5.2-39.7,9.7,1.3,5.3-2.9.5001h0Z"/><path class="uuid-6231d089-3c1a-449a-8ea5-c0cc89045485" d="M83.1,522.4c9.8-4.4,21-2.6,24,3.8,3,6.5-3.1,16.2-12.8,20.7-9.8,4.5-21.1,2.6-24.1-3.9-2.9-6.4999,3.1-16.1,12.9-20.6ZM98.4,556c12.3-5.6,17.8-19.6,12.3-31.4-5.4-11.9-19.5-16.9-31.8-11.3-12.3,5.6-17.9,19.5-12.4,31.4,5.4,11.9,19.6,16.9,31.9,11.3Z"/><path class="uuid-6231d089-3c1a-449a-8ea5-c0cc89045485" d="M116.5,623.4l-12.4-17.1,2.4-1.7,3.5,4.8,24.8-18-37,7.5,17.2-33.7-24.3,17.6,3.5,4.8-2.4,1.8-9.6-13.3,2.4-1.8,3.5,4.8,33.1-24-3.5-4.8,2.4-1.8,7.4,10.2-16.8,33,35.4-7.4,8.3,11.4-2.4,1.8-3.5-4.8-33.1,24.1,3.5,4.8-2.4,1.8h0Z"/><path class="uuid-6231d089-3c1a-449a-8ea5-c0cc89045485" d="M153.4,659.7001l-24.9-22.9,2-2.2,4,3.7,27.7-30.1-4-3.7,2-2.2,21.5,19.8,1.3-1.5,2.8,2.6-7.7,8.3-2.8-2.5,3.5-3.8-10.9-10-11.3,12.3,8.4,7.7,3.3-3.6,2.9,2.5-9.5,10.3-2.9-2.5,3.4-3.7-8.4-7.7-11.9,12.9,11.3,10.4,3.6-3.9,2.8,2.6-6.2,7.2001h0Z"/><path class="uuid-6231d089-3c1a-449a-8ea5-c0cc89045485" d="M195.7,688.7001l-27.8-18.7,1.7-2.5,4.5,3,22.8-33.9-4.5-3,1.7-2.5,16.5,11.1-1.7,2.5-4.4-3-22.2,32.9,12.5,8.4,2.9-4.4,3.2,2.1-5.2,8.0001h0Z"/><path class="uuid-6231d089-3c1a-449a-8ea5-c0cc89045485" d="M224,682.7001l13.9-13.2-1.2,19-12.7-5.8ZM246.9,710.5l-2.7-1.2,2.8-48.6-3.9-1.8-35.5,33.7-4-1.8-1.2,2.7,13.4,6.1,1.2-2.7-5.2-2.3,9-8.6,15.7,7.1-.8,12.3-4.5-2-1.2,2.7,15.8,7.2,1.1-2.8h0Z"/><path class="uuid-6231d089-3c1a-449a-8ea5-c0cc89045485" d="M295.9999,727.3l-4.8-1.2-15.9-39.6-7.2,30.2,5.5,1.3-.7,2.9-15.6-3.7.7-2.9,5.7,1.4,8.7-36.2-1.4-4.1-5-1.2.7-2.9,13.7,3.3,14.7,37.2,6.9-28.9-5.5-1.3.7-2.9,15.6,3.7-.7,2.9-5.7-1.5-10.4,43.5h0Z"/><path class="uuid-6231d089-3c1a-449a-8ea5-c0cc89045485" d="M342.1,683.9l-22.1-.8-.1,3,5.4.2-1.5,40.9h0l-5.4-.2-.1,3,22.1.8h-.1.1c7,.3,12.1-1.5,16.7-5.6,5-4.5,7.8-10.5,8.1-17,.4-13.2-9.7001-23.8-23.1-24.3h0ZM355.1,707.8c-.4,11.1-7.4,19.3-16.4,19l-5.8-.2,1.4-39,6,.2c8.4.3,15.2,9.5,14.8,20Z"/><path class="uuid-6231d089-3c1a-449a-8ea5-c0cc89045485" d="M582.9,445.7001l-17.4,5.4,3.9,1.6-6.1,3.9c.7-3.6,1.3-7.1,1.8-10.8l9.6-8,.2,4.2,10.8-14.7-16.6,7.6,4.1,1.1-7.6,6.4c.5-4.4.9-8.8,1.2-13.3l9.4-10.4.8,4.2,8.7-16-15.4,9.7,4.2.5-7.5,8.1c.1-2.8.2-5.6.2-8.4,0-21-3.1-41.3-8.8-60.5-9.5.9-19.1-2.2-23.7-3.1,12.2,7.2,16.5,14.9,18.2,23.8-9.8,2.2-22.8-1-30-6.6,7,6.1,11.4,15.7,11.7,25.7-10.1.5-19.4-4.2-26.2-11.1,4.4,4.9,9.9,17.3,8.6,26.1-8.4-.9-18.3-6.4-23.7-13,4.4,9.9,6.6,17.8,6.1,26.7-8.4-1.6-14.7-3.9-22.2-11.1,3.6,9,4.9,18,4.1,25.4-9.7-3.4-16.1-7.3-21.5-16.4,2.9,8,4.8,18.5,2.8,24.7-8.2-2.4-13.6-7.3-17.8-15.7,4.2,8.9,3.7,19.2,2.3,24.5-3.4-.7-7.9-3.1-10.3-5.7-.1,1.6-.2,3.2-.3,4.7-.4,6-1.6,11.6-3.5,16.7.7.8,2.3,2.7,2.3,2.7,4.3,4.6,10.2,9,14.8,10.5-2,.3-4.8,2-7.5,2.3,3.1,3.5,9.3,4.2,13.2,8.2-3,.3-3.7,2.5-7.4,2.1,6.9,5.4,13.3,5.6,16.9,6,1.4.2,6.1.6,9.1.1,3.6-.6,7.4.9,9.4,2l38.1-77.2-4.2.7,11.9-13.8-3.7,17.9-2-3.8-38.3,77.6c.7.9,1,2,1.1,3h.3l1.5-1.2h0l61.7-48.7-4.1-1.1,16.7-7.4-11,14.6-.2-4.3-61.2,48.3c1.6.3,3.1.9,3.6,1.6,1,1.7.8,2.5-.2,5.4-.9,2.8-1.6,3.7-3.5,4-.5.1-1.5.2-2.5-.3.6.4.9.7,1.2,1.4s.7,2-1.5,4.6c-2,2.3-3.9,3.1-5.5,2.2-.9-.5-1.2-1.1-1.6-1.5.2.6.5,1.3.6,2,.4,2.3-1.4,3.1-3.6,3.9-4.1,1.5-6.2.8-7.1-.6-2.1-3.2-.9-7.2.5-7.9-.3,1.2-.3,2.6-.1,4.1.2,1.2.8,3.2,3,3,1.2-.1,3.4-.6,4.8-1.5,1-.6,1-2.2.5-3.6-.2-.7-.5-1.7-1.3-2.4,1.4.4,2.2,1.1,3.3,2s2.7,1.1,3.6.1c1.2-1.2,1.9-2.2,2.3-3,1-2.2-1.8-3.9-3.4-4.8,2.9.1,3.3,1.2,5.7.9,2.3-.3,3-4,3-5.3,0-.9-1.1-1.8-2.4-2.1-1-.2-2.2-.3-3.1-.2,0,.3-.1.6-.2.8-.3,1.1-.8,2.4-2.7,3.4-1.1.3-1.8.4-.7-.4,1-.8,1.9-5.2-.4-7-1.7-1.3-4.1-2.3-6.9-2.2-3.1.2-7.9.4-10.3.2-2.1-.2-3.5,2.6-3.8,3.8-.8,2.8-1.6,6.3-5.7,4.5-5-2.8-12.1-2.6-20.2-5.9,1.2,2.5.7,4.7,1.9,7.4-7.2-1.8-9.1-5.5-16-7.9,1.1,2.5.8,4.5,2.4,6.9-5.8-1-11.2-6.2-19.3-8.4-.2.1-.5.2-.7.2-2.9.9-5.6,1.7-8.1,2.5,5.7,6.5,10.5,14.4,12.7,24.1,0,0-4,.1-10-2,1.7,5.2,2.8,10.9,2.9,16.9,0,0-4.5-.8-10.7-4.7.6,5.7.4,11.6-.8,17.7,0,0-5.3-2.1-11.4-8.5-.7,5.9-2.2,11.9-4.7,17.8,0,0-4.8-3.3-9.7-10.8-2,5.9-4.9,11.7-8.8,17.2,0,0-5.2-5.5-8.8-16.5-4.7,7.1-9.2,10.1-9.2,10.1-2.5-5.9-4-11.9-4.7-17.8-6.2,6.3-11.4,8.5-11.4,8.5-1.2-6.1-1.4-12.1-.8-17.8-6.2,3.8-10.8,4.7-10.8,4.7.1-6,1.2-11.7,2.9-16.9-6,2.1-10,2-10,2,2.3-9.8,8.7-19.9,13-24.5h0c-2.1-.6-4.4-1.4-6.8-2.1-.2-.1-.5-.1-.7-.2-8.1,2.2-13.5,7.4-19.3,8.4,1.6-2.4,1.2-4.3,2.4-6.9-6.9,2.4-8.7,6.1-15.9,7.9,1.2-2.8.7-4.9,1.9-7.4-6.7,3.3-15.9,5.6-20,6.4-4.5.9-4.8-5.8-6.2-7.2-.6-.6-4.3-.9-5.8-.7-2.2.4-6.6.2-9.8.1-3.2-.1-5.5.9-7.2,2.2-2.4,1.7-1.2,6.4-.2,7.2,1.1.8.4.7-.7.4-1.9-1-2.4-2.3-2.7-3.4,0-.1-.1-.3-.1-.5-.9-.1-2.4-.2-3.6.1-1.4.3-2.5,1.2-2.5,2.1,0,1.2.6,5,2.9,5.4s2.8-.7,5.7-.7c-1.7.9-4.5,2.5-3.5,4.7.4.9,1.1,1.8,2.2,3.1.9,1,2.5.8,3.6,0s1.9-1.6,3.3-1.9c-.8.7-1.2,1.7-1.4,2.3-.5,1.4-.5,3,.4,3.6,1.3.9,3.5,1.5,4.7,1.6,2.3.3,2.9-1.7,3.1-2.9.3-1.5.3-2.8,0-4.1,1.4.7,2.4,4.8.3,7.9-1,1.4-3.1,2-7.2.4-2.2-.8-3.9-1.7-3.4-4,.1-.7.4-1.4.6-2-.4.4-.7,1-1.7,1.5-1.6.9-3.5,0-5.4-2.3-2.2-2.7-1.7-3.9-1.4-4.7.3-.7.7-1,1.2-1.4-1.1.4-2,.3-2.5.2-1.8-.3-2.5-1.3-3.3-4.1-.9-2.9-1.1-3.8-.1-5.4.8-1.3,5.3-2,7.7-1.6.1-1.6.6-3.4,2.2-4.3,1.7-1,6-3.1,10.2-2.4,3,.5,7.6,0,9.1-.2,1.4-.2,11.9-2.1,18.9-7.4-3.6.4-4.4-1.8-7.4-2.1,3.9-3.9,10.1-4.7,13.2-8.2-2.8-.3-5.2-2.5-7.2-2.8,6.1-3.4,10.2-5.4,14.5-10,.1-.1,1.6-1.9,2.3-2.7-2-5.2-3.2-10.8-3.6-16.8-.1-1.4-.2-3-.3-4.5-1.5,1.7-4.6,3.3-9.6,5.1-2.3-5.7-1.2-16.3,1.8-24.5-4.2,8.4-9.1,13.8-17.2,16.2-2-6.1-.8-16.8,2.1-24.9-5.4,9.1-11.3,13.7-20.9,17.1-.8-7.4,0-17.2,3.5-26.2-7.5,7.2-13.8,9.5-22.2,11.1-.5-8.8,1.6-16.8,6.1-26.7-5.4,6.6-16.5,11.1-24.9,12,.6-7.6,6-18.1,9.1-24.2-7.9,5.7-16.4,9.8-25.5,10.3,1.1-8.7,5-18.1,11.7-25.7-7.9,5.8-19.9,9-28.9,7.7,2.2-9.5,8-18.8,16-23.8-4.6.9-12.9,2.8-22.5,1.9-5.6,18.9-8.7,38.8-8.8,59.5-4.8-3.7-8.1-4.7-11.4-7.9.6,4.5,1.2,6.9,1.7,12.5.9,9.9,4.7,15.7,10.9,19.2.3,2.8.7,5.7,1.1,8.5-4.6-3-10.8-4.8-19-4.7,5,16.2,12.1,17.4,21.7,19,.3,1.5.7,3,1,4.4-5.1-1.3-11.2-1.4-18.1.6,4.8,7.5,11.5,12,22.1,13.6,0,.0666.0333.1334.1.2-6.5-.5-13.6.4-19.3,3.3,8.1,6.9,16,9.6,23.6,8.8.4,1,.8,2,1.2,3-6,1.6-11.2,4.7-14.2,7.6,6.3,2,12.8,3.1,18.6,2.4.1.1.1.3.2.4-3.4,2.6-6.4,6.8-8.2,13.5,4.5-1.1,9.1-1.4,13.7-2.8.9,1.7,1.9,3.4,2.8,5-2.4,4.6-3.3,10.4-1.8,16.8,3.8-.9,7-2.4,9.7-4.3.9,1.3,1.8,2.7,2.8,4-1,7.4.7,14.8,5.1,19.7,1.8-2,3.2-3.9,4.4-5.8,9.5-14.5,3.8-25,4-34.4.1-.2.2-.4.2-.6.8,11.2,10.5,22.3-.9,35.8-.2.3-.4.5-.6.7,38.6,44.9,95.9,73.3,159.7,73.3,90.7,0,168-57.3,197.7-137.6l9.6-4.2-.7,4.2,13.8-11.9-17.9,3.7,3.8,2-7.4,3c1.3-3.7,2.5-7.5,3.6-11.3l10.5-5.8-.4,4.2,12.7-13.2-17.5,5.3,3.9,1.6-8.4,4.6c1.1-4.1,2.1-8.3,3-12.5l8-5.1-.3,4.2,11.8-12.5998h.0001Z"/><path class="uuid-6c929ff2-6845-4b5b-a02d-afd65540ca9c" d="M486.4999,512.4c.9,0,2.1,0,3.1.2,1.3.3,2.4,1.2,2.4,2.1,0,1.2-.7,4.9-3,5.3-2.3.3-2.8-.8-5.7-.9,1.6.9,4.4,2.6,3.4,4.8-.4.9-1.1,1.8-2.3,3-1,1-2.6.8-3.6-.1-1.1-.9-1.9-1.6-3.3-2,.8.7,1.1,1.7,1.3,2.4.5,1.4.5,3-.5,3.6-1.3.9-3.6,1.4-4.8,1.5-2.3.2-2.8-1.8-3-3-.2-1.5-.3-2.8.1-4.1-1.4.7-2.6,4.7-.5,7.9,1,1.5,3,2.1,7.1.6,2.2-.8,3.9-1.6,3.6-3.9-.1-.7-.4-1.4-.6-2,.4.4.7,1,1.6,1.5,1.6.9,3.5.1,5.5-2.2,2.3-2.6,1.8-3.9,1.5-4.6-.3-.7-.7-1.1-1.2-1.4,1.1.4,2,.3,2.5.3,1.8-.2,2.5-1.2,3.5-4,1-2.9,1.2-3.7.2-5.4-.4-.7-1.9-1.3-3.6-1.6l61.2-48.3.2,4.3,11-14.6-16.7,7.4,4.1,1.1-61.6,48.9001h0l-1.5,1.2h-.3"/><polyline class="uuid-6c929ff2-6845-4b5b-a02d-afd65540ca9c" points="485.4999 507.3 523.8 429.8 525.8 433.5 529.4999 415.7001 517.6 429.5 521.8 428.7001 483.6 505.9"/><path class="uuid-6c929ff2-6845-4b5b-a02d-afd65540ca9c" d="M475.9,515.9c1.1,2,1.2,5.5.6,7.2,4-.6,4.8-4.5,5-6.5-1.2-1.5-4-1.7-5.6-.7Z"/><path class="uuid-6c929ff2-6845-4b5b-a02d-afd65540ca9c" d="M475.2,516.3c-2.4-.2-3.3-1.3-3.7-2.5-.4-1.1-1.7-1.9-1.7-.1,0,1.7,0,2.5.9,3,1,.5,2.8.6,4.5-.4h0Z"/><path class="uuid-6c929ff2-6845-4b5b-a02d-afd65540ca9c" d="M475.4,523.7001c-.8-1.1-1.3-2.3-1.5-3.6-.5.9-1.3,3.9-1.6,6.1-.1.5,0,.7,1.3.8s2.8-.4,3.9-1.2c-.6-.7-1.5001-1.2-2.1-2.1h0Z"/><path class="uuid-6c929ff2-6845-4b5b-a02d-afd65540ca9c" d="M522.2,442.5l4.2-.2-23.9,36.3c-2.8,5.7-5.5,11.2-7.9,16.1.1-.1.2-.3.4-.4l33.4-50.7,1.5,4,5.9-17.3-13.6,12.2001h0Z"/><path class="uuid-6c929ff2-6845-4b5b-a02d-afd65540ca9c" d="M513.1,474.3l43.5-55,1.2,4.1,7.3-16.7-14.5,11,4.2.1-39.4,49.9c-3.1,4.7-6.4,9.7-9.4,14.3l.1.1c2.2001-2.5999,4.6-5.2,7.0001-7.7999h-.0001Z"/><path class="uuid-6c929ff2-6845-4b5b-a02d-afd65540ca9c" d="M507.9,490.6c3.7-2.9,7.5-5.9,11.2-8.8l36.2-33.5.5,4.2,9.8-15.4-16,8.7,4.2.8-36.4,33.7c-3.3,3.5-6.5,7-9.5,10.3h0Z"/><path class="uuid-6c929ff2-6845-4b5b-a02d-afd65540ca9c" d="M548.1,482.8l-51,25.5c-.9.7-1.6,1.3-2.1,1.6.4.3.7.6.9,1,.1.2.2.3.3.5l53-26.5-.7,4.2,13.7-12-17.9,3.8,3.8,1.9h0Z"/><path class="uuid-6c929ff2-6845-4b5b-a02d-afd65540ca9c" d="M470.9999,536.8c-.8-.3-1.4-.6-2-1.2l-9.1,18.9h0l-3.3,1.1-10.8,20.7,5.2-1.6,1.9,5.1,10.2-21-1.2-3.4,9.0999-18.6h0Z"/><path class="uuid-6c929ff2-6845-4b5b-a02d-afd65540ca9c" d="M506.6,500.8c3.5-1.8,7.5-3.8,11.6-5.8l33.9-22.2-.2,4.3,12.3-13.5-17.3,5.8,4,1.5-36.9,24.1c-2.6,2.1-5.1,4.0001-7.4,5.8h0Z"/><path class="uuid-6c929ff2-6845-4b5b-a02d-afd65540ca9c" d="M466.9,531.7001c-.3-1-.4-2.1-.3-3.1l-12.1,13.2-3.6.3-.3.3h0l-16.9,16.9h.8l-.1.1.2-.1,4.2-.2.7,4.1,14-18.4,2.7-.6,10.7-12.4999h0Z"/><path class="uuid-6c929ff2-6845-4b5b-a02d-afd65540ca9c" d="M489.2,505.4c1.5-1.2,3.6-2.9,6.2-4.9l59.5-65.1.8,4.2,8.5-16.1-15.3,9.9,4.2.5-62.3,68.2c-.5,1.1-1.1,2.2999-1.6,3.2999h0Z"/><path class="uuid-6c929ff2-6845-4b5b-a02d-afd65540ca9c" d="M435.9999,549.9l22.2-15.6c2.5-2.8,5.3-5.8,6.3-6.9l-27.7,18.3h0l-3.5-.7-2,1.3-17.8,11.1,5,1,.6,3.8,14.3-12.3999,2.6.1Z"/><path class="uuid-6c929ff2-6845-4b5b-a02d-afd65540ca9c" d="M417.6,551.9l8.9-5.5,8.3-5.6,2.8.5s20.2-12.4,25.1-15.7c.2-.2.4-.3.4-.3h0s.1-.1.2-.1l-26.5,13.2-3.4-1-21.1,10,4.7,1.7.6,2.7999Z"/><path class="uuid-6c929ff2-6845-4b5b-a02d-afd65540ca9c" d="M224,512.2001c-2.4-.5-6.9.3-7.7,1.6-1.1,1.6-.8,2.5.1,5.4.8,2.8,1.5,3.8,3.3,4.1.5.1,1.5.2,2.5-.2-.6.4-1,.7-1.2,1.4-.3.7-.8,2,1.4,4.7,1.9,2.3,3.8,3.2,5.4,2.3.9-.5,1.2-1.1,1.7-1.5-.3.6-.5,1.3-.6,2-.4,2.3,1.3,3.2,3.4,4,4.1,1.6,6.1,1,7.2-.4,2.2-3.1,1.1-7.2-.3-7.9.3,1.2.3,2.6,0,4.1-.2,1.2-.8,3.2-3.1,2.9-1.2-.1-3.4-.7-4.7-1.6-.9-.6-.9-2.3-.4-3.6.3-.7.6-1.7,1.4-2.3-1.4.3-2.2,1-3.3,1.9-1.1.8-2.7,1-3.6,0-1.2-1.3-1.9-2.2-2.2-3.1-1-2.2,1.9-3.8,3.5-4.7-2.9,0-3.4,1.1-5.7.7-2.3-.4-2.9-4.1-2.9-5.4,0-.9,1.1-1.8,2.5-2.1,1.2-.3,2.8-.2,3.6-.1"/><path class="uuid-6c929ff2-6845-4b5b-a02d-afd65540ca9c" d="M171.5,488.2001c.5.1.4,0-.2-.2-6.4-3.6-10.9-4.8-19.6-3.6,8.2.7,14,1.8,19.8,3.8Z"/><path class="uuid-6c929ff2-6845-4b5b-a02d-afd65540ca9c" d="M175.4,533c.9-6.1,5-13.4,10.9-18.3,4.2-3.4,6.5-4.7,3-1.1-5.2,5.6-11.3,14.4999-13.9,19.4h0Z"/><path class="uuid-6c929ff2-6845-4b5b-a02d-afd65540ca9c" d="M188.4,549.7001c-2.3-5.7-.3-15,2.2-21,1.7-4.2,6-10.5,7.3-11.1-4.7,7.2-9.7,26.4999-9.5,32.1Z"/><path class="uuid-6c929ff2-6845-4b5b-a02d-afd65540ca9c" d="M169.4,469.5c-.4-2.2-2.6-3.6-4.7-3.1-2.2.4-3.6,2.6-3.1,4.7.4,2.2,2.6,3.6,4.7,3.1,2.1-.4,3.5-2.5,3.1-4.7Z"/><path class="uuid-6c929ff2-6845-4b5b-a02d-afd65540ca9c" d="M204.3,475.1c.1-6-.8-12.2-.1-19.2-12,8.7-16,24-11.1,34.7-.5-.1-1-.1-1.5,0-2.2.5-3.7,2.6-3.2,4.9.4,2.3,2.7,3.7,4.9,3.2,2.3-.5,3.7-2.7,3.3-4.9-.2-1.1-.9-2.1-1.8-2.7-2-9.5-.4-21.3,4.6-26.3-1.6,5.9-4.4,18.3-2.5,29.8,1.9-2.2,3.4-4.4,4.5-6.5.2,1.8.7,3.7,1.4,5.6.3-9.1,3.3-18.1,12.8-24.4-6.9,8.8-10.9,19-11.7,26.7,5-6.4,16.5-8.3,17.3-33.3-5.9999,1.9-12.9999,6.1-16.8999,12.4h0Z"/><path class="uuid-6c929ff2-6845-4b5b-a02d-afd65540ca9c" d="M212.2,500.8c-.5-2.4-2.8-3.9-5.1-3.4-2.4.5-3.9,2.8-3.4,5.1s2.8,3.9,5.1,3.4,3.8-2.8,3.4-5.1Z"/><path class="uuid-6c929ff2-6845-4b5b-a02d-afd65540ca9c" d="M210.7,513.9c-.5-2.4-2.8-3.9-5.1-3.4s-3.9,2.8-3.4,5.1,2.8,3.9,5.1,3.4c2.3-.4,3.8-2.7,3.4-5.1Z"/><path class="uuid-6c929ff2-6845-4b5b-a02d-afd65540ca9c" d="M185.5,449.7001c-8.8,7.4-11.3,16.7-10.3,24.8h-1c-1.8.4-3,2.2-2.6,4s2.1,3,4,2.6c.4-.1.8-.2,1.1-.5.8,2.4,1.9,4.5,3.2,6.4-.8-2.8-1.4-5.8-1.7-8.9v-1c0-.1-.1-.1-.1-.2-.5-6.9.6-14.1,4.4-19.2-1.2,7.5-3,22.2-1.3,31.2,2.5-9.6,16.4-13.8,4.3-39.2h0Z"/><path class="uuid-6c929ff2-6845-4b5b-a02d-afd65540ca9c" d="M220.8,506.7001c-.4-1.8-2.1-3-4-2.7-1.8.4-3,2.2-2.7,4,.4,1.8,2.2,3,4,2.7,1.9-.4,3.1-2.2,2.7-4Z"/><path class="uuid-6c929ff2-6845-4b5b-a02d-afd65540ca9c" d="M202.1,506c-.3-1.7-2-2.8-3.7-2.4-1.7.3-2.8,2-2.4,3.7.3,1.7,2,2.8,3.7,2.4,1.7-.3,2.8-2,2.4-3.7Z"/><path class="uuid-6c929ff2-6845-4b5b-a02d-afd65540ca9c" d="M159.5,463.2001c-.2-1.4-1.4-2.4-2.8-2.4-4.4-5.9-10.7-12.2-21.2-13.3,5.7,2.7,14.4,8,20.4,13.4-1.4.4-2.4,1.8-2.1,3.3.3,1.6,1.8,2.6,3.3,2.4,1.6-.4,2.7-1.9,2.4-3.4h0Z"/><path class="uuid-6c929ff2-6845-4b5b-a02d-afd65540ca9c" d="M159.6,443.3c-.4-2-2.3-3.3-4.3-2.9-.1,0-.2.1-.3.1-2.4-9.3-4.7-16.5-15.2-23.8,5.3,6.8,11.4,16.6,14.8,23.9-1.6.6-2.5,2.3-2.2,4.1.4,2,2.3,3.3,4.3,2.9s3.3-2.4,2.9-4.3Z"/><path class="uuid-6c929ff2-6845-4b5b-a02d-afd65540ca9c" d="M170.3,479.8c-.3-1.6-1.7-2.6-3.3-2.3-.8.1-1.4.6-1.8,1.1-9.3-8.2-15.8-8.3-20.7-8.5,3,1.1,13.7,4.1,20.5,8.9-.3.5-.4,1.2-.3,1.8.3,1.6,1.8,2.6,3.3,2.4,1.5-.3,2.6-1.8,2.3-3.4Z"/><path class="uuid-6c929ff2-6845-4b5b-a02d-afd65540ca9c" d="M178.2,491.5c-.5-2.3-2.6-3.7-4.9-3.3-2.2.5-3.7,2.6-3.3,4.9.5,2.3,2.7,3.7,4.9,3.3,2.3-.5001,3.7-2.7,3.3-4.9Z"/><path class="uuid-6c929ff2-6845-4b5b-a02d-afd65540ca9c" d="M184.2,498.6c-.3-1.6-1.8-2.6-3.3-2.3-1,.2-1.8.8-2.1,1.7-8.1-1.1-17,.1-24.4,4.2,8.4-1.9,17.1-3.7,24.2-3.7h0c-.1.4-.1.8-.1,1.2.3,1.6,1.8,2.6,3.3,2.4,1.6-.4,2.7-1.9,2.4-3.5001h0Z"/><path class="uuid-6c929ff2-6845-4b5b-a02d-afd65540ca9c" d="M192.6,503.5c-.4-2-2.4-3.3-4.4-2.9-2,.4-3.3,2.4-2.9,4.4h-.3c-6-.2-16,1.4-22.2,8.6,6.3-3.7,16.3-7.5,22.4-8.4h.2c.5,1.9,2.4,3.1,4.4,2.7,1.9-.4,3.2-2.4,2.8-4.4h0Z"/><path class="uuid-6c929ff2-6845-4b5b-a02d-afd65540ca9c" d="M177.2,429.7001c-13.6,5.9-19.8,22.8-12.9,35.2,6.4-9.0001,18.3-10.9,12.9-35.2ZM164.4,464.3c-1.6-6.8,2.6-25,8.7-28.7-4,8.8-5.6,17-8.7,28.7Z"/><path class="uuid-6c929ff2-6845-4b5b-a02d-afd65540ca9c" d="M163.5,404.4c-4.3,1.8-10.5,7.8-13.2,15.7,1.1,1.2,2,2.5,2.8,3.9,1.5-5.8,4.8-12.6,8.1-15.5-2.2,3.7-5.2,11.9-6.7,18.3,1.5,3.6,2.2,7.3,2.1,10.9,8.2-7.6,11.1-20.7,6.9-33.3h0Z"/><path class="uuid-6c929ff2-6845-4b5b-a02d-afd65540ca9c" d="M245.3,522.4c17.2,12.9,26.9,30.8,29.4,45.3-2.2-1.6-6.2-3.2-8.7-2.8-2.2-15.2-10.2-27.5-22.7-37.6.6-2.2,1.3-3.8,2-4.9Z"/><path class="uuid-6c929ff2-6845-4b5b-a02d-afd65540ca9c" d="M229.2,518c1.2-1.5,4-1.6,5.6-.6-1.1,2-1.2,5.5-.6,7.2-4-.7001-4.7-4.6-5-6.6h0Z"/><path class="uuid-6c929ff2-6845-4b5b-a02d-afd65540ca9c" d="M235.5,517.8c2.4-.2,3.3-1.3,3.7-2.5.4-1.1,1.7-1.9,1.7-.1,0,1.7,0,2.5-1,3-.9.4-2.6.6-4.4-.4Z"/><path class="uuid-6c929ff2-6845-4b5b-a02d-afd65540ca9c" d="M236.8,521.5c-.2,1.3-.7,2.5-1.5,3.6-.6.9-1.5,1.4-2.1,2,1.1.8,2.6,1.3,3.9,1.2s1.3-.3,1.3-.7c-.3-2.1-1.1-5.2-1.6-6.1h0Z"/><path class="uuid-3e943283-4e2d-48fa-8137-c72224074a31" d="M3547.2998,479.3c-42.7-4.7-87.1001-29-124.8-48.3-34-17.3-78.6001-25-116.8-16.6-32.3,7.1-55.6001,18.1-84.7,32.6-61.8,30.8-112.7,44.7-182,19.1-36.8-13.7-63.8999-30.9-113.7-47.2-46.3999-15.1-90-6-135.3999,13.3-21.7,9.2-41.6001,20.3-62.1001,31v41.3c19.1001-10.1,29.5-14.7,55.3-28.1,34.2-17.6,87-33.3,125.5-25,39,8.3,73.8999,29.5,110.3,44.4,65.7,26.8,124.5,26.6,187.3999-3,28.3-13.3,61.3-29.5,91.8999-37.6,37-9.7,79.1001-7.6,113,9.3,34.8999,17.3,76.1001,40.9,114.7,48.6,28.5,5.8,69.5,4.4,100.2-4.5v-37.3c-26.8997,7.5-50.0996,11.1-78.7998,8ZM2910.0999,518.5c38.8999,8.3,74.1001,30.9,110.8,45.1,56.3,21.8,130.3999,20.7,191.3-6,28.7-12.6,56.8-27.3,87.5-35.3,36.8999-9.6,79-7.6,113,9.3,34.8,17.4,76,40.9,114.6001,48.7,28,5.5,68.1001,4.3,98.6001-4.2v-37.1c-25.7,7.4-46.5,11.6-74.5,8.6-42.8-4.6-88.8999-29.1-126.8999-48.3-33.8999-17.3-80.3999-23.8-118.5-15.4-32.3999,7.1-54.6001,15.4-83.5,30.4-52.2,26.9-119.1001,42-181.8999,19-36.8999-13.4-65.6001-35.5-116.2-49.4-38.5-10.5-83-7.5-132.8999,15.5-22,10.1-42.6001,20.8-63.7,31.9v41.3c20.2-10.7,30.3-15.3,56.8999-28.9,34.0994-17.8,86.8994-33.4999,125.3994-25.2h0ZM3625.8999,404.3c-26.8,7.9-48.2,12.5-77.2,9.5-42.8999-4.7-76.3-25.6-114.1001-44.8-33.8999-17.3-93.2-27.3-131.3999-18.9-32.3,7.1-54.2,15.9-83.5,30.3-61.6001,30.8-109.8999,50.4-180.3,21.9-36.3999-14.7-67.2-38.5-117.8-52.2-38.5-10.5-97.7-1.3-133,15.5-20.8999,10-40.8999,19.9-61,30.5v41.3c18.5-9.7,28.8-14.4,54.2-27.6,34.3-17.7,87.1001-33.3,125.5-25,38.8999,8.3,76.8999,32.2,113.3,47,65.7,26.9,114.8,27.7,177.5-2,28.3999-13.3,68-33.2,98.7-41.3,37-9.7,81.3999-7.8,115.5,9.2,34.8,17.4,77,40.8,115.6001,48.5,28.8999,5.9,67.2,4.5,97.8999-4.7v-37.2h.1001Z"/><path class="uuid-6cf029d1-9a34-49a6-adc8-2d9957e035df" d="M2779.5,688.5h14.8999v-85.6h-14.8999v46c0,6.3.3,12.1,1.1001,17.5-2.8-7.5-6.1001-14.3-9.6001-20.6l-24.6001-42.9h-17.2v85.6h14.8999v-47.3c0-6.4-.2-12.1-1-17.4,3.6001,9.2,6.8999,16.1,9.6001,20.5l26.8,44.2ZM2846.7,602.9h-20.1001l-25.8,85.6h15.3l5.3999-18.7h29.5l5.3,18.7h16.1001l-25.7-85.6ZM2825.5,656.1l10.8-38.3,10.8999,38.3h-21.7ZM2903.2,688.5v-71.4h22.5v-14.2h-61.2v14.2h22.5v71.4h16.2ZM2933.7998,602.9h16.3v85.6h-16.3v-85.6ZM2996.5999,601.9c-22,0-35.5,16.1-35.5,43.9,0,27.9,13.6001,44,35.5,44s35.5-16.2,35.5-44-13.5-43.9-35.5-43.9ZM2996.5999,675.4c-12.5,0-19.1001-10-19.1001-29.6,0-19.5,6.6001-29.7,19.1001-29.7s19.2,10.2,19.2,29.7c0,19.6-6.7,29.6-19.2,29.6ZM3107.5999,602.9h-15v46c0,6.3.3999,12.1,1.2,17.5-2.8-7.5-6.2-14.3-9.7-20.6l-24.7-42.9h-17v85.6h14.8999v-47.3c0-6.4-.2-12.1-1.1001-17.4,3.7,9.2,7,16.1,9.7,20.5l26.7,44.2h15v-85.6h.0002ZM3114,688.5h15.3l5.3999-18.7h29.6001l5.2,18.7h16.2l-25.8-85.6h-20.1001l-25.7998,85.6ZM3160.3999,656.1h-21.7l10.8-38.3,10.8999,38.3ZM3192.2,602.9v85.6h52.5v-14.7h-36.2v-70.9h-16.3ZM3303.2,616.8h37.8v-13.9h-54v85.6h16.2v-37.7h28.5999v-13.9h-28.5999v-20.1ZM3348.5999,602.9v85.6h52.6001v-14.7h-36.2v-70.9h-16.4001ZM3403.2,645.8c0,27.9,13.6001,44,35.5,44s35.5-16.2,35.5-44-13.6001-43.9-35.5-43.9c-22,0-35.5,16.1-35.5,43.9ZM3457.8999,645.8c0,19.6-6.8,29.6-19.2,29.6-12.6001,0-19.2-10-19.2-29.6,0-19.5,6.6001-29.7,19.2-29.7,12.5,0,19.2,10.2,19.2,29.7ZM3480.0999,645.8c0,27.9,13.7,44,35.6001,44,21.8,0,35.5-16.2,35.5-44s-13.6001-43.9-35.5-43.9c-22,0-35.6001,16.1-35.6001,43.9ZM3534.8999,645.8c0,19.6-6.8,29.6-19.2,29.6-12.6001,0-19.3-10-19.3-29.6,0-19.5,6.7-29.7,19.3-29.7,12.3999,0,19.2,10.2,19.2,29.7ZM3627.7998,645.4c0-28-13.7-42.5-40.1001-42.5h-26.2v85.6h25.6001c27.1001,0,40.7-14.4999,40.7-43.1ZM3577.7998,674.4v-57.2h8.5c17.3,0,25.2,8.8,25.2,28.2,0,20.4-7.3,29-25,29h-8.7ZM2729.5,708h12.3v64.6h-12.3v-64.6ZM2791.7998,742.8c0,4.7.3,9.1.8999,13-2.1001-5.6-4.6001-10.7-7.3-15.4l-18.5-32.4h-13v64.6h11.3v-35.7c0-4.7-.2-9.2-.8-13,2.8,6.9,5.2,12,7.3,15.5l20.1001,33.3h11.3v-64.6h-11.3v34.7001ZM2840.2998,735.5c-10.2-4.4-16.5-5.4-16.5-11.4,0-4.2,3.2-6.9,8.5-6.9,5.5,0,8.8999,2.5,11.6001,8.2l11-3.9c-3.3999-9.4-10.8-14.2-21.8-14.2-12.8,0-21,7.4-21,17.6,0,6.1,2.7,11.1,7.5,14.2,4.3,2.7,9.6001,4.4,15.3999,6.7,6.7,2.5,9.6001,4.7,9.6001,9,0,4.9-3.8999,8.1-10.5,8.1-5.8,0-9.8-3-13.1001-9.8l-11,4.8c4.2,10.2,12.5,15.5,24.3999,15.5,13.8,0,21.8999-7.5,21.8999-19.2.0002-9.9999-5.2996-14.1999-15.9998-18.6999ZM2900.8999,749.3c0,9.5-3.2,13.6-12.7,13.6-9,0-12.2-4.4-12.2-13.6v-41.3h-12.2v40.9c0,16.6,7.8999,24.7,24.3999,24.7,15.8,0,24.5-8.1,24.5-22.8v-42.8h-11.8v41.2999ZM2970.3999,727.3c0-13.1-8-19.3-24.3-19.3h-21.8v64.6h11.8999v-26.2h11.1001l12.5,26.2h13l-14.2-29c7.5-2.1,11.8-7.8,11.8-16.3ZM2946.7,736.1h-10.5v-17.9h10.5c7.7,0,11.3999,2.6,11.3999,8.9s-3.5999,9-11.3999,9ZM2996.2,708l-19.3999,64.6h11.5l4-14.1h22.3999l3.8999,14.1h12.1001l-19.3999-64.6h-15.1001ZM2995.2998,748.2001l8.1001-28.9,8.3,28.9h-16.4001ZM3074.3999,742.8c0,4.7.3,9.1.8999,13-2.1001-5.6-4.6001-10.7-7.3-15.4l-18.6001-32.4h-12.8999v64.6h11.3v-35.7c0-4.7-.2-9.2-.8-13,2.7,6.9,5.2,12,7.3,15.5l20.2,33.3h11.2v-64.6h-11.2998v34.7001ZM3119.7998,762.9c-9.2,0-13.3-7.3-13.3-22.2,0-15.5,4.3-23.4,13.1001-23.4,5.8,0,9.7,3.3,11.3,9.5l11.1001-2.7c-2.3999-10.9-10.1001-17-21.7-17-16.5,0-26.1001,11.9-26.1001,33.5,0,21.8,8.7,33,25.3999,33,12.2,0,20.6001-6.1,23.8-17.2l-11.2-3.1c-1.7,6.0001-6.5,9.6-12.4001,9.6h0ZM3162.2,744.1h21.8999v-10.3h-21.8999v-15.3h29.8999v-10.5h-41.8999v64.6h43.2v-11h-31.2v-17.5ZM3252.2998,708h-23v64.6h12.2v-26.1h12c14,0,21.3-6.7,21.3-19.3.1001-12.9-7.3999-19.2-22.5-19.2ZM3250.7,736.3h-9.1001v-18.2h9.1001c8.2,0,12.1001,2.1,12.1001,9.1-.0002,6.9-3.9001,9.1-12.1001,9.1h0ZM3328.0999,727.3c0-13.1-8-19.3-24.2-19.3h-21.8v64.6h11.8999v-26.2h11.2l12.3,26.2h13.1001l-14.2-29c7.6001-2.1,11.7-7.8,11.7-16.3ZM3304.5999,736.1h-10.6001v-17.9h10.6001c7.6001,0,11.3999,2.6,11.3999,8.9.0002,6.3-3.7998,9-11.3999,9ZM3361.0999,707.2001c-16.6001,0-26.8,12.2-26.8,33.3,0,20.9,10.3,33.2,26.8,33.2s26.8-12.2,26.8-33.2c0-21.1-10.3-33.3-26.8-33.3ZM3361.0999,762.7001c-9.3999,0-14.5-7.6-14.5-22.3,0-14.9,5.1001-22.4,14.5-22.4s14.5,7.6,14.5,22.4-5.0999,22.3-14.5,22.3ZM3420,750h12.1001c-1.1001,8.1-6,12.9-12.8,12.9-8.6001,0-13.8-7.8-13.8-22.6,0-15.2,5-23,14.1001-23,5.6001,0,9.5,3,12,9l11-2.7c-3.2-10.6-11.2-16.4-22.7-16.4-16.7,0-26.8,11.8-26.8,32.4,0,21.6,9.3999,34,24.6001,34,7.5,0,12.8999-2.4,17-7.8l.7,6.8h8.6001v-32.8h-24v10.2h-.0002ZM3500.2998,727.3c0-13.1-8-19.3-24.2-19.3h-21.8999v64.6h11.8999v-26.2h11.1001l12.3999,26.2h13.1001l-14.3-29c7.7-2.1,11.8999-7.8,11.8999-16.3ZM3476.7998,736.1h-10.6001v-17.9h10.6001c7.7,0,11.3,2.6,11.3,8.9s-3.5999,9-11.3,9ZM3526.2,708l-19.5,64.6h11.5l4.2-14.1h22.2l4,14.1h12.1001l-19.5-64.6h-15ZM3525.2998,748.2001l8.3-28.9,8.2,28.9h-16.5ZM3600.8999,739.6c-1.3999,4.8-2.8999,10.1-4.2,15.9-.7-5.2-1.8999-10.7-3.6001-16.1l-9.3-31.3h-17.3v64.6h10.5v-54.2c1,4.3,2.3,9,3.8,14.3l11.3999,39.9h8.8l11.8-39.9c1.5-5,2.8-9.7,3.8999-14.3v54.2h10.3999v-64.6h-16.6997l-9.5,31.4999h0ZM3440.7,356.9l18.1001,9.4c29.8,15.6,57.8999,30.4,91.3,33.9,27.8999,3.1,47.7-1.7,75.8-10.1v-177.7l-134.3-104.8-102.2002,78.4v153.7c19.6001,4.2,37.6001,10.3,51.3,17.2h0ZM3457.2,235.5h66.1001v79.3h-66.1001v-79.3ZM3006.3999,371.2001c13,6.9,25.3,13.3,38.1001,18.5,64.8,26.2,109,8.6,169.2-21.4,28.3-14.1,51.5-23.8,86.6001-31.4,24-5.3,53.2-4,80.5,1v-180.6L3179.3,0l-106.3,81.9v-25.9h-50.2v65.4l-45.3999,35.1v200.3c10.2998,4.7,19.8997,9.7,28.9998,14.4ZM3127.5999,186.7h104.8999v128.1h-104.8999v-128.1ZM2925.0999,337.1c16.3,4.4,30.5,9.9,43.6001,15.6v-165.1l-104.6001-82-136.3999,104.8v170.4c17.8-9.2,35.8999-18.2,55.2-27.5,36.1001-17.2,99.2-28,142.2-16.2ZM2828.8999,235.5h66v79.3h-66v-79.3ZM3673.3999,708c14.2.2,26,11.8,25.8,26.5-.2,14.3-11.8999,26-26.3999,25.8-14.3999-.2-26-12.1-25.8-26.4.2-14.7,12.0999-26.1,26.3999-25.9h0ZM3672.8999,754.8c11,.1,20.8-9.4,20.8999-20.4.1001-11.3-9.3999-20.9-20.3999-21-10.8999-.1-20.8,9.3-20.8999,20.5-.1001,11.1,9.3999,20.8,20.3999,20.9ZM3668.8999,748.1l-7-.1.3-28,13,.1c1.6001,0,10.6001.1,10.5,8.5-.1001,5.3-3.8999,6.8-5.3,7.4l5.1001,12.2-7.3-.1-4.3-10.7-4.8999-.1-.1001,10.7999ZM3669.0999,732.2001h4.2c2,0,5.3-.4,5.3999-3.9,0-1.6-1.1001-3.2-4.8-3.2l-4.7-.1-.0999,7.2Z"/></svg>