<svg id="output_art" data-name="output art" xmlns="http://www.w3.org/2000/svg" viewBox="0 0 265.12 297.94"><defs><style>.cls-1{fill:none;stroke:#909cad;stroke-miterlimit:10;stroke-width:10.86px;opacity:0.05;}</style></defs><title>Artboard 1</title><path class="cls-1" d="M265.12,250.43a87.53,87.53,0,0,0-22.73,2.67c-30.17,8.21-48.53,22.39-70.25,31.17-14.3,5.79-27.06,8.24-39.14,8.24h-.88c-12.08,0-24.84-2.46-39.14-8.24-21.72-8.78-40.08-23-70.25-31.17A87.53,87.53,0,0,0,0,250.43"/><path class="cls-1" d="M265.12,189.18a87.53,87.53,0,0,0-22.73,2.67c-30.17,8.21-48.53,22.39-70.25,31.17-14.3,5.79-27.06,8.24-39.14,8.24h-.88C120,231.26,107.28,228.8,93,223c-21.72-8.78-40.08-23-70.25-31.17A87.53,87.53,0,0,0,0,189.18"/><path class="cls-1" d="M265.12,66.68a87.53,87.53,0,0,0-22.73,2.67c-30.17,8.21-48.53,22.39-70.25,31.17-14.3,5.79-27.06,8.24-39.14,8.24h-.88c-12.08,0-24.84-2.46-39.14-8.24-21.72-8.78-40.08-23-70.25-31.17A87.53,87.53,0,0,0,0,66.68"/><path class="cls-1" d="M265.12,127.93a87.53,87.53,0,0,0-22.73,2.67c-30.17,8.21-48.53,22.39-70.25,31.17C157.84,167.56,145.08,170,133,170h-.88c-12.08,0-24.84-2.46-39.14-8.24-21.72-8.78-40.08-23-70.25-31.17A87.53,87.53,0,0,0,0,127.93"/><path class="cls-1" d="M265.12,5.43A87.53,87.53,0,0,0,242.39,8.1c-30.17,8.21-48.53,22.39-70.25,31.17-14.3,5.79-27.06,8.24-39.14,8.24h-.88c-12.08,0-24.84-2.46-39.14-8.24C71.26,30.49,52.9,16.27,22.73,8.1A87.53,87.53,0,0,0,0,5.43"/></svg>